SplineFontDB: 3.0
FontName: NovaRound
FullName: NovaRound
FamilyName: NovaRound
Weight: Regular
Copyright: wmk69 (wmk69@o2.pl)\nSIL Open Font License v.1.1
Version: 1.22
ItalicAngle: 0
UnderlinePosition: -81
UnderlineWidth: 122
Ascent: 1511
Descent: 537
LayerCount: 2
Layer: 0 1 "Warstwa t+AUIA-a"  1
Layer: 1 1 "Plan pierwszy"  0
XUID: [1021 783 23647091 8578152]
FSType: 0
OS2Version: 3
OS2_WeightWidthSlopeOnly: 0
OS2_UseTypoMetrics: 1
CreationTime: 1260698820
ModificationTime: 1306680265
PfmFamily: 17
TTFWeight: 500
TTFWidth: 5
LineGap: 0
VLineGap: 0
Panose: 2 12 6 4 2 2 2 6 2 4
OS2TypoAscent: 2079
OS2TypoAOffset: 0
OS2TypoDescent: -506
OS2TypoDOffset: 0
OS2TypoLinegap: 0
OS2WinAscent: 2079
OS2WinAOffset: 0
OS2WinDescent: 506
OS2WinDOffset: 0
HheadAscent: 2079
HheadAOffset: 0
HheadDescent: -506
HheadDOffset: 0
OS2SubXSize: 1434
OS2SubYSize: 1331
OS2SubXOff: 0
OS2SubYOff: 287
OS2SupXSize: 1434
OS2SupYSize: 1331
OS2SupXOff: 0
OS2SupYOff: 977
OS2StrikeYSize: 102
OS2StrikeYPos: 512
OS2Vendor: '    '
OS2CodePages: 20000093.00000000
OS2UnicodeRanges: 8000002f.4000204b.00000000.00000000
Lookup: 258 0 0 "'kern' Kerning poziomy w tablicy 0"  {"Podtablica 'kern' Kerning poziomy w tablicy 0"  } ['kern' ('DFLT' <'dflt' > 'grek' <'dflt' > 'latn' <'dflt' > ) ]
DEI: 91125
KernClass2: 28 18 "Podtablica 'kern' Kerning poziomy w tablicy 0" 
 352 A C G M N O Q S Agrave Aacute Acircumflex Atilde Adieresis Aring Ccedilla Ntilde Ograve Oacute Ocircumflex Otilde Odieresis Oslash Amacron Abreve Aogonek Cacute Ccircumflex Cdotaccent Ccaron Gcircumflex Gbreve Gdotaccent Gcommaaccent Nacute Ncommaaccent Ncaron Eng Omacron Obreve Ohungarumlaut OE Sacute Scircumflex Scedilla Scaron uni01E4 Scommaaccent
 12 B germandbls
 19 D Eth Dcaron Dcroat
 83 E F AE Egrave Eacute Ecircumflex Edieresis Emacron Ebreve Edotaccent Eogonek Ecaron

StartChar: .notdef
Encoding: 65536 -1 0
Width: 844
Flags: W
HStem: 0 68<218 626> 1297 68<218 626>
VStem: 150 68<68 1297> 626 68<68 1297>
LayerCount: 2
Fore
SplineSet
150 0 m 1,0,-1
 150 1365 l 1,1,-1
 694 1365 l 1,2,-1
 694 0 l 1,3,-1
 150 0 l 1,0,-1
218 68 m 1,4,-1
 626 68 l 1,5,-1
 626 1297 l 1,6,-1
 218 1297 l 1,7,-1
 218 68 l 1,4,-1
EndSplineSet
Validated: 19457
EndChar

StartChar: exclam
Encoding: 33 33 4
Width: 600
GlyphClass: 2
Flags: W
HStem: 0 264<209.191 390.809> 1492 20G<353.556 398>
VStem: 170 260<39.7072 224.293> 200 198<404 1422>
LayerCount: 2
Fore
SplineSet
170 132 m 128,-1,1
 170 187 170 187 208 225.5 c 128,-1,2
 246 264 246 264 300 264 c 128,-1,3
 354 264 354 264 392 225.5 c 128,-1,4
 430 187 430 187 430 132 c 128,-1,5
 430 77 430 77 392 38.5 c 128,-1,6
 354 0 354 0 300 0 c 128,-1,7
 246 0 246 0 208 38.5 c 128,-1,0
 170 77 170 77 170 132 c 128,-1,1
198 1422 m 1,8,-1
 398 1512 l 1,9,-1
 398 404 l 1,10,-1
 200 312 l 1,11,-1
 198 1422 l 1,8,-1
EndSplineSet
Validated: 16385
EndChar

StartChar: quotedbl
Encoding: 34 34 5
Width: 972
GlyphClass: 2
Flags: W
HStem: 985 530
VStem: 223 200<1063 1449> 549 200<1066 1452>
LayerCount: 2
Fore
SplineSet
749 1515 m 1,0,-1
 749 1066 l 1,1,-1
 549 985 l 1,2,-1
 549 1452 l 1,3,-1
 749 1515 l 1,0,-1
423 1512 m 1,4,-1
 423 1063 l 1,5,-1
 223 982 l 1,6,-1
 223 1449 l 1,7,-1
 423 1512 l 1,4,-1
EndSplineSet
Validated: 16385
EndChar

StartChar: numbersign
Encoding: 35 35 6
Width: 1355
GlyphClass: 2
Flags: W
HStem: 491 198<241 416 614 742 940 1113> 817 198<240 415 613 741 939 1112>
VStem: 416 198<316 491 689 817 1015 1188> 742 198<315 490 688 816 1014 1187>
LayerCount: 2
Fore
SplineSet
614 316 m 1,0,-1
 416 226 l 1,1,-1
 416 491 l 1,2,-1
 151 491 l 1,3,-1
 241 689 l 1,4,-1
 416 689 l 1,5,-1
 415 817 l 1,6,-1
 150 817 l 1,7,-1
 240 1015 l 1,8,-1
 415 1015 l 1,9,-1
 415 1188 l 1,10,-1
 613 1280 l 1,11,-1
 613 1015 l 1,12,-1
 741 1014 l 1,13,-1
 741 1187 l 1,14,-1
 939 1279 l 1,15,-1
 939 1014 l 1,16,-1
 1204 1014 l 1,17,-1
 1112 816 l 1,18,-1
 939 816 l 1,19,-1
 940 688 l 1,20,-1
 1205 688 l 1,21,-1
 1113 490 l 1,22,-1
 940 490 l 1,23,-1
 940 315 l 1,24,-1
 742 225 l 1,25,-1
 742 490 l 1,26,-1
 614 491 l 1,27,-1
 614 316 l 1,0,-1
614 689 m 1,28,-1
 742 688 l 1,29,-1
 741 816 l 1,30,-1
 613 817 l 1,31,-1
 614 689 l 1,28,-1
EndSplineSet
Validated: 16385
EndChar

StartChar: dollar
Encoding: 36 36 7
Width: 1287
GlyphClass: 2
Flags: W
VStem: 150 202<336.254 514> 523 197<-128 10.3276 218 708 975 1303 1491.68 1572> 828 193<1088 1243.91> 940 197<328.554 616.25>
DStem2: 472 992 364 830 0.944252 -0.329222<-90.6142 53.7537 327.674 548.47>
LayerCount: 2
Fore
SplineSet
720 -128 m 1,0,-1
 523 -220 l 1,1,-1
 523 11 l 1,2,3
 395 42 395 42 295 141 c 1,4,5
 150 287 150 287 150 490 c 2,6,-1
 150 514 l 1,7,-1
 350 608 l 1,8,-1
 352 497 l 2,9,10
 354 366 354 366 442 276 c 0,11,12
 478 239 478 239 523 218 c 1,13,-1
 523 775 l 1,14,-1
 364 830 l 1,15,16
 223 894 223 894 200 1081 c 1,17,-1
 199 1098 l 1,18,19
 199 1266 199 1266 320 1389 c 0,20,21
 408 1479 408 1479 523 1503 c 1,22,-1
 523 1572 l 1,23,-1
 721 1661 l 1,24,-1
 721 1497 l 1,25,26
 817 1470 817 1470 901 1393 c 0,27,28
 1021 1284 1021 1284 1021 1106 c 2,29,-1
 1021 1088 l 1,30,-1
 821 1030 l 1,31,-1
 827 1111 l 2,32,33
 828 1118 828 1118 828 1125 c 0,34,35
 822 1209 822 1209 768 1266 c 0,36,37
 747 1288 747 1288 721 1303 c 1,38,-1
 721 908 l 1,39,40
 978 820 978 820 994 810 c 0,41,42
 1120 730 1120 730 1136 531 c 1,43,-1
 1137 490 l 1,44,45
 1137 286 1137 286 992 142 c 1,46,47
 876 25 876 25 720 2 c 1,48,-1
 720 -128 l 1,0,-1
720 708 m 1,49,-1
 720 196 l 1,50,51
 802 214 802 214 864 280 c 1,52,53
 940 372 940 372 940 497 c 1,54,-1
 939 525 l 1,55,56
 912 634 912 634 824 672 c 1,57,-1
 720 708 l 1,49,-1
523 1313 m 1,58,59
 491 1299 491 1299 463 1274 c 0,60,61
 392 1209 392 1209 392 1128 c 0,62,63
 392 1120 392 1120 393 1113 c 2,64,-1
 394 1100 l 2,65,66
 400 1016 400 1016 472 992 c 2,67,-1
 523 975 l 1,68,-1
 523 1313 l 1,58,59
EndSplineSet
Validated: 16385
EndChar

StartChar: percent
Encoding: 37 37 8
Width: 1734
GlyphClass: 2
Flags: W
HStem: 0 162<1160.09 1395.91> 498 162<1160.09 1395.91> 852 162<338.087 573.913> 1350 162<338.087 573.913>
VStem: 120 162<1069.54 1294.46> 630 162<1069.54 1294.46> 942 162<217.542 442.458> 1452 162<217.542 442.458>
DStem2: 319 -135 498 -219 0.435903 0.899994<2.42717 1984.44>
LayerCount: 2
Fore
SplineSet
319 -135 m 1,0,-1
 1184 1651 l 1,1,-1
 1364 1569 l 1,2,-1
 498 -219 l 1,3,-1
 319 -135 l 1,0,-1
1104 330 m 128,-1,5
 1104 260 1104 260 1155 211 c 128,-1,6
 1206 162 1206 162 1278 162 c 128,-1,7
 1350 162 1350 162 1401 211 c 128,-1,8
 1452 260 1452 260 1452 330 c 128,-1,9
 1452 400 1452 400 1401 449 c 128,-1,10
 1350 498 1350 498 1278 498 c 128,-1,11
 1206 498 1206 498 1155 449 c 128,-1,4
 1104 400 1104 400 1104 330 c 128,-1,5
942 330 m 128,-1,13
 942 467 942 467 1040.5 563.5 c 128,-1,14
 1139 660 1139 660 1278 660 c 128,-1,15
 1417 660 1417 660 1515.5 563.5 c 128,-1,16
 1614 467 1614 467 1614 330 c 128,-1,17
 1614 193 1614 193 1515.5 96.5 c 128,-1,18
 1417 0 1417 0 1278 0 c 128,-1,19
 1139 0 1139 0 1040.5 96.5 c 128,-1,12
 942 193 942 193 942 330 c 128,-1,13
282 1182 m 128,-1,21
 282 1112 282 1112 333 1063 c 128,-1,22
 384 1014 384 1014 456 1014 c 128,-1,23
 528 1014 528 1014 579 1063 c 128,-1,24
 630 1112 630 1112 630 1182 c 128,-1,25
 630 1252 630 1252 579 1301 c 128,-1,26
 528 1350 528 1350 456 1350 c 128,-1,27
 384 1350 384 1350 333 1301 c 128,-1,20
 282 1252 282 1252 282 1182 c 128,-1,21
120 1182 m 128,-1,29
 120 1319 120 1319 218.5 1415.5 c 128,-1,30
 317 1512 317 1512 456 1512 c 128,-1,31
 595 1512 595 1512 693.5 1415.5 c 128,-1,32
 792 1319 792 1319 792 1182 c 128,-1,33
 792 1045 792 1045 693.5 948.5 c 128,-1,34
 595 852 595 852 456 852 c 128,-1,35
 317 852 317 852 218.5 948.5 c 128,-1,28
 120 1045 120 1045 120 1182 c 128,-1,29
EndSplineSet
Validated: 16385
EndChar

StartChar: ampersand
Encoding: 38 38 9
Width: 1641
GlyphClass: 2
Flags: W
HStem: 0 21G<1272.17 1329.15> 744 197<511.625 681> 1316 179<509.408 864>
VStem: 150 192<326.471 630.516> 262 196<995.177 1267.92>
DStem2: 662 205 751 17 0.652678 0.757636<0 334.214 560.875 999.752> 770 940 681 744 0.632743 -0.774362<95.4607 403.3 627.166 1055.66>
LayerCount: 2
Fore
SplineSet
770 940 m 1,0,-1
 1028 630 l 1,1,-1
 1322 956 l 1,2,-1
 1491 876 l 1,3,-1
 1146 480 l 1,4,-1
 1467 87 l 1,5,-1
 1288 0 l 1,6,-1
 1022 336 l 1,7,-1
 751 17 l 1,8,-1
 634 18 l 2,9,10
 415 20 415 20 283 151 c 1,11,12
 150 277 150 277 150 462 c 0,13,14
 150 653 150 653 273 796 c 0,15,16
 310 839 310 839 366 874 c 1,17,-1
 348 893 l 1,18,19
 262 989 262 989 262 1138 c 0,20,21
 262 1264 262 1264 348 1376 c 0,22,23
 439 1494 439 1494 666 1495 c 2,24,-1
 946 1496 l 1,25,-1
 864 1316 l 1,26,-1
 671 1316 l 2,27,28
 518 1316 518 1316 478 1234 c 0,29,30
 458 1193 458 1193 458 1136 c 2,31,-1
 458 1126 l 2,32,33
 458 1074 458 1074 486 1020 c 0,34,35
 527 941 527 941 650 941 c 2,36,-1
 653 941 l 1,37,-1
 770 940 l 1,0,-1
681 744 m 1,38,-1
 629 744 l 2,39,40
 473 744 473 744 414 672 c 0,41,42
 342 584 342 584 342 475 c 2,43,-1
 342 472 l 2,44,45
 342 362 342 362 422 282 c 0,46,47
 486 218 486 218 635 207 c 2,48,-1
 662 205 l 1,49,-1
 907 483 l 1,50,-1
 681 744 l 1,38,-1
EndSplineSet
Validated: 16385
EndChar

StartChar: quotesingle
Encoding: 39 39 10
Width: 648
GlyphClass: 2
Flags: W
HStem: 982 530
VStem: 224 200<1063 1449>
LayerCount: 2
Fore
SplineSet
424 1512 m 1,0,-1
 424 1063 l 1,1,-1
 224 982 l 1,2,-1
 224 1449 l 1,3,-1
 424 1512 l 1,0,-1
EndSplineSet
Validated: 1
EndChar

StartChar: parenleft
Encoding: 40 40 11
Width: 740
GlyphClass: 2
Flags: W
VStem: 150 189<355.591 1077.12>
DStem2: 360 1537 546 1477 0.467888 0.883788<-395.514 235.16> 546 -48 360 -108 0.480011 -0.877262<-399.366 205.015>
LayerCount: 2
Fore
SplineSet
150 714 m 0,0,1
 150 940 150 940 217 1192 c 0,2,3
 259 1348 259 1348 360 1537 c 0,4,5
 387 1588 387 1588 387 1588 c 1,6,7
 414 1636 414 1636 480 1744 c 1,8,-1
 660 1659 l 1,9,10
 588 1566 588 1566 570 1528 c 1,11,12
 567 1514 567 1514 546 1477 c 0,13,14
 475 1352 475 1352 402 1138 c 0,15,16
 339 953 339 953 339 717 c 0,17,18
 339 497 339 497 402 291 c 0,19,20
 454 121 454 121 546 -48 c 0,21,22
 566 -85 566 -85 570 -99 c 1,23,24
 579 -118 579 -118 651 -237 c 1,25,-1
 476 -320 l 1,26,27
 408 -202 408 -202 387 -159 c 0,28,29
 383 -151 383 -151 360 -108 c 0,30,31
 275 50 275 50 217 238 c 0,32,33
 150 453 150 453 150 714 c 0,0,1
EndSplineSet
Validated: 16385
EndChar

StartChar: parenright
Encoding: 41 41 12
Width: 740
GlyphClass: 2
Flags: W
VStem: 401 189<355.591 1077.12>
DStem2: 89 -237 264 -320 0.480011 0.877262<11.1892 622.114> 353 1588 170 1528 0.467888 -0.883788<-177.454 445.27>
LayerCount: 2
Fore
SplineSet
590 714 m 0,0,1
 590 453 590 453 523 238 c 0,2,3
 465 50 465 50 380 -108 c 0,4,5
 357 -151 357 -151 353 -159 c 0,6,7
 332 -202 332 -202 264 -320 c 1,8,-1
 89 -237 l 1,9,10
 161 -118 161 -118 170 -99 c 1,11,12
 174 -85 174 -85 194 -48 c 0,13,14
 286 121 286 121 338 291 c 0,15,16
 401 497 401 497 401 717 c 0,17,18
 401 953 401 953 338 1138 c 0,19,20
 265 1352 265 1352 194 1477 c 0,21,22
 173 1514 173 1514 170 1528 c 1,23,24
 152 1566 152 1566 80 1659 c 1,25,-1
 260 1744 l 1,26,27
 326 1636 326 1636 353 1588 c 1,28,29
 353 1588 353 1588 380 1537 c 0,30,31
 481 1348 481 1348 523 1192 c 0,32,33
 590 940 590 940 590 714 c 0,0,1
EndSplineSet
Validated: 16385
EndChar

StartChar: asterisk
Encoding: 42 42 13
Width: 1190
GlyphClass: 2
Flags: W
HStem: 1492 20G<650.957 694>
VStem: 496 198<679 879 1222 1420>
DStem2: 325 1321 146 1196 0.865645 -0.500658<0 197.59 540.8 740.536> 146 905 323 779 0.865645 0.500658<90.1364 289.872 633.082 830.673>
LayerCount: 2
Fore
SplineSet
694 679 m 1,0,-1
 496 589 l 1,1,-1
 496 879 l 1,2,-1
 323 779 l 1,3,-1
 146 905 l 1,4,-1
 397 1050 l 1,5,-1
 146 1196 l 1,6,-1
 325 1321 l 1,7,-1
 496 1222 l 1,8,-1
 496 1420 l 1,9,-1
 694 1512 l 1,10,-1
 694 1222 l 1,11,-1
 865 1321 l 1,12,-1
 1044 1196 l 1,13,-1
 793 1050 l 1,14,-1
 1044 905 l 1,15,-1
 867 779 l 1,16,-1
 694 879 l 1,17,-1
 694 679 l 1,0,-1
EndSplineSet
Validated: 16385
EndChar

StartChar: plus
Encoding: 43 43 14
Width: 1083
GlyphClass: 2
Flags: W
HStem: 600 198<170 442 640 911>
VStem: 442 198<328 600 798 1068>
LayerCount: 2
Fore
SplineSet
640 328 m 1,0,-1
 442 238 l 1,1,-1
 442 600 l 1,2,-1
 80 600 l 1,3,-1
 170 798 l 1,4,-1
 442 798 l 1,5,-1
 442 1068 l 1,6,-1
 640 1160 l 1,7,-1
 640 798 l 1,8,-1
 1003 798 l 1,9,-1
 911 600 l 1,10,-1
 640 600 l 1,11,-1
 640 328 l 1,0,-1
EndSplineSet
Validated: 1
EndChar

StartChar: comma
Encoding: 44 44 15
Width: 608
GlyphClass: 2
Flags: W
HStem: -262 542
VStem: 110 348
DStem2: 110 -177 299 -262 0.328601 0.944469<0 464.751>
LayerCount: 2
Fore
SplineSet
299 -262 m 1,0,-1
 110 -177 l 1,1,-1
 269 280 l 1,2,-1
 458 194 l 1,3,-1
 299 -262 l 1,0,-1
EndSplineSet
Validated: 16385
EndChar

StartChar: hyphen
Encoding: 45 45 16
Width: 1083
GlyphClass: 2
Flags: W
HStem: 600 198<170 911>
LayerCount: 2
Fore
SplineSet
170 798 m 1,0,-1
 1003 798 l 1,1,-1
 911 600 l 1,2,-1
 80 600 l 1,3,-1
 170 798 l 1,0,-1
EndSplineSet
Validated: 1
EndChar

StartChar: period
Encoding: 46 46 17
Width: 560
GlyphClass: 2
Flags: W
HStem: 0 264<189.191 370.809>
VStem: 150 260<39.7072 224.293>
LayerCount: 2
Fore
SplineSet
150 132 m 128,-1,1
 150 187 150 187 188 225.5 c 128,-1,2
 226 264 226 264 280 264 c 128,-1,3
 334 264 334 264 372 225.5 c 128,-1,4
 410 187 410 187 410 132 c 128,-1,5
 410 77 410 77 372 38.5 c 128,-1,6
 334 0 334 0 280 0 c 128,-1,7
 226 0 226 0 188 38.5 c 128,-1,0
 150 77 150 77 150 132 c 128,-1,1
EndSplineSet
Validated: 1
EndChar

StartChar: slash
Encoding: 47 47 18
Width: 1065
GlyphClass: 2
Flags: W
DStem2: 10 -132 189 -216 0.435903 0.899994<2.42717 1984.44>
LayerCount: 2
Fore
SplineSet
10 -132 m 1,0,-1
 875 1654 l 1,1,-1
 1055 1572 l 1,2,-1
 189 -216 l 1,3,-1
 10 -132 l 1,0,-1
EndSplineSet
Validated: 1
EndChar

StartChar: zero
Encoding: 48 48 19
Width: 1288
GlyphClass: 2
Flags: W
HStem: 0 188<492.447 794.717> 1322 188<488.07 805.624>
VStem: 150 198<337.987 1177.62> 936 201<330.912 1188.76>
LayerCount: 2
Fore
SplineSet
348 500 m 2,0,1
 348 377 348 377 434 282.5 c 128,-1,2
 520 188 520 188 642 188 c 0,3,4
 768 188 768 188 858 284 c 0,5,6
 933 363 933 363 936 500 c 1,7,-1
 936 1010 l 2,8,9
 936 1149 936 1149 860 1232 c 0,10,11
 778 1322 778 1322 654 1322 c 0,12,13
 649 1322 649 1322 643 1322 c 0,14,15
 508 1319 508 1319 426 1226 c 0,16,17
 348 1137 348 1137 348 1010 c 2,18,-1
 348 500 l 2,0,1
150 494 m 2,19,-1
 151 1016 l 2,20,21
 151 1220 151 1220 295.5 1365 c 128,-1,22
 440 1510 440 1510 644 1510 c 128,-1,23
 848 1510 848 1510 993 1365 c 256,24,25
 1138 1220 1138 1220 1138 1016 c 2,26,-1
 1137 494 l 1,27,28
 1134 287 1134 287 993 145 c 0,29,30
 848 0 848 0 644 0 c 128,-1,31
 440 0 440 0 295 145 c 128,-1,32
 150 290 150 290 150 494 c 2,19,-1
EndSplineSet
Validated: 16385
EndChar

StartChar: one
Encoding: 49 49 20
Width: 772
GlyphClass: 2
Flags: W
HStem: 0 21G<324 367.043> 1490 20G<477.478 522>
VStem: 324 198<92 1206>
LayerCount: 2
Fore
SplineSet
522 92 m 1,0,-1
 324 0 l 1,1,-1
 324 1206 l 1,2,-1
 98 1096 l 1,3,-1
 10 1280 l 1,4,-1
 522 1510 l 1,5,-1
 522 92 l 1,0,-1
EndSplineSet
Validated: 1
EndChar

StartChar: two
Encoding: 50 50 21
Width: 1336
GlyphClass: 2
Flags: W
HStem: 0 206<464 1094> 1328 183<510.56 825.536>
VStem: 174 202<999 1184.22> 964 197<967 1179.54>
LayerCount: 2
Fore
SplineSet
174 1018 m 1,0,1
 174 1220 174 1220 319 1367 c 1,2,3
 464 1511 464 1511 668 1511 c 128,-1,4
 872 1511 872 1511 1016.5 1366.5 c 128,-1,5
 1161 1222 1161 1222 1161 1018 c 1,6,-1
 1160 977 l 1,7,8
 1134 814 1134 814 1018 698 c 0,9,10
 944 624 944 624 784 500 c 1,11,12
 480 278 480 278 464 206 c 1,13,-1
 1186 196 l 1,14,-1
 1094 0 l 1,15,-1
 150 0 l 1,16,-1
 226 192 l 1,17,18
 325 399 325 399 696 667 c 1,19,-1
 718 680 l 1,20,21
 926 830 926 830 956 967 c 1,22,-1
 964 1011 l 1,23,24
 964 1140 964 1140 880 1238 c 0,25,26
 803 1328 803 1328 645 1328 c 0,27,28
 541 1328 541 1328 458 1238 c 0,29,30
 376 1149 376 1149 376 1011 c 2,31,-1
 376 999 l 1,32,-1
 178 910 l 1,33,-1
 174 1018 l 1,0,1
EndSplineSet
Validated: 16385
EndChar

StartChar: three
Encoding: 51 51 22
Width: 1286
GlyphClass: 2
Flags: W
HStem: 4 192<487.93 805.934> 1312 182<264 760>
VStem: 150 198<349.076 524> 940 196<332.418 635.922>
DStem2: 429 818 742 952 0.574071 0.818806<289.404 592.87>
LayerCount: 2
Fore
SplineSet
348 548 m 1,0,1
 348 392 348 392 430 292 c 0,2,3
 509 196 509 196 644 196 c 0,4,5
 780 196 780 196 864 290 c 0,6,7
 940 375 940 375 940 504 c 1,8,-1
 938 526 l 1,9,10
 913 645 913 645 828 718 c 0,11,12
 796 746 796 746 717 780 c 0,13,14
 710 783 710 783 607 806 c 0,15,16
 584 811 584 811 517 814 c 2,17,-1
 429 818 l 1,18,-1
 760 1310 l 1,19,-1
 178 1312 l 1,20,-1
 264 1494 l 1,21,-1
 1122 1494 l 1,22,-1
 742 952 l 1,23,-1
 768 948 l 1,24,25
 832 930 832 930 873 910 c 0,26,27
 935 879 935 879 1002 820 c 1,28,29
 1115 715 1115 715 1134 526 c 2,30,-1
 1136 506 l 1,31,32
 1136 302 1136 302 992 153 c 128,-1,33
 848 4 848 4 644 4 c 128,-1,34
 440 4 440 4 295 148 c 1,35,36
 150 295 150 295 150 497 c 2,37,-1
 150 524 l 1,38,-1
 349 615 l 1,39,-1
 348 548 l 1,0,1
EndSplineSet
Validated: 16385
EndChar

StartChar: four
Encoding: 52 52 23
Width: 1211
GlyphClass: 2
Flags: W
HStem: 0 21G<737.948 781.111> 388 186<346 736 933 1020> 1492 20G<885.333 932>
VStem: 736 196<90 387 575 1116>
LayerCount: 2
Fore
SplineSet
737 387 m 1,0,-1
 50 388 l 1,1,-1
 140 588 l 1,2,-1
 736 1428 l 1,3,-1
 932 1512 l 1,4,-1
 932 575 l 1,5,-1
 1111 578 l 1,6,-1
 1020 390 l 1,7,-1
 933 390 l 1,8,-1
 932 90 l 1,9,-1
 738 0 l 1,10,-1
 737 387 l 1,0,-1
346 574 m 1,11,-1
 736 574 l 1,12,-1
 736 1116 l 1,13,-1
 346 574 l 1,11,-1
EndSplineSet
Validated: 16385
EndChar

StartChar: five
Encoding: 53 53 24
Width: 1245
GlyphClass: 2
Flags: W
HStem: 4 181<471.198 788.729> 807 169<439.784 770.087> 1298 199<527 974>
VStem: 130 196<342.5 524> 918 197<324.342 662.02>
DStem2: 198 738 438 948 0.233179 0.972434<260.174 621.279>
LayerCount: 2
Fore
SplineSet
326 518 m 1,0,1
 326 376 326 376 416 276 c 0,2,3
 498 185 498 185 649 185 c 0,4,5
 761 185 761 185 842 278 c 0,6,7
 918 365 918 365 918 504 c 2,8,-1
 918 518 l 1,9,10
 906 631 906 631 854 688 c 0,11,12
 795 753 795 753 736 784 c 0,13,14
 692 807 692 807 618 807 c 0,15,16
 602 807 602 807 585 806 c 0,17,18
 518 802 518 802 318 762 c 2,19,-1
 198 738 l 1,20,-1
 380 1497 l 1,21,-1
 1063 1497 l 1,22,-1
 974 1298 l 1,23,-1
 527 1298 l 1,24,-1
 438 948 l 1,25,-1
 468 956 l 1,26,27
 547 976 547 976 637 976 c 0,28,29
 722 976 722 976 812 946 c 0,30,31
 908 914 908 914 1000 812 c 1,32,33
 1106 688 1106 688 1112 516 c 1,34,-1
 1115 497 l 1,35,36
 1115 293 1115 293 970.5 148.5 c 128,-1,37
 826 4 826 4 622 4 c 128,-1,38
 418 4 418 4 273 148 c 1,39,40
 130 322 130 322 130 510 c 2,41,-1
 130 524 l 1,42,-1
 327 615 l 1,43,-1
 326 518 l 1,0,1
EndSplineSet
Validated: 16385
EndChar

StartChar: six
Encoding: 54 54 25
Width: 1283
GlyphClass: 2
Flags: W
HStem: 0 194<491.828 805.38> 798 189<474.146 799.837> 1318 192<474.569 797.033>
VStem: 150 197<341.796 672.725 891 1183.21> 930 203<315.975 660.457>
LayerCount: 2
Fore
SplineSet
347 546 m 1,0,-1
 347 500 l 2,1,2
 347 377 347 377 433.5 285.5 c 128,-1,3
 520 194 520 194 642 194 c 0,4,5
 777 194 777 194 860 282 c 0,6,7
 926 352 926 352 930 492 c 1,8,9
 927 625 927 625 848 714 c 1,10,11
 770 798 770 798 634 798 c 0,12,13
 500 798 500 798 416 706 c 0,14,15
 369 655 369 655 347 546 c 1,0,-1
150 453 m 1,16,-1
 150 1016 l 2,17,18
 150 1220 150 1220 294.5 1365 c 128,-1,19
 439 1510 439 1510 643 1510 c 0,20,21
 854 1510 854 1510 992 1365 c 0,22,23
 1088 1264 1088 1264 1097 1135 c 2,24,-1
 1098 1120 l 1,25,-1
 914 1029 l 1,26,-1
 914 1059 l 2,27,28
 914 1162 914 1162 846 1234 c 0,29,30
 766 1318 766 1318 640 1318 c 0,31,32
 501 1318 501 1318 426 1234 c 0,33,34
 347 1145 347 1145 347 1010 c 2,35,-1
 347 891 l 1,36,37
 475 987 475 987 639 987 c 0,38,39
 842 987 842 987 988 842 c 1,40,41
 1117 716 1117 716 1133 518 c 1,42,-1
 1133 505 l 1,43,-1
 1133 477 l 2,44,45
 1133 287 1133 287 992 145 c 0,46,47
 847 0 847 0 643 0 c 128,-1,48
 439 0 439 0 294 145 c 0,49,50
 163 276 163 276 150 453 c 1,16,-1
EndSplineSet
Validated: 16385
EndChar

StartChar: seven
Encoding: 55 55 26
Width: 1051
GlyphClass: 2
Flags: W
HStem: 0 21G<174.634 209.729> 1316 184<133 735>
DStem2: 166 0 424 118 0.402139 0.915579<211.79 1435.55>
LayerCount: 2
Fore
SplineSet
424 118 m 1,0,-1
 166 0 l 1,1,-1
 735 1318 l 1,2,-1
 50 1316 l 1,3,-1
 133 1500 l 1,4,-1
 1031 1500 l 1,5,-1
 424 118 l 1,0,-1
EndSplineSet
Validated: 16385
EndChar

StartChar: eight
Encoding: 56 56 27
Width: 1284
GlyphClass: 2
Flags: W
HStem: -3 195<478.89 798.573> 794 176<504.703 785.719> 1348 168<486.392 784.585>
VStem: 150 198<325.062 655.95> 856 194<1035.08 1281.08> 937 197<322.23 643.799>
LayerCount: 2
Fore
SplineSet
348 543 m 1,0,-1
 348 497 l 2,1,2
 348 364 348 364 425 280 c 0,3,4
 506 192 506 192 643 192 c 0,5,6
 763 192 763 192 857 280 c 0,7,8
 934 352 934 352 937 472 c 1,9,10
 934 612 934 612 855 696 c 1,11,12
 772 794 772 794 639 794 c 0,13,14
 505 794 505 794 423 698 c 0,15,16
 366 630 366 630 348 543 c 1,0,-1
654 970 m 0,17,18
 739 970 739 970 807 1030 c 1,19,20
 856 1084 856 1084 856 1148 c 2,21,-1
 856 1178 l 2,22,23
 856 1247 856 1247 796 1295 c 1,24,25
 725 1348 725 1348 631 1348 c 0,26,27
 568 1348 568 1348 497 1310 c 0,28,29
 436 1278 436 1278 422 1180 c 2,30,-1
 420 1166 l 1,31,-1
 422 1147 l 2,32,33
 429 1080 429 1080 489 1026 c 0,34,35
 551 970 551 970 654 970 c 0,17,18
379 896 m 1,36,37
 228 1003 228 1003 228 1142 c 2,38,-1
 228 1155 l 2,39,40
 228 1301 228 1301 349 1408.5 c 128,-1,41
 470 1516 470 1516 640 1516 c 0,42,43
 802 1516 802 1516 930 1412 c 0,44,45
 1050 1315 1050 1315 1050 1162 c 2,46,-1
 1050 1135 l 2,47,48
 1050 1011 1050 1011 911 892 c 1,49,50
 942 880 942 880 989 839 c 0,51,52
 1117 728 1117 728 1134 515 c 1,53,-1
 1134 502 l 1,54,-1
 1134 474 l 2,55,56
 1134 284 1134 284 993 142 c 0,57,58
 848 -3 848 -3 639 -3 c 128,-1,59
 430 -3 430 -3 285 142 c 1,60,61
 165 273 165 273 151 450 c 0,62,63
 150 467 150 467 150 483 c 0,64,65
 153 604 153 604 181 672 c 0,66,67
 229 788 229 788 348 888 c 1,68,-1
 379 896 l 1,36,37
EndSplineSet
Validated: 16385
EndChar

StartChar: nine
Encoding: 57 57 28
Width: 1283
GlyphClass: 2
Flags: W
HStem: 0 192<485.967 808.431> 523 189<493.241 808.854> 1316 194<477.62 791.172>
VStem: 150 203<853.729 1194.03> 936 197<326.793 619 837.275 1168.2>
LayerCount: 2
Fore
SplineSet
936 964 m 1,0,-1
 936 1010 l 2,1,2
 936 1133 936 1133 849.5 1224.5 c 128,-1,3
 763 1316 763 1316 641 1316 c 0,4,5
 506 1316 506 1316 423 1228 c 0,6,7
 357 1158 357 1158 353 1018 c 1,8,9
 356 890 356 890 434 806 c 0,10,11
 521 712 521 712 649 712 c 0,12,13
 783 712 783 712 867 804 c 0,14,15
 914 855 914 855 936 964 c 1,0,-1
1133 1057 m 1,16,-1
 1133 494 l 2,17,18
 1133 290 1133 290 988.5 145 c 128,-1,19
 844 0 844 0 640 0 c 0,20,21
 429 0 429 0 291 145 c 0,22,23
 195 246 195 246 186 375 c 2,24,-1
 185 390 l 1,25,-1
 369 481 l 1,26,-1
 369 451 l 2,27,28
 369 348 369 348 437 276 c 0,29,30
 517 192 517 192 643 192 c 0,31,32
 782 192 782 192 857 276 c 0,33,34
 936 365 936 365 936 500 c 2,35,-1
 936 619 l 1,36,37
 808 523 808 523 644 523 c 0,38,39
 441 523 441 523 295 668 c 1,40,41
 166 794 166 794 150 992 c 1,42,-1
 150 1005 l 1,43,-1
 150 1033 l 2,44,45
 150 1223 150 1223 291 1365 c 0,46,47
 436 1510 436 1510 640 1510 c 128,-1,48
 844 1510 844 1510 989 1365 c 0,49,50
 1120 1234 1120 1234 1133 1057 c 1,16,-1
EndSplineSet
Validated: 16385
EndChar

StartChar: colon
Encoding: 58 58 29
Width: 562
GlyphClass: 2
Flags: W
HStem: 0 264<191.191 372.809> 554 264<189.191 370.809>
VStem: 152 260<39.7072 224.293 593.707 778.293>
LayerCount: 2
Fore
SplineSet
152 132 m 128,-1,1
 152 187 152 187 190 225.5 c 128,-1,2
 228 264 228 264 282 264 c 128,-1,3
 336 264 336 264 374 225.5 c 128,-1,4
 412 187 412 187 412 132 c 128,-1,5
 412 77 412 77 374 38.5 c 128,-1,6
 336 0 336 0 282 0 c 128,-1,7
 228 0 228 0 190 38.5 c 128,-1,0
 152 77 152 77 152 132 c 128,-1,1
150 686 m 128,-1,9
 150 741 150 741 188 779.5 c 128,-1,10
 226 818 226 818 280 818 c 128,-1,11
 334 818 334 818 372 779.5 c 128,-1,12
 410 741 410 741 410 686 c 128,-1,13
 410 631 410 631 372 592.5 c 128,-1,14
 334 554 334 554 280 554 c 128,-1,15
 226 554 226 554 188 592.5 c 128,-1,8
 150 631 150 631 150 686 c 128,-1,9
EndSplineSet
Validated: 16385
EndChar

StartChar: semicolon
Encoding: 59 59 30
Width: 628
GlyphClass: 2
Flags: W
HStem: 552 264<239.191 420.809>
VStem: 200 260<591.707 776.293>
DStem2: 110 -177 299 -262 0.328601 0.944469<0 464.751>
LayerCount: 2
Fore
SplineSet
299 -262 m 1,0,-1
 110 -177 l 1,1,-1
 269 280 l 1,2,-1
 458 194 l 1,3,-1
 299 -262 l 1,0,-1
200 684 m 128,-1,5
 200 739 200 739 238 777.5 c 128,-1,6
 276 816 276 816 330 816 c 128,-1,7
 384 816 384 816 422 777.5 c 128,-1,8
 460 739 460 739 460 684 c 128,-1,9
 460 629 460 629 422 590.5 c 128,-1,10
 384 552 384 552 330 552 c 128,-1,11
 276 552 276 552 238 590.5 c 128,-1,4
 200 629 200 629 200 684 c 128,-1,5
EndSplineSet
Validated: 16385
EndChar

StartChar: less
Encoding: 60 60 31
Width: 1139
GlyphClass: 2
Flags: W
DStem2: 416 675 80 599 0.889737 -0.456474<0 633.462>
LayerCount: 2
Fore
SplineSet
156 767 m 1,0,-1
 906 1220 l 1,1,-1
 989 1038 l 1,2,-1
 416 675 l 1,3,-1
 972 371 l 1,4,-1
 885 186 l 1,5,-1
 80 599 l 1,6,-1
 156 767 l 1,0,-1
EndSplineSet
Validated: 16385
EndChar

StartChar: equal
Encoding: 61 61 32
Width: 1084
GlyphClass: 2
Flags: W
HStem: 436 198<171 912> 762 198<170 911>
LayerCount: 2
Fore
SplineSet
170 960 m 1,0,-1
 1003 960 l 1,1,-1
 911 762 l 1,2,-1
 80 762 l 1,3,-1
 170 960 l 1,0,-1
171 634 m 1,4,-1
 1004 634 l 1,5,-1
 912 436 l 1,6,-1
 81 436 l 1,7,-1
 171 634 l 1,4,-1
EndSplineSet
Validated: 1
EndChar

StartChar: greater
Encoding: 62 62 33
Width: 1139
GlyphClass: 2
Flags: W
DStem2: 150 368 233 186 0.855979 0.517011<0 678.151>
LayerCount: 2
Fore
SplineSet
983 639 m 1,0,-1
 233 186 l 1,1,-1
 150 368 l 1,2,-1
 723 731 l 1,3,-1
 167 1035 l 1,4,-1
 254 1220 l 1,5,-1
 1059 807 l 1,6,-1
 983 639 l 1,0,-1
EndSplineSet
Validated: 16385
EndChar

StartChar: question
Encoding: 63 63 34
Width: 1287
GlyphClass: 2
Flags: W
HStem: 0 264<517.191 698.809> 1329 185<481.13 810.816>
VStem: 150 202<1002 1192.77> 478 260<39.7072 224.293> 940 196<970 1188.11>
LayerCount: 2
Fore
SplineSet
478 132 m 128,-1,1
 478 187 478 187 516 225.5 c 128,-1,2
 554 264 554 264 608 264 c 128,-1,3
 662 264 662 264 700 225.5 c 128,-1,4
 738 187 738 187 738 132 c 128,-1,5
 738 77 738 77 700 38.5 c 128,-1,6
 662 0 662 0 608 0 c 128,-1,7
 554 0 554 0 516 38.5 c 128,-1,0
 478 77 478 77 478 132 c 128,-1,1
150 1021 m 1,8,9
 150 1223 150 1223 295 1370 c 1,10,11
 440 1514 440 1514 644 1514 c 128,-1,12
 848 1514 848 1514 992.5 1369.5 c 128,-1,13
 1137 1225 1137 1225 1137 1021 c 1,14,-1
 1136 980 l 1,15,16
 1108 830 1108 830 994 716 c 0,17,18
 982 704 982 704 780 520 c 0,19,20
 706 452 706 452 702 400 c 2,21,-1
 701 387 l 1,22,-1
 508 294 l 1,23,-1
 508 419 l 1,24,25
 536 556 536 556 672 670 c 1,26,-1
 702 692 l 1,27,28
 904 860 904 860 932 970 c 1,29,-1
 940 1014 l 1,30,31
 940 1149 940 1149 858 1244 c 0,32,33
 784 1329 784 1329 636 1329 c 1,34,35
 500 1328 500 1328 423 1233 c 0,36,37
 352 1146 352 1146 352 1014 c 2,38,-1
 352 1002 l 1,39,-1
 152 924 l 1,40,-1
 150 1021 l 1,8,9
EndSplineSet
Validated: 16385
EndChar

StartChar: at
Encoding: 64 64 35
Width: 1205
GlyphClass: 2
Flags: W
HStem: -384 188<492.447 821.213> -5 176<631.145 747> 938 188<487.456 776.332>
VStem: 150 198<-46.0127 793.624> 388 198<216.678 326> 855 200<92 476 654 859.582>
LayerCount: 2
Fore
SplineSet
643 938 m 0,0,1
 511 938 511 938 426 842 c 0,2,3
 348 753 348 753 348 626 c 2,4,-1
 348 116 l 2,5,6
 348 -7 348 -7 434 -101.5 c 128,-1,7
 520 -196 520 -196 642 -196 c 0,8,9
 727 -196 727 -196 796 -152 c 1,10,-1
 942 -284 l 1,11,12
 813 -384 813 -384 644 -384 c 0,13,14
 440 -384 440 -384 295 -239 c 128,-1,15
 150 -94 150 -94 150 110 c 2,16,-1
 151 632 l 2,17,18
 151 836 151 836 295.5 981 c 128,-1,19
 440 1126 440 1126 644 1126 c 0,20,21
 807 1126 807 1126 934 997 c 1,22,23
 1055 872 1055 872 1055 715 c 2,24,-1
 1055 712 l 1,25,-1
 1053 92 l 1,26,-1
 855 0 l 1,27,-1
 855 388 l 1,28,-1
 855 476 l 1,29,-1
 586 326 l 1,30,31
 586 276 586 276 610 242 c 1,32,33
 653 176 653 176 714 172 c 0,34,35
 731 171 731 171 746 171 c 0,36,37
 780 172 780 172 793 174 c 0,38,39
 816 176 816 176 839 178 c 1,40,-1
 747 0 l 1,41,42
 699 -5 699 -5 674 -5 c 0,43,44
 664 -5 664 -5 658 -4 c 0,45,46
 526 18 526 18 459 115 c 0,47,48
 388 218 388 218 388 404 c 2,49,-1
 388 422 l 1,50,-1
 853 654 l 1,51,-1
 852 721 l 2,52,53
 850 827 850 827 791 882 c 0,54,55
 731 938 731 938 643 938 c 0,0,1
EndSplineSet
Validated: 16385
EndChar

StartChar: A
Encoding: 65 65 36
Width: 1390
GlyphClass: 2
Flags: W
HStem: 0 21G<200.02 243.043 992.09 1036.49> 443 190<400 994> 1320 190<533.376 852.46>
VStem: 201 198<92 436 626 1182.12> 994 196<89 443 633 1176.65>
LayerCount: 2
Fore
SplineSet
200 0 m 1,0,-1
 201 1016 l 2,1,2
 201 1220 201 1220 346 1365 c 256,3,4
 491 1510 491 1510 695 1510 c 0,5,6
 902 1510 902 1510 1044 1365 c 0,7,8
 1188 1218 1188 1218 1188 1016 c 2,9,-1
 1190 89 l 1,10,-1
 992 0 l 1,11,-1
 994 443 l 1,12,-1
 400 436 l 1,13,-1
 398 92 l 1,14,-1
 200 0 l 1,0,-1
399 626 m 1,15,-1
 994 633 l 1,16,-1
 995 1017 l 2,17,18
 995 1147 995 1147 906 1234 c 0,19,20
 818 1320 818 1320 697 1320 c 0,21,22
 695 1320 695 1320 692 1320 c 0,23,24
 560 1320 560 1320 476 1230 c 1,25,26
 399 1139 399 1139 399 1010 c 2,27,-1
 399 626 l 1,15,-1
EndSplineSet
Validated: 1
EndChar

StartChar: B
Encoding: 66 66 37
Width: 1312
GlyphClass: 2
Flags: W
HStem: 20 190<400 900.571> 756 178<402 814.893> 1315 183<401 824.156>
VStem: 202 200<210 756 934 1315> 884 196<1003.78 1255.98> 996 196<306.824 619.028>
LayerCount: 2
Fore
SplineSet
713 757 m 2,0,-1
 402 756 l 1,1,-1
 400 210 l 1,2,-1
 711 209 l 2,3,4
 864 209 864 209 928 276 c 0,5,6
 995 347 995 347 996 462 c 1,7,8
 996 462 996 462 996 465 c 0,9,10
 996 571 996 571 923 658 c 0,11,12
 840 757 840 757 713 757 c 2,0,-1
400 1498 m 1,13,-1
 672 1498 l 2,14,15
 900 1498 900 1498 994 1376 c 0,16,17
 1080 1264 1080 1264 1080 1135 c 128,-1,18
 1080 1006 1080 1006 994 910 c 1,19,-1
 944 872 l 1,20,21
 1001 854 1001 854 1052 802 c 0,22,23
 1192 659 1192 659 1192 465 c 2,24,-1
 1192 462 l 1,25,26
 1191 270 1191 270 1067 145 c 0,27,28
 943 21 943 21 716 21 c 2,29,-1
 200 20 l 1,30,-1
 202 1409 l 1,31,-1
 400 1498 l 1,13,-1
401 1315 m 1,32,-1
 402 934 l 1,33,-1
 689 933 l 1,34,35
 810 941 810 941 860 1032 c 0,36,37
 884 1076 884 1076 884 1133 c 0,38,39
 884 1136 884 1136 884 1138 c 0,40,41
 884 1195 884 1195 858 1236 c 0,42,43
 809 1313 809 1313 668 1314 c 2,44,-1
 401 1315 l 1,32,-1
EndSplineSet
Validated: 1
EndChar

StartChar: C
Encoding: 67 67 38
Width: 1388
GlyphClass: 2
Flags: W
HStem: 0 194<531.032 845.83> 1326 184<536.879 840.016>
VStem: 200 198<332.376 1183.21> 986 202<332.375 500 992 1188.12>
LayerCount: 2
Fore
SplineSet
988 898 m 1,0,-1
 986 1010 l 2,1,2
 983 1158 983 1158 910 1228 c 0,3,4
 807 1326 807 1326 694 1326 c 0,5,6
 560 1326 560 1326 474 1230 c 0,7,8
 398 1145 398 1145 398 1010 c 2,9,-1
 398 500 l 2,10,11
 398 368 398 368 476 284 c 0,12,13
 559 194 559 194 692 194 c 0,14,15
 821 194 821 194 910 290 c 0,16,17
 983 368 983 368 986 500 c 1,18,-1
 1188 594 l 1,19,-1
 1187 494 l 2,20,21
 1185 288 1185 288 1043 145 c 0,22,23
 898 0 898 0 694 0 c 128,-1,24
 490 0 490 0 345 145 c 256,25,26
 200 290 200 290 200 494 c 2,27,-1
 201 1016 l 2,28,29
 201 1220 201 1220 346 1365 c 0,30,31
 490 1510 490 1510 694 1510 c 128,-1,32
 898 1510 898 1510 1043 1365 c 256,33,34
 1188 1220 1188 1220 1188 1016 c 2,35,-1
 1188 992 l 1,36,-1
 988 898 l 1,0,-1
EndSplineSet
Validated: 1
EndChar

StartChar: D
Encoding: 68 68 39
Width: 1408
GlyphClass: 2
Flags: W
HStem: 20 190<396 891.051> 1302 193<398 895.186>
VStem: 200 196<210 1302> 1012 196<342.352 1177.62>
LayerCount: 2
Fore
SplineSet
707 1303 m 2,0,-1
 396 1302 l 1,1,-1
 396 210 l 1,2,-1
 707 210 l 2,3,4
 859 210 859 210 924 280 c 0,5,6
 1008 371 1008 371 1010 494 c 1,7,-1
 1012 1015 l 1,8,9
 1012 1015 1012 1015 1012 1018 c 0,10,11
 1012 1147 1012 1147 918 1240 c 0,12,13
 854 1303 854 1303 707 1303 c 2,0,-1
714 21 m 2,14,-1
 200 20 l 1,15,-1
 200 1407 l 1,16,-1
 398 1496 l 1,17,-1
 398 1495 l 1,18,-1
 714 1493 l 1,19,20
 935 1493 935 1493 1063 1365 c 0,21,22
 1208 1220 1208 1220 1208 1016 c 2,23,-1
 1207 494 l 1,24,25
 1204 287 1204 287 1063 146 c 0,26,27
 938 21 938 21 714 21 c 2,14,-1
EndSplineSet
Validated: 1
EndChar

StartChar: E
Encoding: 69 69 40
Width: 1138
GlyphClass: 2
Flags: W
HStem: 22 192<396 996> 664 192<397 886> 1300 191<398 896>
VStem: 200 196<214 664 856 1300>
LayerCount: 2
Fore
SplineSet
396 1300 m 1,0,-1
 397 856 l 1,1,-1
 978 856 l 1,2,-1
 886 666 l 1,3,-1
 396 664 l 1,4,-1
 396 214 l 1,5,-1
 1088 214 l 1,6,-1
 996 22 l 1,7,-1
 200 22 l 1,8,-1
 200 1402 l 1,9,-1
 398 1491 l 1,10,-1
 982 1490 l 1,11,-1
 896 1302 l 1,12,-1
 396 1300 l 1,0,-1
EndSplineSet
Validated: 1
EndChar

StartChar: F
Encoding: 70 70 41
Width: 1082
GlyphClass: 2
Flags: W
HStem: 0 21G<201.972 245.043> 672 184<400 896> 1312 185<398 898>
VStem: 202 198<92 672 856 1312>
LayerCount: 2
Fore
SplineSet
398 1497 m 1,0,-1
 982 1496 l 1,1,-1
 898 1314 l 1,2,-1
 398 1312 l 1,3,-1
 399 856 l 1,4,-1
 980 856 l 1,5,-1
 896 672 l 1,6,-1
 400 672 l 1,7,-1
 400 92 l 1,8,-1
 202 0 l 1,9,-1
 200 1408 l 1,10,-1
 398 1497 l 1,0,-1
EndSplineSet
Validated: 19457
EndChar

StartChar: G
Encoding: 71 71 42
Width: 1388
GlyphClass: 2
Flags: W
HStem: 0 188<542.974 850.596> 594 190<708 994> 1316 194<524.963 850.743>
VStem: 200 198<340.242 1182.14> 986 202<319.752 594 992 1177.62>
LayerCount: 2
Fore
SplineSet
484 282 m 1,0,1
 572 188 572 188 694 188 c 0,2,3
 820 188 820 188 912 282 c 1,4,5
 991 365 991 365 994 500 c 1,6,-1
 994 594 l 1,7,-1
 622 594 l 1,8,-1
 708 784 l 1,9,-1
 1188 784 l 1,10,-1
 1187 494 l 1,11,12
 1184 287 1184 287 1043 145 c 0,13,14
 898 0 898 0 694 0 c 128,-1,15
 490 0 490 0 345 145 c 256,16,17
 200 290 200 290 200 494 c 2,18,-1
 201 1016 l 2,19,20
 201 1220 201 1220 345 1365 c 128,-1,21
 489 1510 489 1510 694 1510 c 0,22,23
 898 1510 898 1510 1043 1365 c 256,24,25
 1188 1220 1188 1220 1188 1016 c 2,26,-1
 1188 992 l 1,27,-1
 988 898 l 1,28,-1
 986 1010 l 2,29,30
 984 1148 984 1148 898 1234 c 0,31,32
 816 1316 816 1316 692 1316 c 0,33,34
 558 1316 558 1316 482 1236 c 0,35,36
 398 1147 398 1147 398 1010 c 2,37,-1
 398 500 l 1,38,39
 405 368 405 368 484 282 c 1,0,1
EndSplineSet
Validated: 1
EndChar

StartChar: H
Encoding: 72 72 43
Width: 1402
GlyphClass: 2
Flags: W
HStem: 0 21G<200 243.043 1007.97 1050.17> 682 192<396 1007> 1492 20G<354 397.937 1158 1202>
VStem: 200 198<92 682 874 1422> 1007 195<92 682 874 1422>
LayerCount: 2
Fore
SplineSet
398 92 m 1,0,-1
 200 0 l 1,1,-1
 200 1422 l 1,2,-1
 398 1512 l 1,3,-1
 396 874 l 1,4,-1
 1007 874 l 1,5,-1
 1004 1422 l 1,6,-1
 1202 1512 l 1,7,-1
 1202 92 l 1,8,-1
 1008 0 l 1,9,-1
 1007 682 l 1,10,-1
 396 682 l 1,11,-1
 398 92 l 1,0,-1
EndSplineSet
Validated: 1
EndChar

StartChar: I
Encoding: 73 73 44
Width: 598
GlyphClass: 2
Flags: W
HStem: 0 21G<200 243.043> 1491 20G<353.506 398>
VStem: 200 198<92 1422>
LayerCount: 2
Fore
SplineSet
398 92 m 1,0,-1
 200 0 l 1,1,-1
 200 1422 l 1,2,-1
 398 1511 l 1,3,-1
 398 92 l 1,0,-1
EndSplineSet
Validated: 1
EndChar

StartChar: J
Encoding: 74 74 45
Width: 1072
GlyphClass: 2
Flags: W
HStem: 0 182<325.923 590.587> 1492 20G<827 872>
VStem: 50 194<268.093 424> 674 198<261.308 1424>
LayerCount: 2
Fore
SplineSet
674 1424 m 1,0,-1
 872 1512 l 1,1,-1
 872 414 l 2,2,3
 872 245 872 245 751 123 c 0,4,5
 629 0 629 0 460 0 c 0,6,7
 302 0 302 0 170 119 c 0,8,9
 50 228 50 228 50 406 c 2,10,-1
 50 424 l 1,11,-1
 242 496 l 1,12,-1
 244 401 l 2,13,14
 246 308 246 308 304 246 c 1,15,16
 362 182 362 182 460 182 c 0,17,18
 533 182 533 182 608 238 c 0,19,20
 674 287 674 287 674 414 c 2,21,-1
 674 437 l 1,22,-1
 674 1424 l 1,0,-1
EndSplineSet
Validated: 16385
EndChar

StartChar: K
Encoding: 75 75 46
Width: 1318
GlyphClass: 2
Flags: W
HStem: 0 21G<200 243.043 919.5 963.043> 1492 20G<353 398 922.893 956.579>
VStem: 200 198<92 679.189 879 1424> 918 200<92 678.172>
DStem2: 402 881 696 938 0.649995 0.759938<234.415 794.087>
LayerCount: 2
Fore
SplineSet
920 0 m 1,0,1
 919 2 919 2 918 202 c 2,2,-1
 916 524 l 2,3,4
 915 638 915 638 862 694 c 0,5,6
 792 768 792 768 660 768 c 0,7,8
 555 768 555 768 486 719 c 1,9,-1
 472 708 l 2,10,11
 412 661 412 661 398 584 c 1,12,-1
 398 92 l 1,13,-1
 200 0 l 1,14,-1
 200 1424 l 1,15,-1
 398 1512 l 1,16,-1
 398 879 l 1,17,-1
 402 881 l 1,18,-1
 940 1510 l 1,19,-1
 1066 1358 l 1,20,-1
 696 938 l 1,21,22
 895 918 895 918 996 821 c 0,23,24
 1115 706 1115 706 1116 534 c 2,25,-1
 1118 92 l 1,26,-1
 920 0 l 1,0,1
EndSplineSet
Validated: 1
EndChar

StartChar: L
Encoding: 76 76 47
Width: 1087
GlyphClass: 2
Flags: W
HStem: 20 182<398 996> 1492 20G<354 398>
VStem: 200 198<202 1422>
LayerCount: 2
Fore
SplineSet
200 1422 m 1,0,-1
 398 1512 l 1,1,-1
 398 202 l 1,2,-1
 1082 200 l 1,3,-1
 996 20 l 1,4,-1
 200 20 l 1,5,-1
 200 1422 l 1,0,-1
EndSplineSet
Validated: 1
EndChar

StartChar: M
Encoding: 77 77 48
Width: 2174
GlyphClass: 2
Flags: W
HStem: 0 21G<200.02 243.043 986 1029.04 1776.04 1818.83> 1316 194<532.756 850.547 1302.41 1646.32>
VStem: 200 198<92 1177.62> 986 198<92 1182.75> 1776 197<92 1185.21>
LayerCount: 2
Fore
SplineSet
1184 92 m 1,0,-1
 986 0 l 1,1,-1
 986 1018 l 1,2,3
 984 1150 984 1150 904 1230 c 0,4,5
 819 1316 819 1316 692 1316 c 0,6,7
 567 1316 567 1316 486 1234 c 0,8,9
 399 1147 399 1147 399 1010 c 2,10,-1
 398 92 l 1,11,-1
 200 0 l 1,12,-1
 201 1016 l 2,13,14
 201 1220 201 1220 346 1365 c 128,-1,15
 491 1510 491 1510 695 1510 c 0,16,17
 905 1510 905 1510 1044 1365 c 0,18,19
 1067 1341 1067 1341 1086 1317 c 1,20,21
 1107 1343 1107 1343 1131 1367 c 0,22,23
 1276 1512 1276 1512 1480 1512 c 128,-1,24
 1684 1512 1684 1512 1829 1367 c 256,25,26
 1974 1222 1974 1222 1974 1018 c 2,27,-1
 1973 92 l 1,28,-1
 1776 0 l 1,29,-1
 1778 1046 l 2,30,31
 1778 1150 1778 1150 1688 1238 c 0,32,33
 1604 1320 1604 1320 1478 1322 c 1,34,-1
 1475 1322 l 2,35,36
 1342 1322 1342 1322 1262 1236 c 0,37,38
 1198 1167 1198 1167 1186 1024 c 1,39,-1
 1184 92 l 1,0,-1
EndSplineSet
Validated: 1
EndChar

StartChar: N
Encoding: 78 78 49
Width: 1388
GlyphClass: 2
Flags: W
HStem: 0 21G<200.02 243.043 990 1034.04> 1324 186<538.987 850.511>
VStem: 200 198<92 1182.78> 990 196<89 1178.6>
LayerCount: 2
Fore
SplineSet
200 0 m 1,0,-1
 201 1016 l 2,1,2
 201 1220 201 1220 346 1365 c 256,3,4
 491 1510 491 1510 695 1510 c 128,-1,5
 899 1510 899 1510 1044 1365 c 0,6,7
 1188 1222 1188 1222 1188 1016 c 2,8,-1
 1186 89 l 1,9,-1
 990 0 l 1,10,-1
 990 1018 l 2,11,12
 990 1142 990 1142 904 1234 c 0,13,14
 820 1324 820 1324 695 1324 c 2,15,-1
 692 1324 l 1,16,17
 566 1323 566 1323 480 1232 c 0,18,19
 399 1146 399 1146 399 1010 c 2,20,-1
 398 92 l 1,21,-1
 200 0 l 1,0,-1
EndSplineSet
Validated: 1
EndChar

StartChar: O
Encoding: 79 79 50
Width: 1388
GlyphClass: 2
Flags: W
HStem: 0 188<542.447 844.717> 1322 188<538.07 855.624>
VStem: 200 198<337.987 1177.62> 986 201<330.912 1188.76>
LayerCount: 2
Fore
SplineSet
398 500 m 2,0,1
 398 377 398 377 484 282.5 c 128,-1,2
 570 188 570 188 692 188 c 0,3,4
 818 188 818 188 908 284 c 0,5,6
 983 363 983 363 986 500 c 1,7,-1
 986 1010 l 2,8,9
 986 1149 986 1149 910 1232 c 0,10,11
 828 1322 828 1322 704 1322 c 0,12,13
 699 1322 699 1322 693 1322 c 0,14,15
 558 1319 558 1319 476 1226 c 0,16,17
 398 1137 398 1137 398 1010 c 2,18,-1
 398 500 l 2,0,1
200 494 m 2,19,-1
 201 1016 l 2,20,21
 201 1220 201 1220 345.5 1365 c 128,-1,22
 490 1510 490 1510 694 1510 c 128,-1,23
 898 1510 898 1510 1043 1365 c 256,24,25
 1188 1220 1188 1220 1188 1016 c 2,26,-1
 1187 494 l 1,27,28
 1184 287 1184 287 1043 145 c 0,29,30
 898 0 898 0 694 0 c 128,-1,31
 490 0 490 0 345 145 c 128,-1,32
 200 290 200 290 200 494 c 2,19,-1
EndSplineSet
Validated: 1
EndChar

StartChar: P
Encoding: 80 80 51
Width: 1329
GlyphClass: 2
Flags: W
HStem: 0 21G<200 243.043> 524 186<398 855.005> 1302 189<398 883.554>
VStem: 200 198<92 524 710 1302> 1016 193<862.987 1169.37>
LayerCount: 2
Fore
SplineSet
398 92 m 1,0,-1
 200 0 l 1,1,-1
 200 1401 l 1,2,-1
 398 1492 l 1,3,-1
 398 1491 l 1,4,-1
 716 1491 l 1,5,6
 716 1491 716 1491 720 1491 c 0,7,8
 941 1491 941 1491 1065 1368 c 1,9,10
 1209 1223 1209 1223 1209 1019 c 128,-1,11
 1209 815 1209 815 1065 670 c 1,12,13
 920 526 920 526 716 525 c 2,14,-1
 398 524 l 1,15,-1
 398 92 l 1,0,-1
398 1302 m 1,16,-1
 398 710 l 1,17,-1
 709 711 l 2,18,19
 831 711 831 711 936 816 c 0,20,21
 1016 896 1016 896 1016 1007 c 1,22,23
 1015 1016 1015 1016 1015 1025 c 0,24,25
 1015 1141 1015 1141 922 1230 c 0,26,27
 845 1303 845 1303 709 1303 c 2,28,-1
 398 1302 l 1,16,-1
EndSplineSet
Validated: 1
EndChar

StartChar: Q
Encoding: 81 81 52
Width: 1394
GlyphClass: 2
Flags: W
HStem: 0 188<542.447 748.329> 1322 188<538.152 855.624>
VStem: 200 198<337.987 1177.62> 986 201<330.912 1188.76>
DStem2: 832 418 643 329 0.617673 -0.786435<0 126.299 338.017 545.8>
LayerCount: 2
Fore
SplineSet
200 494 m 2,0,-1
 201 1016 l 2,1,2
 201 1220 201 1220 346 1365 c 0,3,4
 490 1510 490 1510 694 1510 c 128,-1,5
 898 1510 898 1510 1043 1365 c 128,-1,6
 1188 1220 1188 1220 1188 1016 c 2,7,-1
 1187 494 l 1,8,9
 1184 287 1184 287 1043 145 c 1,10,-1
 1194 -50 l 1,11,-1
 1009 -137 l 1,12,-1
 875 33 l 1,13,14
 791 0 791 0 694 0 c 0,15,16
 490 0 490 0 345 145 c 128,-1,17
 200 290 200 290 200 494 c 2,0,-1
398 500 m 2,18,19
 398 377 398 377 484 282.5 c 128,-1,20
 570 188 570 188 692 188 c 0,21,22
 722 188 722 188 750 193 c 1,23,-1
 643 329 l 1,24,-1
 832 418 l 1,25,-1
 923 301 l 1,26,27
 983 377 983 377 986 500 c 1,28,-1
 986 1010 l 2,29,30
 986 1149 986 1149 910 1232 c 0,31,32
 828 1322 828 1322 704 1322 c 0,33,34
 699 1322 699 1322 693 1322 c 0,35,36
 558 1319 558 1319 476 1226 c 0,37,38
 398 1137 398 1137 398 1010 c 2,39,-1
 398 500 l 2,18,19
EndSplineSet
Validated: 1
EndChar

StartChar: R
Encoding: 82 82 53
Width: 1359
GlyphClass: 2
Flags: W
HStem: 0 21G<200 243.043 975.347 1022.7> 524 186<398 755.406> 1302 189<398 882.144>
VStem: 200 198<92 524 710 1302> 1016 193<862.987 1169.37>
DStem2: 946 581 756 527 0.39707 -0.917788<-5.45284 534.566>
LayerCount: 2
Fore
SplineSet
398 1302 m 1,0,-1
 398 710 l 1,1,-1
 709 711 l 2,2,3
 831 711 831 711 936 816 c 0,4,5
 1016 896 1016 896 1016 1007 c 1,6,7
 1015 1016 1015 1016 1015 1025 c 0,8,9
 1015 1141 1015 1141 922 1230 c 0,10,11
 845 1303 845 1303 709 1303 c 2,12,-1
 398 1302 l 1,0,-1
398 92 m 1,13,-1
 200 0 l 1,14,-1
 200 1401 l 1,15,-1
 398 1492 l 1,16,-1
 398 1491 l 1,17,-1
 716 1491 l 2,18,19
 941 1491 941 1491 1065 1368 c 1,20,21
 1209 1223 1209 1223 1209 1019 c 128,-1,22
 1209 815 1209 815 1065 670 c 0,23,24
 1010 615 1010 615 946 581 c 1,25,-1
 1162 92 l 1,26,-1
 984 0 l 1,27,-1
 756 527 l 1,28,29
 737 525 737 525 716 525 c 2,30,-1
 398 524 l 1,31,-1
 398 92 l 1,13,-1
EndSplineSet
Validated: 1
EndChar

StartChar: S
Encoding: 83 83 54
Width: 1327
GlyphClass: 2
Flags: W
HStem: -3 193<513.628 831.111> 1330 182<496.469 765.381>
VStem: 170 202<336.254 514> 848 193<1088 1248> 960 197<328.465 616.25>
DStem2: 492 992 384 830 0.945766 -0.32485<-86.9334 542.8>
LayerCount: 2
Fore
SplineSet
697 190 m 0,0,1
 801 191 801 191 884 280 c 1,2,3
 960 372 960 372 960 497 c 1,4,-1
 959 525 l 1,5,6
 932 634 932 634 844 672 c 1,7,-1
 384 830 l 1,8,9
 243 894 243 894 220 1081 c 1,10,-1
 219 1098 l 1,11,12
 219 1266 219 1266 340 1389 c 128,-1,13
 461 1512 461 1512 631 1512 c 0,14,15
 790 1512 790 1512 921 1393 c 0,16,17
 1041 1284 1041 1284 1041 1106 c 2,18,-1
 1041 1088 l 1,19,-1
 841 1030 l 1,20,-1
 847 1111 l 2,21,22
 848 1124 848 1124 848 1126 c 0,23,24
 848 1203 848 1203 788 1266 c 0,25,26
 727 1330 727 1330 631 1330 c 0,27,28
 544 1330 544 1330 483 1274 c 0,29,30
 412 1209 412 1209 412 1128 c 0,31,32
 412 1126 412 1126 413 1113 c 2,33,-1
 414 1100 l 2,34,35
 420 1016 420 1016 492 992 c 0,36,37
 987 827 987 827 1014 810 c 0,38,39
 1140 730 1140 730 1156 531 c 1,40,-1
 1157 490 l 1,41,42
 1157 286 1157 286 1012.5 141.5 c 128,-1,43
 868 -3 868 -3 664 -3 c 128,-1,44
 460 -3 460 -3 315 141 c 1,45,46
 170 287 170 287 170 490 c 2,47,-1
 170 514 l 1,48,-1
 370 608 l 1,49,-1
 372 497 l 2,50,51
 374 366 374 366 462 276 c 0,52,53
 546 190 546 190 668 190 c 0,54,55
 672 190 672 190 697 190 c 0,0,1
EndSplineSet
Validated: 1
EndChar

StartChar: T
Encoding: 84 84 55
Width: 1066
GlyphClass: 2
Flags: W
HStem: 0 21G<425.03 468.043> 1316 182<87 427 625 973>
VStem: 425 198<92 1316>
LayerCount: 2
Fore
SplineSet
623 92 m 1,0,-1
 425 0 l 1,1,-1
 427 1316 l 1,2,-1
 5 1316 l 1,3,-1
 87 1498 l 1,4,-1
 1061 1500 l 1,5,-1
 973 1316 l 1,6,-1
 625 1316 l 1,7,-1
 623 92 l 1,0,-1
EndSplineSet
Validated: 1
EndChar

StartChar: U
Encoding: 85 85 56
Width: 1390
GlyphClass: 2
Flags: W
HStem: -2 196<540.37 852.588> 1492 20G<353.391 396 1146 1189.98>
VStem: 202 194<341.628 1420> 992 197<330.396 1422>
LayerCount: 2
Fore
SplineSet
1190 1512 m 1,0,-1
 1189 492 l 2,1,2
 1189 288 1189 288 1044 143 c 128,-1,3
 899 -2 899 -2 696 -2 c 0,4,5
 492 -2 492 -2 347 143 c 256,6,7
 202 288 202 288 202 492 c 2,8,-1
 200 1420 l 1,9,-1
 396 1512 l 1,10,-1
 396 496 l 2,11,12
 396 373 396 373 485 283.5 c 128,-1,13
 574 194 574 194 696 194 c 128,-1,14
 818 194 818 194 906 280 c 1,15,16
 992 362 992 362 992 498 c 2,17,-1
 992 1422 l 1,18,-1
 1190 1512 l 1,0,-1
EndSplineSet
Validated: 1
EndChar

StartChar: V
Encoding: 86 86 57
Width: 1092
GlyphClass: 2
Flags: W
HStem: 0 21G<438.82 488.043> 1492 20G<151.818 201.066 904.657 952.905>
DStem2: 195 1512 5 1424 0.295217 -0.95543<27.9866 1205.89> 545 358 643 92 0.315375 0.948967<0 1186.33>
LayerCount: 2
Fore
SplineSet
643 92 m 1,0,-1
 445 0 l 1,1,-1
 5 1424 l 1,2,-1
 195 1512 l 1,3,-1
 545 358 l 1,4,-1
 911 1512 l 1,5,-1
 1087 1428 l 1,6,-1
 643 92 l 1,0,-1
EndSplineSet
Validated: 1
EndChar

StartChar: W
Encoding: 87 87 58
Width: 2180
GlyphClass: 2
Flags: W
HStem: -2 192<544.533 863.509 1339.19 1637.2> 1490 20G<351.186 396.98 1143 1188.04 1935 1979.98>
VStem: 202 194<335.505 1424> 992 198<334.863 1422> 1781 198<328.285 1422>
LayerCount: 2
Fore
SplineSet
717 190 m 0,0,1
 833 190 833 190 916 280 c 0,2,3
 992 362 992 362 992 481 c 0,4,5
 992 488 992 488 992 495 c 2,6,-1
 990 1422 l 1,7,-1
 1188 1510 l 1,8,-1
 1190 500 l 2,9,10
 1190 370 1190 370 1270 290 c 0,11,12
 1368 192 1368 192 1472 192 c 0,13,14
 1611 192 1611 192 1698 280 c 1,15,16
 1781 362 1781 362 1781 501 c 2,17,-1
 1782 1422 l 1,18,-1
 1980 1510 l 1,19,-1
 1979 495 l 2,20,21
 1979 292 1979 292 1834 146 c 0,22,23
 1690 1 1690 1 1485 1 c 0,24,25
 1281 1 1281 1 1136 146 c 0,26,27
 1112 170 1112 170 1092 196 c 1,28,29
 1071 169 1071 169 1045 143 c 0,30,31
 900 -2 900 -2 696 -2 c 128,-1,32
 492 -2 492 -2 347 143 c 0,33,34
 202 287 202 287 202 492 c 2,35,-1
 200 1424 l 1,36,-1
 397 1510 l 1,37,-1
 396 492 l 2,38,39
 396 368 396 368 485 280 c 0,40,41
 576 190 576 190 717 190 c 0,0,1
EndSplineSet
Validated: 1
EndChar

StartChar: X
Encoding: 88 88 59
Width: 1218
GlyphClass: 2
Flags: W
HStem: 0 21G<226.973 285.62 920.451 979.18> 1491 20G<235.5 291.711 920.713 977.366>
DStem2: 100 74 274 0 0.50106 0.865413<23.1439 680.048 1009.45 1009.45> 280 1511 102 1431 0.503909 -0.863757<0 657.048 977.789 1633.69>
LayerCount: 2
Fore
SplineSet
102 1431 m 1,0,-1
 280 1511 l 1,1,-1
 612 944 l 1,2,-1
 932 1511 l 1,3,-1
 1118 1429 l 1,4,-1
 720 756 l 1,5,-1
 1116 78 l 1,6,-1
 932 0 l 1,7,-1
 604 568 l 1,8,-1
 274 0 l 1,9,-1
 100 74 l 1,10,-1
 494 756 l 1,11,-1
 102 1431 l 1,0,-1
EndSplineSet
Validated: 1
EndChar

StartChar: Y
Encoding: 89 89 60
Width: 1388
GlyphClass: 2
Flags: W
HStem: 0 21G<598 641.043> 1492 18G<354.444 398.069 1144 1187.97>
VStem: 200 200<786.375 1420> 598 198<92 461.176> 990 197<769.285 1422>
LayerCount: 2
Fore
SplineSet
708 636 m 0,0,1
 829 636 829 636 916 728 c 0,2,3
 990 806 990 806 990 942 c 2,4,-1
 990 1422 l 1,5,-1
 1188 1512 l 1,6,-1
 1187 936 l 2,7,8
 1187 733 1187 733 1042 587 c 0,9,10
 935 479 935 479 795 452 c 1,11,-1
 796 92 l 1,12,-1
 598 0 l 1,13,-1
 598 451 l 1,14,15
 462 477 462 477 345 587 c 0,16,17
 200 724 200 724 200 933 c 0,18,19
 200 935 200 935 200 936 c 2,20,-1
 202 1420 l 1,21,-1
 398 1510 l 1,22,-1
 400 930 l 2,23,24
 400 815 400 815 488 732 c 0,25,26
 590 636 590 636 708 636 c 0,0,1
EndSplineSet
Validated: 1
EndChar

StartChar: Z
Encoding: 90 90 61
Width: 1273
GlyphClass: 2
Flags: W
HStem: 16 190<464 1036> 1316 180<272 784>
DStem2: 150 16 464 206 0.438342 0.898808<308.413 1446.36>
LayerCount: 2
Fore
SplineSet
464 206 m 1,0,-1
 1123 202 l 1,1,-1
 1036 16 l 1,2,-1
 150 16 l 1,3,-1
 784 1316 l 1,4,-1
 191 1310 l 1,5,-1
 272 1496 l 1,6,-1
 1078 1496 l 1,7,-1
 464 206 l 1,0,-1
EndSplineSet
Validated: 1
EndChar

StartChar: bracketleft
Encoding: 91 91 62
Width: 774
GlyphClass: 2
Flags: W
HStem: -348 190<348 680> 1561 184<353 676>
VStem: 150 198<-158 1561>
LayerCount: 2
Fore
SplineSet
353 1561 m 1,0,-1
 348 -158 l 1,1,-1
 764 -158 l 1,2,-1
 680 -344 l 1,3,-1
 150 -348 l 1,4,-1
 152 1656 l 1,5,-1
 350 1745 l 1,6,-1
 764 1747 l 1,7,-1
 676 1560 l 1,8,-1
 353 1561 l 1,0,-1
EndSplineSet
Validated: 1
EndChar

StartChar: backslash
Encoding: 92 92 63
Width: 1065
GlyphClass: 2
Flags: W
DStem2: 190 1654 10 1572 0.435903 -0.899994<0 1982.02>
LayerCount: 2
Fore
SplineSet
1055 -132 m 1,0,-1
 876 -216 l 1,1,-1
 10 1572 l 1,2,-1
 190 1654 l 1,3,-1
 1055 -132 l 1,0,-1
EndSplineSet
Validated: 1
EndChar

StartChar: bracketright
Encoding: 93 93 64
Width: 774
GlyphClass: 2
Flags: W
HStem: -348 187<98 421> 1557 190<94 426>
VStem: 421 201<-162 1557>
LayerCount: 2
Fore
SplineSet
421 -162 m 1,0,-1
 426 1557 l 1,1,-1
 10 1557 l 1,2,-1
 94 1743 l 1,3,-1
 624 1747 l 1,4,-1
 622 -257 l 1,5,-1
 424 -346 l 1,6,-1
 10 -348 l 1,7,-1
 98 -161 l 1,8,-1
 421 -162 l 1,0,-1
EndSplineSet
Validated: 1
EndChar

StartChar: asciicircum
Encoding: 94 94 65
Width: 1180
GlyphClass: 2
Flags: W
HStem: 1062 456
DStem2: 80 1168 237 1062 0.83205 0.5547<71.8337 479.538>
LayerCount: 2
Fore
SplineSet
80 1168 m 1,0,-1
 605 1518 l 1,1,-1
 1100 1168 l 1,2,-1
 926 1062 l 1,3,-1
 581 1281 l 1,4,-1
 237 1062 l 1,5,-1
 80 1168 l 1,0,-1
EndSplineSet
Validated: 16385
EndChar

StartChar: underscore
Encoding: 95 95 66
Width: 1083
GlyphClass: 2
Flags: W
HStem: -537 198<170 911>
LayerCount: 2
Fore
SplineSet
170 -339 m 1,0,-1
 1003 -339 l 1,1,-1
 911 -537 l 1,2,-1
 80 -537 l 1,3,-1
 170 -339 l 1,0,-1
EndSplineSet
Validated: 1
EndChar

StartChar: grave
Encoding: 96 96 67
Width: 751
GlyphClass: 2
Flags: W
HStem: 990 522
VStem: 145 452
DStem2: 237 1512 145 1314 0.743294 -0.668965<64.072 484.33>
LayerCount: 2
Fore
SplineSet
237 1512 m 1,0,-1
 597 1188 l 1,1,-1
 505 990 l 1,2,-1
 145 1314 l 1,3,-1
 237 1512 l 1,0,-1
EndSplineSet
Validated: 16385
EndChar

StartChar: a
Encoding: 97 97 68
Width: 1084
GlyphClass: 2
Flags: W
HStem: -4 176<424.625 644> 938 182<407.469 675.836>
VStem: 130 194<276.104 853.612> 760 194<92 853.098>
LayerCount: 2
Fore
SplineSet
535 -4 m 0,0,1
 374 -4 374 -4 253 119 c 0,2,3
 133 241 133 241 132 410 c 2,4,-1
 130 706 l 1,5,6
 130 874 130 874 251 997 c 128,-1,7
 372 1120 372 1120 542 1120 c 0,8,9
 709 1120 709 1120 832 1001 c 0,10,11
 951 885 951 885 952 714 c 2,12,-1
 954 92 l 1,13,-1
 756 0 l 1,14,15
 760 214 760 214 760 347 c 0,16,17
 760 370 760 370 760 397 c 2,18,-1
 758 719 l 2,19,20
 757 810 757 810 698 874 c 128,-1,21
 639 938 639 938 542 938 c 0,22,23
 455 938 455 938 394 882 c 0,24,25
 324 817 324 817 324 721 c 2,26,-1
 324 567 l 1,27,-1
 326 395 l 2,28,29
 327 320 327 320 392 246 c 0,30,31
 452 178 452 178 554 174 c 0,32,33
 577 173 577 173 600 172 c 1,34,35
 664 175 664 175 728 178 c 1,36,-1
 644 0 l 1,37,38
 600 -4 600 -4 535 -4 c 0,0,1
EndSplineSet
Validated: 16385
EndChar

StartChar: b
Encoding: 98 98 69
Width: 1104
GlyphClass: 2
Flags: W
HStem: -4 182<429.469 697.978> 938 182<430.262 695.978> 1491 20G<304 348.089>
VStem: 150 194<266.494 857.125 1061 1421> 780 194<262.902 848.98>
LayerCount: 2
Fore
SplineSet
346 395 m 2,0,1
 347 298 347 298 416 234 c 0,2,3
 477 178 477 178 564 178 c 0,4,5
 662 178 662 178 720 242 c 1,6,7
 780 306 780 306 780 394 c 0,8,9
 780 396 780 396 780 397 c 2,10,-1
 778 719 l 2,11,12
 777 810 777 810 718 874 c 0,13,14
 660 938 660 938 562 938 c 0,15,16
 488 938 488 938 414 882 c 0,17,18
 356 838 356 838 344 748 c 1,19,-1
 344 532 l 1,20,-1
 346 395 l 2,0,1
150 1421 m 1,21,-1
 348 1511 l 1,22,-1
 350 1061 l 1,23,24
 444 1120 444 1120 562 1120 c 0,25,26
 729 1120 729 1120 852 1001 c 0,27,28
 971 886 971 886 972 714 c 2,29,-1
 974 402 l 1,30,31
 974 231 974 231 854 115 c 0,32,33
 731 -4 731 -4 564 -4 c 0,34,35
 394 -4 394 -4 273 119 c 0,36,37
 153 241 153 241 152 410 c 2,38,-1
 150 706 l 1,39,-1
 150 1421 l 1,21,-1
EndSplineSet
Validated: 16385
EndChar

StartChar: c
Encoding: 99 99 70
Width: 1084
GlyphClass: 2
Flags: W
HStem: -4 182<409.372 687.875> 938 182<407.469 681.416>
VStem: 130 194<266.99 853.612> 758 194<249.248 397 696 864.996>
LayerCount: 2
Fore
SplineSet
758 719 m 1,0,1
 758 839 758 839 687 891 c 0,2,3
 623 938 623 938 542 938 c 0,4,5
 455 938 455 938 394 882 c 0,6,7
 324 818 324 818 324 721 c 2,8,-1
 324 567 l 1,9,-1
 326 395 l 2,10,11
 327 298 327 298 396 234 c 0,12,13
 456 178 456 178 544 178 c 0,14,15
 655 178 655 178 710 242 c 0,16,17
 760 300 760 300 760 397 c 1,18,-1
 952 484 l 1,19,-1
 954 402 l 1,20,21
 954 231 954 231 834 115 c 0,22,23
 711 -4 711 -4 544 -4 c 0,24,25
 374 -4 374 -4 253 119 c 128,-1,26
 132 242 132 242 132 410 c 1,27,-1
 130 706 l 1,28,29
 130 874 130 874 251 997 c 128,-1,30
 372 1120 372 1120 542 1120 c 0,31,32
 700 1120 700 1120 832 1001 c 0,33,34
 952 892 952 892 952 714 c 2,35,-1
 952 696 l 1,36,-1
 756 608 l 1,37,-1
 758 719 l 1,0,1
EndSplineSet
Validated: 16385
EndChar

StartChar: d
Encoding: 100 100 71
Width: 1098
GlyphClass: 2
Flags: W
HStem: -4 182<409.469 678.69> 938 182<407.469 676.229> 1491 20G<903 947.964>
VStem: 130 194<266.494 853.612> 755 191<253.761 859.863 1063 1423>
LayerCount: 2
Fore
SplineSet
326 395 m 2,0,1
 327 298 327 298 396 234 c 0,2,3
 457 178 457 178 544 178 c 0,4,5
 647 178 647 178 700 242 c 1,6,7
 747 284 747 284 758 361 c 1,8,-1
 755 758 l 1,9,10
 746 825 746 825 698 874 c 1,11,12
 640 938 640 938 542 938 c 0,13,14
 455 938 455 938 394 882 c 0,15,16
 324 817 324 817 324 721 c 2,17,-1
 324 567 l 1,18,-1
 326 395 l 2,0,1
753 1063 m 1,19,-1
 750 1423 l 1,20,-1
 948 1511 l 1,21,-1
 946 400 l 2,22,23
 946 223 946 223 834 115 c 0,24,25
 711 -4 711 -4 544 -4 c 0,26,27
 374 -4 374 -4 253 119 c 0,28,29
 133 241 133 241 132 410 c 2,30,-1
 130 706 l 1,31,32
 130 874 130 874 251 997 c 128,-1,33
 372 1120 372 1120 542 1120 c 0,34,35
 658 1120 658 1120 753 1063 c 1,19,-1
EndSplineSet
Validated: 16385
EndChar

StartChar: e
Encoding: 101 101 72
Width: 1086
GlyphClass: 2
Flags: W
HStem: -4 182<409.469 687.875> 938 182<407.274 676.077>
VStem: 130 194<266.494 412 602 853.612> 760 194<249.402 412>
DStem2: 324 602 326 412 0.910665 0.413145<0 463.638>
LayerCount: 2
Fore
SplineSet
952 696 m 1,0,-1
 326 412 l 1,1,-1
 326 395 l 2,2,3
 326 298 326 298 396 234 c 0,4,5
 457 178 457 178 544 178 c 0,6,7
 655 178 655 178 710 242 c 0,8,9
 760 300 760 300 760 397 c 2,10,-1
 760 412 l 1,11,-1
 956 497 l 1,12,-1
 954 402 l 1,13,14
 954 231 954 231 834 115 c 0,15,16
 711 -4 711 -4 544 -4 c 0,17,18
 374 -4 374 -4 253 119 c 0,19,20
 133 241 133 241 132 410 c 2,21,-1
 130 706 l 1,22,23
 130 874 130 874 251 997 c 128,-1,24
 372 1120 372 1120 542 1120 c 0,25,26
 700 1120 700 1120 832 1001 c 0,27,28
 952 892 952 892 952 714 c 2,29,-1
 952 696 l 1,0,-1
324 602 m 1,30,-1
 747 790 l 1,31,32
 732 838 732 838 698 874 c 1,33,34
 640 938 640 938 542 938 c 0,35,36
 453 938 453 938 394 882 c 0,37,38
 324 816 324 816 324 721 c 2,39,-1
 324 602 l 1,30,-1
EndSplineSet
Validated: 16385
EndChar

StartChar: f
Encoding: 102 102 73
Width: 691
GlyphClass: 2
Flags: W
HStem: 0 21G<150.018 193.043> 924 176<350 594> 1328 184<427.869 595>
VStem: 151 199<92 924 1100 1250.19>
LayerCount: 2
Fore
SplineSet
595 1328 m 1,0,1
 470 1322 470 1322 415 1274 c 0,2,3
 350 1217 350 1217 350 1149 c 2,4,-1
 350 1126 l 1,5,-1
 350 1100 l 1,6,-1
 677 1100 l 1,7,-1
 594 924 l 1,8,-1
 350 924 l 1,9,-1
 348 92 l 1,10,-1
 150 0 l 1,11,-1
 151 1098 l 2,12,13
 151 1266 151 1266 272 1389 c 128,-1,14
 393 1512 393 1512 548 1512 c 0,15,16
 555 1512 555 1512 563 1512 c 2,17,-1
 600 1511 l 1,18,-1
 681 1512 l 1,19,-1
 595 1328 l 1,0,1
EndSplineSet
Validated: 1
EndChar

StartChar: g
Encoding: 103 103 74
Width: 1104
GlyphClass: 2
Flags: W
HStem: -404 183<291 668.469> -7 182<409.469 680.88> 935 182<407.469 676.987>
VStem: 130 194<263.494 850.612> 760 194<-133.612 54 256.662 850.59>
LayerCount: 2
Fore
SplineSet
542 -218 m 1,0,1
 626 -218 626 -218 690 -162 c 0,2,3
 760 -101 760 -101 760 -1 c 2,4,-1
 760 22 l 1,5,-1
 760 54 l 1,6,7
 663 -7 663 -7 544 -7 c 0,8,9
 374 -7 374 -7 253 116 c 0,10,11
 133 238 133 238 132 407 c 2,12,-1
 130 703 l 1,13,14
 130 871 130 871 251 994 c 128,-1,15
 372 1117 372 1117 542 1117 c 0,16,17
 709 1117 709 1117 832 998 c 0,18,19
 951 883 951 883 952 711 c 2,20,-1
 954 399 l 2,21,22
 954 385 954 385 953 368 c 1,23,-1
 954 14 l 2,24,25
 954 -154 954 -154 833 -277 c 128,-1,26
 712 -400 712 -400 557 -400 c 0,27,28
 550 -400 550 -400 542 -400 c 2,29,-1
 286 -404 l 1,30,-1
 212 -404 l 1,31,-1
 291 -221 l 1,32,-1
 307 -221 l 1,33,-1
 542 -218 l 1,0,1
758 359 m 1,34,35
 758 359 758 359 758 716 c 0,36,37
 758 806 758 806 698 872 c 0,38,39
 640 935 640 935 542 935 c 0,40,41
 455 935 455 935 394 879 c 0,42,43
 324 814 324 814 324 718 c 2,44,45
 324 718 324 718 324 564 c 1,46,-1
 326 392 l 2,47,48
 327 295 327 295 396 231 c 0,49,50
 457 175 457 175 544 175 c 0,51,52
 642 175 642 175 700 238 c 0,53,54
 749 291 749 291 758 359 c 1,34,35
EndSplineSet
Validated: 16385
EndChar

StartChar: h
Encoding: 104 104 75
Width: 1106
GlyphClass: 2
Flags: W
HStem: 0 21G<150 193.043 783 824.851> 938 182<427.896 695.836> 1491 20G<296.683 343.868>
VStem: 150 194<92 854.315 1055 1429> 784 192<94 844.343>
LayerCount: 2
Fore
SplineSet
150 0 m 1,0,-1
 150 1429 l 1,1,-1
 344 1511 l 1,2,-1
 341 1055 l 1,3,4
 439 1120 439 1120 562 1120 c 0,5,6
 729 1120 729 1120 852 1001 c 0,7,8
 971 886 971 886 972 714 c 2,9,-1
 974 402 l 1,10,-1
 976 94 l 1,11,-1
 784 0 l 1,12,13
 782 43 782 43 780 397 c 2,14,-1
 778 719 l 2,15,16
 777 810 777 810 718 874 c 128,-1,17
 659 938 659 938 562 938 c 0,18,19
 475 938 475 938 414 882 c 0,20,21
 344 817 344 817 344 721 c 2,22,-1
 344 567 l 1,23,-1
 346 395 l 1,24,-1
 348 92 l 1,25,-1
 150 0 l 1,0,-1
EndSplineSet
Validated: 16385
EndChar

StartChar: i
Encoding: 105 105 76
Width: 496
GlyphClass: 2
Flags: W
HStem: 0 21G<150 194.545> 1100 20G<299.333 346> 1247 264<157.191 338.809>
VStem: 118 260<1286.71 1471.29> 150 196<88 1036>
LayerCount: 2
Fore
SplineSet
118 1379 m 128,-1,1
 118 1434 118 1434 156 1472.5 c 128,-1,2
 194 1511 194 1511 248 1511 c 128,-1,3
 302 1511 302 1511 340 1472.5 c 128,-1,4
 378 1434 378 1434 378 1379 c 128,-1,5
 378 1324 378 1324 340 1285.5 c 128,-1,6
 302 1247 302 1247 248 1247 c 128,-1,7
 194 1247 194 1247 156 1285.5 c 128,-1,0
 118 1324 118 1324 118 1379 c 128,-1,1
346 88 m 1,8,-1
 150 0 l 1,9,-1
 150 1036 l 1,10,-1
 346 1120 l 1,11,-1
 346 88 l 1,8,-1
EndSplineSet
Validated: 16385
EndChar

StartChar: j
Encoding: 106 106 77
Width: 553
GlyphClass: 2
Flags: W
HStem: -399 21G<5 113> 1247 264<193.191 374.778>
VStem: 154 260<1287.22 1470.78> 185 194<-160.254 1035>
LayerCount: 2
Fore
SplineSet
154 1379 m 0,0,1
 154 1433 154 1433 192 1472 c 128,-1,2
 230 1511 230 1511 284 1511 c 0,3,4
 337 1511 337 1511 376 1472 c 0,5,6
 414 1434 414 1434 414 1379 c 0,7,8
 414 1325 414 1325 376 1286 c 128,-1,9
 338 1247 338 1247 284 1247 c 128,-1,10
 230 1247 230 1247 192 1285.5 c 128,-1,11
 154 1324 154 1324 154 1379 c 0,0,1
5 -399 m 9,12,-1
 92 -205 l 17,13,14
 107 -197 107 -197 120 -186 c 0,15,16
 185 -128 185 -128 185 0 c 2,17,-1
 185 23 l 1,18,-1
 184 1035 l 1,19,-1
 380 1122 l 1,20,-1
 379 15 l 2,21,22
 379 -154 379 -154 289 -276 c 0,23,24
 198 -399 198 -399 28 -399 c 0,25,-1
 5 -399 l 9,12,-1
EndSplineSet
Validated: 1
EndChar

StartChar: k
Encoding: 107 107 78
Width: 1110
GlyphClass: 2
Flags: W
HStem: 0 21G<150 190.851 782.107 826> 1492 20G<307.447 350.05>
VStem: 150 200<94 507.104 712 1418> 782 198<90 508.082>
DStem2: 352 712 688 752 0.77202 0.635599<284.823 631.556>
LayerCount: 2
Fore
SplineSet
782 0 m 1,0,-1
 784 373 l 2,1,2
 784 462 784 462 724 528 c 0,3,4
 666 592 666 592 568 592 c 0,5,6
 481 592 481 592 420 536 c 0,7,8
 353 474 353 474 350 375 c 2,9,-1
 342 94 l 1,10,-1
 150 0 l 1,11,-1
 150 1418 l 1,12,-1
 350 1512 l 1,13,-1
 352 712 l 1,14,-1
 850 1122 l 1,15,-1
 956 972 l 1,16,-1
 688 752 l 1,17,18
 784 726 784 726 858 655 c 0,19,20
 977 541 977 541 978 368 c 2,21,-1
 980 90 l 1,22,-1
 782 0 l 1,0,-1
EndSplineSet
Validated: 16385
EndChar

StartChar: l
Encoding: 108 108 79
Width: 499
GlyphClass: 2
Flags: W
HStem: 0 21G<150.014 191.25> 1491 20G<305 348.986>
VStem: 150 198<96 1421>
LayerCount: 2
Fore
SplineSet
348 96 m 1,0,-1
 150 0 l 1,1,-1
 151 1421 l 1,2,-1
 349 1511 l 1,3,-1
 348 96 l 1,0,-1
EndSplineSet
Validated: 1
EndChar

StartChar: m
Encoding: 109 109 80
Width: 1712
GlyphClass: 2
Flags: W
HStem: 0 21G<130 170.851 761.889 802.842 1389.94 1430.85> 938 182<407.469 676.811 1027.92 1315.46>
VStem: 130 192<94 849.01> 762 194<95 849.051> 1390 192<94 856.98>
LayerCount: 2
Fore
SplineSet
762 0 m 1,0,-1
 758 719 l 2,1,2
 757 810 757 810 698 874 c 128,-1,3
 639 938 639 938 542 938 c 0,4,5
 455 938 455 938 394 882 c 0,6,7
 324 817 324 817 324 721 c 2,8,-1
 322 94 l 1,9,-1
 130 0 l 1,10,-1
 130 706 l 2,11,12
 130 874 130 874 251 997 c 128,-1,13
 372 1120 372 1120 542 1120 c 0,14,15
 713 1120 713 1120 832 1001 c 0,16,17
 844 989 844 989 855 977 c 1,18,19
 867 991 867 991 881 1005 c 0,20,21
 1002 1128 1002 1128 1172 1128 c 0,22,23
 1339 1128 1339 1128 1462 1009 c 0,24,25
 1582 894 1582 894 1582 722 c 2,26,-1
 1582 94 l 1,27,-1
 1390 0 l 1,28,-1
 1388 727 l 2,29,30
 1388 817 1388 817 1328 882 c 0,31,32
 1269 946 1269 946 1172 946 c 0,33,34
 1085 946 1085 946 1024 890 c 1,35,36
 954 824 954 824 954 729 c 2,37,-1
 956 95 l 1,38,-1
 762 0 l 1,0,-1
EndSplineSet
Validated: 16385
EndChar

StartChar: n
Encoding: 110 110 81
Width: 1084
GlyphClass: 2
Flags: W
HStem: 0 21G<135.83 176.851 761.889 802.851> 938 182<407.372 675.978>
VStem: 130 194<94 853.612> 762 192<94 848.98>
LayerCount: 2
Fore
SplineSet
952 714 m 2,0,1
 952 714 952 714 954 94 c 1,2,-1
 762 0 l 1,3,-1
 758 719 l 2,4,5
 757 811 757 811 698 874 c 1,6,7
 640 938 640 938 542 938 c 0,8,9
 454 938 454 938 394 882 c 0,10,11
 324 817 324 817 324 724 c 0,12,13
 324 722 324 722 324 721 c 2,14,-1
 328 94 l 1,15,-1
 136 0 l 1,16,-1
 130 706 l 1,17,18
 130 874 130 874 251 997 c 128,-1,19
 372 1120 372 1120 542 1120 c 0,20,21
 709 1120 709 1120 832 1001 c 0,22,23
 951 886 951 886 952 714 c 2,0,1
EndSplineSet
Validated: 16385
EndChar

StartChar: o
Encoding: 111 111 82
Width: 1084
GlyphClass: 2
Flags: W
HStem: -4 182<409.469 677.978> 938 182<407.469 675.978>
VStem: 130 194<266.99 853.612> 760 194<262.902 853.59>
LayerCount: 2
Fore
SplineSet
326 395 m 2,0,1
 327 298 327 298 396 234 c 0,2,3
 457 178 457 178 544 178 c 0,4,5
 642 178 642 178 700 242 c 1,6,7
 760 306 760 306 760 394 c 0,8,9
 760 396 760 396 760 397 c 2,10,-1
 758 719 l 2,11,12
 757 811 757 811 698 874 c 1,13,14
 640 938 640 938 542 938 c 0,15,16
 455 938 455 938 394 882 c 0,17,18
 324 817 324 817 324 721 c 2,19,-1
 324 567 l 1,20,-1
 326 395 l 2,0,1
954 402 m 1,21,22
 954 231 954 231 834 115 c 0,23,24
 711 -4 711 -4 544 -4 c 0,25,26
 374 -4 374 -4 253 119 c 128,-1,27
 132 242 132 242 132 410 c 1,28,-1
 130 706 l 1,29,30
 130 874 130 874 251 997 c 128,-1,31
 372 1120 372 1120 542 1120 c 0,32,33
 709 1120 709 1120 832 1001 c 0,34,35
 951 886 951 886 952 714 c 2,36,-1
 954 402 l 1,21,22
EndSplineSet
Validated: 16385
EndChar

StartChar: p
Encoding: 112 112 83
Width: 1104
GlyphClass: 2
Flags: W
HStem: -398 21G<155.892 200.494> -4 182<431.654 701.126> 938 182<430.615 699.126>
VStem: 150 196<-309 53 265.813 853.098> 780 194<258.616 854.11>
LayerCount: 2
Fore
SplineSet
348 395 m 2,0,1
 349 298 349 298 418 234 c 0,2,3
 479 178 479 178 566 178 c 0,4,5
 664 178 664 178 722 242 c 0,6,7
 770 294 770 294 780 361 c 1,8,-1
 777 758 l 1,9,10
 766 825 766 825 720 874 c 1,11,12
 662 938 662 938 564 938 c 0,13,14
 477 938 477 938 416 882 c 0,15,16
 346 817 346 817 346 721 c 2,17,-1
 346 567 l 1,18,-1
 348 395 l 2,0,1
150 714 m 2,19,20
 150 885 150 885 270 1001 c 0,21,22
 393 1120 393 1120 560 1120 c 0,23,24
 730 1120 730 1120 851 997 c 0,25,26
 971 875 971 875 972 706 c 2,27,-1
 974 410 l 1,28,29
 974 242 974 242 853 119 c 128,-1,30
 732 -4 732 -4 562 -4 c 0,31,32
 446 -4 446 -4 351 53 c 1,33,-1
 354 -309 l 1,34,-1
 156 -398 l 1,35,-1
 150 714 l 2,19,20
EndSplineSet
Validated: 16385
EndChar

StartChar: q
Encoding: 113 113 84
Width: 1104
GlyphClass: 2
Flags: W
HStem: -399 21G<750.177 795.032> -6 184<409.29 679.503> 938 180<407.29 675.799>
VStem: 132 194<265.02 855.676> 760 194<-95 53 260.475 852.11>
LayerCount: 2
Fore
SplineSet
326 395 m 2,0,1
 327 298 327 298 396 234 c 0,2,3
 457 178 457 178 544 178 c 0,4,5
 642 178 642 178 700 242 c 1,6,7
 760 306 760 306 760 394 c 2,8,-1
 760 397 l 1,9,-1
 758 719 l 2,10,11
 757 809 757 809 698 874 c 0,12,13
 640 938 640 938 542 938 c 0,14,15
 455 938 455 938 394 882 c 0,16,17
 338 830 338 830 327 757 c 1,18,-1
 324 532 l 1,19,-1
 326 395 l 2,0,1
750 -399 m 1,20,-1
 754 53 l 1,21,22
 660 -6 660 -6 542 -6 c 0,23,24
 375 -6 375 -6 252 113 c 0,25,26
 133 228 133 228 132 400 c 2,27,-1
 130 712 l 1,28,29
 130 883 130 883 250 999 c 0,30,31
 373 1118 373 1118 540 1118 c 0,32,33
 710 1118 710 1118 831 995 c 0,34,35
 951 873 951 873 952 704 c 2,36,-1
 954 408 l 1,37,-1
 950 -95 l 1,38,-1
 1099 -13 l 1,39,-1
 1099 -244 l 1,40,-1
 750 -399 l 1,20,-1
EndSplineSet
Validated: 1
EndChar

StartChar: r
Encoding: 114 114 85
Width: 688
GlyphClass: 2
Flags: W
HStem: 0 21G<152.915 192.794> 937 183<431.904 594>
VStem: 150 194<97 852.612>
LayerCount: 2
Fore
SplineSet
594 937 m 1,0,1
 478 937 478 937 414 881 c 0,2,3
 344 820 344 820 344 720 c 2,4,-1
 344 697 l 1,5,-1
 346 97 l 1,6,-1
 153 0 l 1,7,-1
 150 705 l 2,8,9
 150 873 150 873 271 996 c 0,10,11
 382 1109 382 1109 562 1119 c 0,12,13
 580 1120 580 1120 593 1120 c 2,14,-1
 683 1120 l 1,15,-1
 594 937 l 1,0,1
EndSplineSet
Validated: 1
EndChar

StartChar: s
Encoding: 115 115 86
Width: 1035
GlyphClass: 2
Flags: W
HStem: 0 182<381.778 654.115> 932 174<398.078 620.681>
VStem: 120 196<246.009 356> 166 191<704.188 885.653> 674 192<796 886.375> 719 196<246.377 425.652>
DStem2: 434 689 320 526 0.964959 -0.262401<-85.4645 354.968>
LayerCount: 2
Fore
SplineSet
120 356 m 1,0,-1
 314 446 l 1,1,-1
 316 352 l 2,2,3
 317 292 317 292 360 246 c 0,4,5
 418 182 418 182 516 182 c 0,6,7
 596 182 596 182 652 225 c 0,8,9
 707 268 707 268 716 315 c 0,10,11
 719 331 719 331 719 345 c 0,12,13
 719 406 719 406 662 433 c 1,14,-1
 320 526 l 1,15,16
 204 551 204 551 170 700 c 24,17,18
 166 718 166 718 166 759 c 0,19,20
 166 889 166 889 248 986 c 0,21,22
 349 1106 349 1106 511 1106 c 0,23,24
 685 1106 685 1106 784 992 c 0,25,26
 866 898 866 898 866 814 c 2,27,-1
 866 796 l 1,28,-1
 674 710 l 1,29,-1
 674 754 l 2,30,31
 674 847 674 847 622 894 c 24,32,33
 580 932 580 932 511 932 c 0,34,35
 510 932 510 932 508 932 c 0,36,37
 433 932 433 932 394 887 c 0,38,39
 357 844 357 844 357 788 c 0,40,41
 357 785 357 785 357 782 c 0,42,43
 357 714 357 714 434 689 c 1,44,-1
 444 686 l 1,45,-1
 690 628 l 1,46,47
 784 606 784 606 842 560 c 0,48,49
 907 508 907 508 914 414 c 16,50,51
 915 401 915 401 915 387 c 0,52,53
 915 248 915 248 800 123 c 0,54,55
 687 0 687 0 516 0 c 0,56,57
 348 0 348 0 226 119 c 0,58,59
 120 222 120 222 120 338 c 2,60,-1
 120 356 l 1,0,-1
EndSplineSet
Validated: 1
EndChar

StartChar: t
Encoding: 116 116 87
Width: 794
GlyphClass: 2
Flags: W
HStem: 0 21G<291.086 332.263> 926 182<83 292 492 707> 1491 20G<444.909 488.95>
VStem: 295 197<95 926 1108 1423>
LayerCount: 2
Fore
SplineSet
487 95 m 1,0,-1
 291 0 l 1,1,-1
 295 926 l 1,2,-1
 5 926 l 1,3,-1
 83 1108 l 1,4,-1
 292 1108 l 1,5,-1
 295 1423 l 1,6,-1
 489 1511 l 1,7,-1
 488 1108 l 1,8,-1
 789 1108 l 1,9,-1
 707 926 l 1,10,-1
 492 926 l 1,11,-1
 487 95 l 1,0,-1
EndSplineSet
Validated: 1
EndChar

StartChar: u
Encoding: 117 117 88
Width: 1084
GlyphClass: 2
Flags: W
HStem: 0 182<408.022 676.531> 1100 20G<273.659 320 902.217 949>
VStem: 132 194<266.41 1038> 760 194<266.388 1037>
LayerCount: 2
Fore
SplineSet
954 414 m 1,0,1
 954 246 954 246 833 123 c 128,-1,2
 712 0 712 0 542 0 c 0,3,4
 375 0 375 0 252 119 c 0,5,6
 133 234 133 234 132 406 c 2,7,-1
 130 1038 l 1,8,-1
 320 1120 l 1,9,10
 320 658 320 658 326 401 c 1,11,12
 327 309 327 309 386 246 c 1,13,14
 444 182 444 182 542 182 c 0,15,16
 629 182 629 182 690 238 c 1,17,18
 760 304 760 304 760 399 c 2,19,-1
 758 1037 l 1,20,-1
 948 1120 l 1,21,22
 950 1085 950 1085 954 414 c 1,0,1
EndSplineSet
Validated: 16385
EndChar

StartChar: v
Encoding: 118 118 89
Width: 1106
GlyphClass: 2
Flags: W
HStem: 0 21G<445.815 497.415> 1100 20G<173.238 225.788 897.25 951.946>
DStem2: 218 1120 30 1036 0.378772 -0.92549<6.53203 892.73> 542 288 632 82 0.418341 0.90829<0 907.973>
LayerCount: 2
Fore
SplineSet
632 82 m 1,0,-1
 454 0 l 1,1,-1
 30 1036 l 1,2,-1
 218 1120 l 1,3,-1
 542 288 l 1,4,-1
 906 1120 l 1,5,-1
 1076 1046 l 1,6,-1
 632 82 l 1,0,-1
EndSplineSet
Validated: 16385
EndChar

StartChar: w
Encoding: 119 119 90
Width: 1710
GlyphClass: 2
Flags: W
HStem: 0 182<408.307 676.043 1033.05 1302.53> 1100 20G<274.762 320.167 901.735 948.135 1527.73 1574.17>
VStem: 132 194<266.41 1036> 759 194<264.325 1037> 1386 194<266.388 1037>
CounterMasks: 1 38
LayerCount: 2
Fore
SplineSet
130 1036 m 1,0,-1
 320 1120 l 1,1,-1
 326 401 l 2,2,3
 327 309 327 309 386 246 c 0,4,5
 446 182 446 182 542 182 c 0,6,7
 629 182 629 182 690 238 c 0,8,9
 752 295 752 295 759 377 c 1,10,-1
 756 1037 l 1,11,-1
 948 1120 l 1,12,-1
 953 381 l 1,13,14
 959 303 959 303 1012 246 c 0,15,16
 1070 182 1070 182 1168 182 c 0,17,18
 1255 182 1255 182 1316 238 c 0,19,20
 1386 303 1386 303 1386 399 c 2,21,-1
 1382 1037 l 1,22,-1
 1574 1120 l 1,23,-1
 1580 414 l 1,24,25
 1580 246 1580 246 1459 123 c 128,-1,26
 1338 0 1338 0 1168 0 c 0,27,28
 997 0 997 0 878 119 c 0,29,30
 865 132 865 132 853 145 c 1,31,32
 844 134 844 134 833 123 c 0,33,34
 710 0 710 0 542 0 c 0,35,36
 375 0 375 0 252 119 c 0,37,38
 133 234 133 234 132 406 c 2,39,-1
 130 1036 l 1,0,-1
EndSplineSet
Validated: 16385
EndChar

StartChar: x
Encoding: 120 120 91
Width: 990
GlyphClass: 2
Flags: W
HStem: 0 21G<155.263 214.898 767.204 824.927> 1100 20G<172.146 231.7 767.5 824.381>
DStem2: 218 1120 30 1038 0.586686 -0.809814<0 484.678 750.297 1237.88> 30 76 200 0 0.584468 0.811416<37.692 526.432 792.577 1286.64>
LayerCount: 2
Fore
SplineSet
30 1038 m 1,0,-1
 218 1120 l 1,1,-1
 492 720 l 1,2,-1
 782 1120 l 1,3,-1
 960 1036 l 1,4,-1
 606 571 l 1,5,-1
 958 82 l 1,6,-1
 782 0 l 1,7,-1
 492 392 l 1,8,-1
 200 0 l 1,9,-1
 30 76 l 1,10,-1
 377 547 l 1,11,-1
 30 1038 l 1,0,-1
EndSplineSet
Validated: 16385
EndChar

StartChar: y
Encoding: 121 121 92
Width: 1100
GlyphClass: 2
Flags: W
HStem: -404 183<290 663.531> 0 182<406.51 674.192> 1100 20G<276.581 321.083 904.186 950>
VStem: 130 194<265.918 1034> 756 194<-131.612 61 263.06 1034>
LayerCount: 2
Fore
SplineSet
541 -218 m 1,0,1
 620 -218 620 -218 686 -160 c 0,2,3
 756 -99 756 -99 756 1 c 2,4,-1
 756 24 l 1,5,-1
 756 61 l 1,6,7
 660 0 660 0 540 0 c 0,8,9
 375 0 375 0 250 119 c 0,10,11
 130 233 130 233 130 406 c 2,12,-1
 130 1034 l 1,13,-1
 321 1120 l 1,14,-1
 324 401 l 2,15,16
 324 310 324 310 384 246 c 1,17,18
 442 182 442 182 540 182 c 0,19,20
 627 182 627 182 688 238 c 0,21,22
 744 289 744 289 755 361 c 1,23,-1
 753 1034 l 1,24,-1
 950 1120 l 1,25,-1
 950 16 l 2,26,27
 950 -152 950 -152 829 -275 c 0,28,29
 706 -400 706 -400 553 -400 c 0,30,31
 547 -400 547 -400 541 -400 c 2,32,-1
 285 -404 l 1,33,-1
 207 -404 l 1,34,-1
 290 -221 l 1,35,-1
 306 -221 l 1,36,-1
 541 -218 l 1,0,1
EndSplineSet
Validated: 16385
EndChar

StartChar: z
Encoding: 122 122 93
Width: 1024
GlyphClass: 2
Flags: W
HStem: 12 172<402 844> 940 166<208 624>
DStem2: 100 12 402 184 0.491686 0.870772<298.262 1065.72>
LayerCount: 2
Fore
SplineSet
402 184 m 1,0,-1
 923 184 l 1,1,-1
 844 12 l 1,2,-1
 100 12 l 1,3,-1
 624 940 l 1,4,-1
 130 940 l 1,5,-1
 208 1106 l 1,6,-1
 924 1106 l 1,7,-1
 402 184 l 1,0,-1
EndSplineSet
Validated: 1
EndChar

StartChar: braceleft
Encoding: 123 123 94
Width: 788
GlyphClass: 2
Flags: W
HStem: -336 182<528.962 694> 612 198<99 246> 1587 183<525.437 691>
VStem: 246 195<-69.6123 612 808 1503.48>
LayerCount: 2
Fore
SplineSet
694 -336 m 1,0,-1
 659 -336 l 2,1,2
 489 -336 489 -336 368 -213 c 128,-1,3
 247 -90 247 -90 247 78 c 2,4,-1
 247 199 l 1,5,-1
 246 612 l 1,6,-1
 10 612 l 1,7,-1
 99 810 l 1,8,-1
 246 808 l 1,9,-1
 246 1332 l 1,10,-1
 247 1357 l 2,11,12
 254 1532 254 1532 368 1648 c 0,13,14
 489 1771 489 1771 649 1771 c 0,15,16
 654 1771 654 1771 659 1771 c 2,17,-1
 696 1770 l 1,18,-1
 776 1770 l 1,19,-1
 691 1587 l 1,20,-1
 675 1587 l 1,21,-1
 659 1589 l 1,22,23
 575 1589 575 1589 511 1533 c 0,24,25
 441 1472 441 1472 441 1372 c 2,26,-1
 441 1349 l 1,27,-1
 441 86 l 1,28,-1
 441 63 l 2,29,30
 441 -37 441 -37 511 -98 c 0,31,32
 575 -154 575 -154 659 -154 c 2,33,-1
 688 -154 l 1,34,-1
 778 -152 l 1,35,-1
 694 -336 l 1,0,-1
EndSplineSet
Validated: 1
EndChar

StartChar: bar
Encoding: 124 124 95
Width: 537
GlyphClass: 2
Flags: W
VStem: 170 197<-140 1560>
LayerCount: 2
Fore
SplineSet
367 -140 m 1,0,-1
 170 -232 l 1,1,-1
 170 1560 l 1,2,-1
 368 1649 l 1,3,-1
 367 -140 l 1,0,-1
EndSplineSet
Validated: 1
EndChar

StartChar: braceright
Encoding: 125 125 96
Width: 788
GlyphClass: 2
Flags: W
HStem: -335 183<97 262.563> 627 196<542 689> 1589 182<94 259.038>
VStem: 347 195<-68.4797 627 823 1504.61>
LayerCount: 2
Fore
SplineSet
94 1771 m 1,0,-1
 129 1771 l 2,1,2
 299 1771 299 1771 420 1648 c 128,-1,3
 541 1525 541 1525 541 1357 c 2,4,-1
 541 1236 l 1,5,-1
 542 823 l 1,6,-1
 778 823 l 1,7,-1
 689 625 l 1,8,-1
 542 627 l 1,9,-1
 542 103 l 1,10,-1
 541 78 l 2,11,12
 534 -97 534 -97 420 -213 c 0,13,14
 299 -336 299 -336 139 -336 c 0,15,16
 134 -336 134 -336 129 -336 c 2,17,-1
 92 -335 l 1,18,-1
 12 -335 l 1,19,-1
 97 -152 l 1,20,-1
 113 -152 l 1,21,-1
 129 -154 l 1,22,23
 213 -154 213 -154 277 -98 c 0,24,25
 347 -37 347 -37 347 63 c 2,26,-1
 347 86 l 1,27,-1
 347 1349 l 1,28,-1
 347 1372 l 2,29,30
 347 1472 347 1472 277 1533 c 0,31,32
 213 1589 213 1589 129 1589 c 2,33,-1
 100 1589 l 1,34,-1
 10 1587 l 1,35,-1
 94 1771 l 1,0,-1
EndSplineSet
Validated: 1
EndChar

StartChar: asciitilde
Encoding: 126 126 97
Width: 1116
GlyphClass: 2
Flags: W
HStem: 527 184<659.36 828.277> 676 183<307.308 474>
DStem2: 416 846 379 670 0.930468 -0.366372<4.91525 387.713>
LayerCount: 2
Fore
SplineSet
379 670 m 2,0,1
 365 676 365 676 354 676 c 0,2,3
 305 674 305 674 285 580 c 1,4,-1
 80 506 l 1,5,-1
 83 541 l 1,6,-1
 86 571 l 1,7,8
 112 846 112 846 342 859 c 0,9,10
 360 860 360 860 373 858 c 0,11,12
 388 856 388 856 416 846 c 0,13,14
 609 777 609 777 746 719 c 0,15,16
 765 711 765 711 780 711 c 0,17,18
 828 712 828 712 833 787 c 0,19,20
 834 802 834 802 834 808 c 1,21,-1
 1036 880 l 1,22,-1
 1035 845 l 1,23,-1
 1031 795 l 2,24,25
 1010 527 1010 527 796 527 c 0,26,27
 779 527 779 527 760 529 c 0,28,29
 727 532 727 532 699 544 c 2,30,-1
 379 670 l 2,0,1
EndSplineSet
Validated: 16385
EndChar

StartChar: exclamdown
Encoding: 161 161 99
Width: 600
GlyphClass: 2
Flags: W
HStem: 0 21G<202 246.944> 1248 264<209.191 390.809>
VStem: 170 260<1287.71 1472.29> 202 200<89 1108>
LayerCount: 2
Fore
SplineSet
430 1380 m 128,-1,1
 430 1325 430 1325 392 1286.5 c 128,-1,2
 354 1248 354 1248 300 1248 c 128,-1,3
 246 1248 246 1248 208 1286.5 c 128,-1,4
 170 1325 170 1325 170 1380 c 128,-1,5
 170 1435 170 1435 208 1473.5 c 128,-1,6
 246 1512 246 1512 300 1512 c 128,-1,7
 354 1512 354 1512 392 1473.5 c 128,-1,0
 430 1435 430 1435 430 1380 c 128,-1,1
402 89 m 1,8,-1
 202 0 l 1,9,-1
 202 1108 l 1,10,-1
 400 1200 l 1,11,-1
 402 89 l 1,8,-1
EndSplineSet
Validated: 16385
EndChar

StartChar: cent
Encoding: 162 162 100
Width: 1124
GlyphClass: 2
Flags: W
VStem: 150 194<266.494 853.612> 464 198<-146 19.5493 200 917 1095.96 1248> 780 194<249.402 412 696 851.772>
LayerCount: 2
Fore
SplineSet
780 412 m 1,0,-1
 972 484 l 1,1,-1
 974 402 l 1,2,3
 974 231 974 231 854 115 c 0,4,5
 769 32 769 32 662 7 c 1,6,-1
 662 -146 l 1,7,-1
 466 -226 l 1,8,-1
 466 7 l 1,9,10
 357 33 357 33 273 119 c 0,11,12
 153 241 153 241 152 410 c 2,13,-1
 150 706 l 1,14,15
 150 874 150 874 271 997 c 0,16,17
 356 1083 356 1083 464 1109 c 1,18,-1
 464 1248 l 1,19,-1
 662 1337 l 1,20,-1
 662 1107 l 1,21,22
 763 1081 763 1081 852 1001 c 0,23,24
 972 892 972 892 972 714 c 2,25,-1
 972 696 l 1,26,-1
 780 624 l 1,27,-1
 778 719 l 2,28,29
 776 812 776 812 718 874 c 0,30,31
 694 901 694 901 662 917 c 1,32,-1
 662 194 l 1,33,34
 703 210 703 210 730 242 c 0,35,36
 780 300 780 300 780 397 c 2,37,-1
 780 412 l 1,0,-1
465 200 m 1,38,-1
 464 917 l 1,39,40
 437 903 437 903 414 882 c 0,41,42
 344 817 344 817 344 721 c 2,43,-1
 344 567 l 1,44,-1
 346 395 l 2,45,46
 347 298 347 298 416 234 c 0,47,48
 439 213 439 213 465 200 c 1,38,-1
EndSplineSet
Validated: 16385
EndChar

StartChar: sterling
Encoding: 163 163 101
Width: 1179
GlyphClass: 2
Flags: W
HStem: 22 196<161 220 419 1043> 600 198<170 222 419 741> 1329 182<501.469 770.077>
VStem: 220 199<218 600 798 1244.99> 852 194<1087 1242.91>
LayerCount: 2
Fore
SplineSet
419 600 m 1,0,-1
 419 218 l 1,1,-1
 1152 224 l 1,2,-1
 1043 28 l 1,3,-1
 53 22 l 1,4,-1
 161 218 l 1,5,-1
 220 218 l 1,6,-1
 222 600 l 1,7,-1
 80 600 l 1,8,-1
 170 798 l 1,9,-1
 223 798 l 1,10,-1
 224 1097 l 2,11,12
 225 1266 225 1266 345 1388 c 0,13,14
 466 1511 466 1511 636 1511 c 0,15,16
 794 1511 794 1511 926 1392 c 0,17,18
 1046 1283 1046 1283 1046 1105 c 2,19,-1
 1046 1087 l 1,20,-1
 854 1015 l 1,21,-1
 852 1110 l 2,22,23
 850 1203 850 1203 792 1265 c 1,24,25
 734 1329 734 1329 636 1329 c 0,26,27
 549 1329 549 1329 488 1273 c 1,28,29
 418 1207 418 1207 418 1112 c 2,30,-1
 418 798 l 1,31,-1
 833 798 l 1,32,-1
 741 600 l 1,33,-1
 419 600 l 1,0,-1
EndSplineSet
Validated: 16385
EndChar

StartChar: currency
Encoding: 164 164 102
Width: 1542
GlyphClass: 2
Flags: W
HStem: 267 207<614.555 910.607> 1044 207<614.677 911.907>
VStem: 280 204<606.116 912.648> 1042 203<604.671 911.734>
DStem2: 354 1256 150 1179 0.744078 -0.668093<0 159.658 1104.95 1292.59> 150 336 354 259 0.741942 0.670464<99.7304 262.081 1214.01 1396.95>
LayerCount: 2
Fore
SplineSet
484 759 m 128,-1,1
 484 642 484 642 566 558 c 128,-1,2
 648 474 648 474 762 474 c 0,3,4
 878 474 878 474 960 558 c 128,-1,5
 1042 642 1042 642 1042 755 c 2,6,-1
 1042 758 l 1,7,8
 1041 878 1041 878 960 960 c 0,9,10
 877 1044 877 1044 763 1044 c 0,11,12
 648 1044 648 1044 566 960 c 128,-1,0
 484 876 484 876 484 759 c 128,-1,1
280 759 m 0,13,14
 280 942 280 942 344 1006 c 2,15,-1
 345 1007 l 1,16,-1
 150 1179 l 1,17,-1
 354 1256 l 1,18,-1
 473 1153 l 1,19,20
 495 1170 495 1170 520 1185 c 0,21,22
 633 1251 633 1251 763 1251 c 0,23,24
 890 1251 890 1251 1004 1185 c 0,25,26
 1030 1170 1030 1170 1053 1153 c 1,27,-1
 1187 1272 l 1,28,-1
 1392 1197 l 1,29,-1
 1179 1008 l 1,30,-1
 1180 1006 l 2,31,32
 1244 879 1244 879 1245 759 c 1,33,-1
 1245 755 l 2,34,35
 1245 626 1245 626 1181 513 c 1,36,-1
 1392 324 l 1,37,-1
 1187 249 l 1,38,-1
 1054 366 l 1,39,40
 1030 348 1030 348 1004 333 c 0,41,42
 892 267 892 267 762 267 c 0,43,44
 633 267 633 267 520 333 c 0,45,46
 496 347 496 347 474 364 c 1,47,-1
 354 259 l 1,48,-1
 150 336 l 1,49,-1
 346 510 l 1,50,-1
 344 512 l 1,51,52
 280 625 280 625 280 759 c 0,13,14
EndSplineSet
Validated: 16385
EndChar

StartChar: yen
Encoding: 165 165 103
Width: 1118
GlyphClass: 2
Flags: W
HStem: 0 21G<452 501> 374 196<159 376 698 872> 701 196<199 251 527 563 842 912> 1492 20G<182.255 225.655 905.289 944.196>
VStem: 452 196<80 376>
DStem2: 218 1512 50 1418 0.357362 -0.933966<27.7559 586.182 866.003 912.239> 544 660 698 573 0.398332 0.917241<0 47.0097 338.841 896.657>
LayerCount: 2
Fore
SplineSet
648 80 m 1,0,-1
 452 0 l 1,1,-1
 452 375 l 1,2,-1
 452 376 l 1,3,-1
 51 374 l 1,4,-1
 159 570 l 1,5,-1
 376 571 l 1,6,-1
 326 702 l 1,7,-1
 91 701 l 1,8,-1
 199 897 l 1,9,-1
 251 897 l 1,10,-1
 50 1418 l 1,11,-1
 218 1512 l 1,12,-1
 453 898 l 1,13,-1
 647 899 l 1,14,-1
 914 1512 l 1,15,-1
 1068 1410 l 1,16,-1
 842 900 l 1,17,-1
 1021 901 l 1,18,-1
 912 705 l 1,19,-1
 756 704 l 1,20,-1
 698 573 l 1,21,-1
 981 574 l 1,22,-1
 872 378 l 1,23,-1
 648 377 l 1,24,-1
 648 80 l 1,0,-1
563 703 m 1,25,-1
 527 703 l 1,26,-1
 544 660 l 1,27,-1
 563 703 l 1,25,-1
EndSplineSet
Validated: 16385
EndChar

StartChar: brokenbar
Encoding: 166 166 104
Width: 536
GlyphClass: 2
Flags: W
VStem: 170 196<-171 555 879 1580>
LayerCount: 2
Fore
SplineSet
171 786 m 1,0,-1
 172 1580 l 1,1,-1
 366 1668 l 1,2,-1
 366 879 l 1,3,-1
 171 786 l 1,0,-1
366 648 m 1,4,-1
 366 -171 l 1,5,-1
 170 -262 l 1,6,-1
 170 555 l 1,7,-1
 366 648 l 1,4,-1
EndSplineSet
Validated: 1
EndChar

StartChar: section
Encoding: 167 167 105
Width: 1104
GlyphClass: 2
Flags: W
HStem: -22 174<447.563 672.871> 1336 174<440.196 661.435>
VStem: 150 207<654.348 779> 202 192<199.784 288 1103.07 1291.06> 711 191<189.94 384.729 1200 1293.7> 754 201<700 833.964>
DStem2: 534 1074 490 895 0.964222 -0.265096<-48.6311 286.539> 618 593 532 420 0.968069 -0.250684<-270.195 54.8049>
LayerCount: 2
Fore
SplineSet
711 302 m 1,0,1
 711 344 711 344 684 384 c 1,2,3
 577 409 577 409 532 420 c 0,4,5
 448 441 448 441 321 478 c 1,6,7
 269 500 269 500 228 530 c 0,8,9
 172 571 172 571 154 670 c 0,10,11
 149 697 149 697 150 720 c 128,-1,12
 151 743 151 743 152 760 c 0,13,14
 158 866 158 866 268 961 c 1,15,-1
 279 973 l 1,16,17
 232 1017 232 1017 211 1104 c 1,18,19
 207 1134 207 1134 207 1163 c 0,20,21
 207 1293 207 1293 289 1390 c 0,22,23
 390 1510 390 1510 552 1510 c 0,24,25
 730 1510 730 1510 825 1396 c 0,26,27
 907 1297 907 1297 907 1218 c 2,28,-1
 907 1200 l 1,29,-1
 715 1128 l 1,30,-1
 715 1158 l 2,31,32
 715 1243 715 1243 663 1298 c 1,33,34
 613 1336 613 1336 552 1336 c 0,35,36
 550 1336 550 1336 549 1336 c 0,37,38
 477 1336 477 1336 439 1292 c 1,39,40
 398 1238 398 1238 398 1186 c 0,41,42
 398 1131 398 1131 425 1104 c 0,43,44
 426 1103 426 1103 534 1074 c 0,45,46
 665 1039 665 1039 796 1002 c 1,47,48
 847 985 847 985 881 958 c 1,49,50
 936 912 936 912 955 818 c 1,51,52
 955 735 955 735 946 696 c 1,53,54
 931 615 931 615 841 527 c 1,55,-1
 829 515 l 1,56,57
 876 471 876 471 898 384 c 1,58,59
 902 354 902 354 902 325 c 0,60,61
 902 195 902 195 820 98 c 0,62,63
 719 -22 719 -22 557 -22 c 0,64,65
 378 -22 378 -22 284 92 c 0,66,67
 202 191 202 191 202 270 c 2,68,-1
 202 288 l 1,69,-1
 394 360 l 1,70,-1
 394 330 l 2,71,72
 394 245 394 245 446 190 c 1,73,74
 496 152 496 152 549 152 c 0,75,76
 553 152 553 152 557 152 c 0,77,78
 707 159 707 159 711 302 c 1,0,1
618 593 m 1,79,80
 649 601 649 601 693 629 c 0,81,82
 732 654 732 654 748 700 c 1,83,-1
 752 724 l 2,84,85
 754 736 754 736 754 748 c 0,86,87
 754 802 754 802 711 835 c 1,88,-1
 490 895 l 1,89,90
 449 884 449 884 416 859 c 0,91,92
 371 824 371 824 355 779 c 1,93,-1
 357 756 l 1,94,95
 360 696 360 696 398 653 c 1,96,-1
 618 593 l 1,79,80
EndSplineSet
Validated: 16385
EndChar

StartChar: dieresis
Encoding: 168 168 106
Width: 996
GlyphClass: 2
Flags: W
HStem: 1218 294<166.411 379.589 616.411 829.589>
VStem: 120 306<1262.35 1467.65> 570 306<1265.35 1470.65>
LayerCount: 2
Fore
SplineSet
570 1368 m 128,-1,1
 570 1429 570 1429 615 1472 c 128,-1,2
 660 1515 660 1515 723 1515 c 128,-1,3
 786 1515 786 1515 831 1472 c 128,-1,4
 876 1429 876 1429 876 1368 c 128,-1,5
 876 1307 876 1307 831 1264 c 128,-1,6
 786 1221 786 1221 723 1221 c 128,-1,7
 660 1221 660 1221 615 1264 c 128,-1,0
 570 1307 570 1307 570 1368 c 128,-1,1
120 1365 m 128,-1,9
 120 1426 120 1426 165 1469 c 128,-1,10
 210 1512 210 1512 273 1512 c 128,-1,11
 336 1512 336 1512 381 1469 c 128,-1,12
 426 1426 426 1426 426 1365 c 128,-1,13
 426 1304 426 1304 381 1261 c 128,-1,14
 336 1218 336 1218 273 1218 c 128,-1,15
 210 1218 210 1218 165 1261 c 128,-1,8
 120 1304 120 1304 120 1365 c 128,-1,9
EndSplineSet
Validated: 16385
EndChar

StartChar: copyright
Encoding: 169 169 107
Width: 1261
GlyphClass: 2
Flags: W
HStem: 180 79<444.499 817.229> 357 127<504.273 752.81> 1044 127<504.347 752.482> 1251 80<441.931 819.969>
VStem: 80 74<566.018 943.982> 308 145<532.441 995.559> 804 148<534.141 637 882 992.684> 1106 75<560.265 949.908>
LayerCount: 2
Fore
SplineSet
631 1331 m 0,0,1
 741 1331 741 1331 841 1288 c 0,2,3
 937 1247 937 1247 1020 1161 c 0,4,5
 1100 1078 1100 1078 1141 975 c 0,6,7
 1181 874 1181 874 1181 754 c 0,8,9
 1181 638 1181 638 1141 535 c 0,10,11
 1103 437 1103 437 1020 350 c 0,12,13
 941 267 941 267 841 223 c 0,14,15
 743 180 743 180 631 180 c 0,16,17
 520 180 520 180 420 223 c 0,18,19
 324 264 324 264 241 350 c 0,20,21
 160 434 160 434 120 535 c 128,-1,22
 80 636 80 636 80 754 c 0,23,24
 80 873 80 873 120 975 c 128,-1,25
 160 1077 160 1077 241 1161 c 0,26,27
 322 1246 322 1246 420 1288.5 c 128,-1,28
 518 1331 518 1331 631 1331 c 0,0,1
631 1251 m 0,29,30
 533 1251 533 1251 450 1215 c 128,-1,31
 367 1179 367 1179 296 1105 c 0,32,33
 226 1032 226 1032 190 944 c 128,-1,34
 154 856 154 856 154 759 c 2,35,-1
 154 754 l 2,36,37
 154 655 154 655 190 566 c 0,38,39
 224 483 224 483 296 406 c 0,40,41
 366 332 366 332 449 296 c 0,42,43
 534 259 534 259 631 259 c 128,-1,44
 728 259 728 259 813 296 c 0,45,46
 896 332 896 332 967 406 c 0,47,48
 1036 478 1036 478 1071 565 c 128,-1,49
 1106 652 1106 652 1106 754 c 0,50,51
 1106 857 1106 857 1071 945 c 0,52,53
 1037 1031 1037 1031 967 1105 c 0,54,55
 898 1178 898 1178 813 1215 c 0,56,57
 728 1251 728 1251 631 1251 c 0,29,30
804 898 m 2,58,59
 802 960 802 960 754 1000 c 0,60,61
 701 1044 701 1044 628 1044 c 128,-1,62
 555 1044 555 1044 504 1001 c 128,-1,63
 453 958 453 958 453 898 c 2,64,-1
 453 630 l 2,65,66
 453 570 453 570 504 527 c 128,-1,67
 555 484 555 484 628.5 484 c 128,-1,68
 702 484 702 484 754 528 c 0,69,70
 803 569 803 569 804 630 c 1,71,-1
 804 637 l 1,72,-1
 952 694 l 1,73,-1
 951 627 l 2,74,75
 949 513 949 513 857 435 c 1,76,77
 763 357 763 357 630 357 c 128,-1,78
 497 357 497 357 402 436 c 0,79,80
 308 515 308 515 308 627 c 2,81,-1
 309 901 l 2,82,83
 309 1013 309 1013 403 1092 c 128,-1,84
 497 1171 497 1171 629.5 1171 c 128,-1,85
 762 1171 762 1171 857 1092 c 256,86,87
 952 1013 952 1013 952 901 c 2,88,-1
 952 882 l 1,89,-1
 806 825 l 1,90,-1
 804 898 l 2,58,59
EndSplineSet
Validated: 16385
EndChar

StartChar: ordfeminine
Encoding: 170 170 108
Width: 1083
GlyphClass: 2
Flags: W
HStem: 483 198<170 911> 776 120<573 641> 1384 128<456.35 673.578>
VStem: 261 150<948.529 1345.11> 718 148<800 1342.03>
LayerCount: 2
Fore
SplineSet
170 681 m 1,0,-1
 1003 681 l 1,1,-1
 911 483 l 1,2,-1
 80 483 l 1,3,-1
 170 681 l 1,0,-1
718 819 m 128,-1,5
 718 894 718 894 717 1038 c 2,6,-1
 715 1247 l 2,7,8
 715 1303 715 1303 673 1344 c 0,9,10
 633 1384 633 1384 564 1384 c 0,11,12
 503 1384 503 1384 460 1349 c 0,13,14
 411 1308 411 1308 411 1248 c 2,15,-1
 411 1148 l 1,16,-1
 413 1037 l 2,17,18
 413 991 413 991 459 944 c 0,19,20
 496 906 496 906 573 898 c 1,21,-1
 596 896 l 1,22,-1
 713 901 l 1,23,-1
 641 776 l 1,24,-1
 638 776 l 1,25,26
 606 773 606 773 566 773 c 2,27,-1
 564 773 l 2,28,29
 441 773 441 773 352 854 c 128,-1,30
 263 935 263 935 262 1046 c 2,31,-1
 261 1238 l 2,32,33
 261 1350 261 1350 350 1431 c 128,-1,34
 439 1512 439 1512 564 1512 c 0,35,36
 687 1512 687 1512 777 1434 c 0,37,38
 866 1357 866 1357 866 1244 c 2,39,-1
 866 800 l 1,40,-1
 715 728 l 1,41,-1
 717 737 l 2,42,4
 718 744 718 744 718 819 c 128,-1,5
EndSplineSet
Validated: 16385
EndChar

StartChar: guillemotleft
Encoding: 171 171 109
Width: 1066
GlyphClass: 2
Flags: W
DStem2: 322 702 100 687 0.577331 -0.81651<0 409.443> 100 687 322 702 0.5547 0.83205<135.624 553.313> 682 711 460 696 0.577331 -0.81651<0 409.443> 460 696 682 711 0.5547 0.83205<135.624 553.313>
LayerCount: 2
Fore
SplineSet
810 1221 m 1,0,-1
 904 1065 l 1,1,-1
 682 711 l 1,2,-1
 916 375 l 1,3,-1
 810 201 l 1,4,-1
 460 696 l 1,5,-1
 810 1221 l 1,0,-1
450 1212 m 1,6,-1
 544 1056 l 1,7,-1
 322 702 l 1,8,-1
 556 366 l 1,9,-1
 450 192 l 1,10,-1
 100 687 l 1,11,-1
 450 1212 l 1,6,-1
EndSplineSet
Validated: 16385
EndChar

StartChar: logicalnot
Encoding: 172 172 110
Width: 1083
GlyphClass: 2
Flags: W
HStem: 600 198<170 712>
VStem: 608 206<362 568>
LayerCount: 2
Fore
SplineSet
170 798 m 1,0,-1
 1003 798 l 1,1,-1
 814 362 l 1,2,-1
 608 362 l 1,3,-1
 712 600 l 1,4,-1
 80 600 l 1,5,-1
 170 798 l 1,0,-1
EndSplineSet
Validated: 1
EndChar

StartChar: uni00AD
Encoding: 173 173 111
Width: 1083
GlyphClass: 2
Flags: W
HStem: 600 198<170 911>
LayerCount: 2
Fore
SplineSet
170 798 m 1,0,-1
 1003 798 l 1,1,-1
 911 600 l 1,2,-1
 80 600 l 1,3,-1
 170 798 l 1,0,-1
EndSplineSet
Validated: 1
EndChar

StartChar: registered
Encoding: 174 174 112
Width: 1261
GlyphClass: 2
Flags: W
HStem: 180 79<444.559 817.01> 619 125<497 639> 1034 127<497 777.042> 1251 80<441.834 819.969>
VStem: 80 74<566.018 943.982> 364 133<362 619 744 1034> 825 137<788.846 988.717> 1106 75<560.265 949.908>
DStem2: 783 641 639 620 0.552124 -0.833762<0 296.619>
LayerCount: 2
Fore
SplineSet
497 1034 m 1,0,-1
 497 744 l 1,1,-1
 665 744 l 1,2,3
 733 745 733 745 779 787 c 128,-1,4
 825 829 825 829 825 889 c 128,-1,5
 825 949 825 949 778.5 991.5 c 128,-1,6
 732 1034 732 1034 665 1034 c 2,7,-1
 497 1034 l 1,0,-1
497 1161 m 1,8,-1
 669 1161 l 1,9,-1
 671 1161 l 2,10,11
 791 1161 791 1161 876 1082 c 0,12,13
 962 1003 962 1003 962 890.5 c 128,-1,14
 962 778 962 778 876 699 c 0,15,16
 835 661 835 661 783 641 c 1,17,-1
 950 389 l 1,18,-1
 967 406 l 1,19,20
 1036 478 1036 478 1071 565 c 128,-1,21
 1106 652 1106 652 1106 754 c 0,22,23
 1106 857 1106 857 1071 945 c 0,24,25
 1037 1031 1037 1031 967 1105 c 0,26,27
 898 1178 898 1178 813 1215 c 0,28,29
 728 1251 728 1251 631 1251 c 0,30,31
 533 1251 533 1251 450 1215 c 128,-1,32
 367 1179 367 1179 296 1105 c 0,33,34
 226 1032 226 1032 190 944 c 128,-1,35
 154 856 154 856 154 759 c 2,36,-1
 154 754 l 2,37,38
 154 654 154 654 190 566 c 0,39,40
 224 482 224 482 296 406 c 0,41,42
 329 371 329 371 365 345 c 1,43,-1
 364 1120 l 1,44,-1
 497 1161 l 1,8,-1
631 1331 m 0,45,46
 741 1331 741 1331 841 1288 c 0,47,48
 937 1247 937 1247 1020 1161 c 0,49,50
 1100 1078 1100 1078 1141 975 c 0,51,52
 1181 874 1181 874 1181 754 c 0,53,54
 1181 638 1181 638 1141 535 c 0,55,56
 1103 437 1103 437 1020 350 c 0,57,58
 941 267 941 267 841 223 c 0,59,60
 743 180 743 180 631 180 c 0,61,62
 520 180 520 180 420 223 c 0,63,64
 324 264 324 264 241 350 c 0,65,66
 160 434 160 434 120 535 c 128,-1,67
 80 636 80 636 80 754 c 0,68,69
 80 874 80 874 120 975 c 128,-1,70
 160 1076 160 1076 241 1161 c 0,71,72
 323 1246 323 1246 420 1288.5 c 128,-1,73
 517 1331 517 1331 631 1331 c 0,45,46
886 337 m 1,74,-1
 837 321 l 1,75,-1
 639 620 l 1,76,-1
 497 619 l 1,77,-1
 497 362 l 1,78,-1
 396 324 l 1,79,80
 422 308 422 308 449 296 c 0,81,82
 532 259 532 259 631 259 c 0,83,84
 725 259 725 259 813 296 c 0,85,86
 851 312 851 312 886 337 c 1,74,-1
EndSplineSet
Validated: 16385
EndChar

StartChar: macron
Encoding: 175 175 113
Width: 1083
GlyphClass: 2
Flags: W
HStem: 1314 198<170 911>
LayerCount: 2
Fore
SplineSet
170 1512 m 1,0,-1
 1003 1512 l 1,1,-1
 911 1314 l 1,2,-1
 80 1314 l 1,3,-1
 170 1512 l 1,0,-1
EndSplineSet
Validated: 1
EndChar

StartChar: degree
Encoding: 176 176 114
Width: 912
GlyphClass: 2
Flags: W
HStem: 852 162<338.087 573.913> 1350 162<338.087 573.913>
VStem: 120 162<1069.54 1294.46> 630 162<1069.54 1294.46>
LayerCount: 2
Fore
SplineSet
282 1182 m 128,-1,1
 282 1112 282 1112 333 1063 c 128,-1,2
 384 1014 384 1014 456 1014 c 128,-1,3
 528 1014 528 1014 579 1063 c 128,-1,4
 630 1112 630 1112 630 1182 c 128,-1,5
 630 1252 630 1252 579 1301 c 128,-1,6
 528 1350 528 1350 456 1350 c 128,-1,7
 384 1350 384 1350 333 1301 c 128,-1,0
 282 1252 282 1252 282 1182 c 128,-1,1
120 1182 m 128,-1,9
 120 1319 120 1319 218.5 1415.5 c 128,-1,10
 317 1512 317 1512 456 1512 c 128,-1,11
 595 1512 595 1512 693.5 1415.5 c 128,-1,12
 792 1319 792 1319 792 1182 c 128,-1,13
 792 1045 792 1045 693.5 948.5 c 128,-1,14
 595 852 595 852 456 852 c 128,-1,15
 317 852 317 852 218.5 948.5 c 128,-1,8
 120 1045 120 1045 120 1182 c 128,-1,9
EndSplineSet
Validated: 16385
EndChar

StartChar: plusminus
Encoding: 177 177 115
Width: 1084
GlyphClass: 2
Flags: W
HStem: 168 198<171 912> 741 198<170 442 640 911>
VStem: 442 198<468 741 939 1210>
LayerCount: 2
Fore
SplineSet
640 468 m 1,0,-1
 442 378 l 1,1,-1
 442 741 l 1,2,-1
 80 741 l 1,3,-1
 170 939 l 1,4,-1
 442 939 l 1,5,-1
 442 1210 l 1,6,-1
 640 1302 l 1,7,-1
 640 939 l 1,8,-1
 1003 939 l 1,9,-1
 911 741 l 1,10,-1
 640 741 l 1,11,-1
 640 468 l 1,0,-1
171 366 m 1,12,-1
 1004 366 l 1,13,-1
 912 168 l 1,14,-1
 81 168 l 1,15,-1
 171 366 l 1,12,-1
EndSplineSet
Validated: 16385
EndChar

StartChar: uni00B2
Encoding: 178 178 116
Width: 919
GlyphClass: 2
Flags: W
HStem: 709 126<363 712> 1384 125<349.096 571.759>
VStem: 169 134<1228 1338.61> 618 131<1224 1339.36>
DStem2: 469 1071 542 971 0.784046 0.620703<-229.119 209.663>
LayerCount: 2
Fore
SplineSet
749 1244 m 0,0,1
 749 1145 749 1145 665 1072 c 0,2,3
 563 984 563 984 542 971 c 0,4,5
 440 910 440 910 363 835 c 1,6,-1
 769 830 l 1,7,-1
 712 709 l 1,8,-1
 150 709 l 1,9,-1
 199 822 l 1,10,11
 257 932 257 932 469 1071 c 1,12,-1
 565 1147 l 2,13,14
 601 1175 601 1175 617 1224 c 1,15,-1
 618 1242 l 1,16,17
 617 1300 617 1300 571.5 1342 c 128,-1,18
 526 1384 526 1384 460.5 1384 c 128,-1,19
 395 1384 395 1384 349 1342 c 128,-1,20
 303 1300 303 1300 303 1241 c 2,21,-1
 303 1228 l 1,22,-1
 170 1168 l 1,23,-1
 169 1244 l 2,24,25
 169 1247 169 1247 169 1249 c 0,26,27
 169 1354 169 1354 254 1432 c 0,28,29
 339 1509 339 1509 459 1509 c 128,-1,30
 579 1509 579 1509 664 1431.5 c 128,-1,31
 749 1354 749 1354 749 1244 c 0,0,1
EndSplineSet
Validated: 16385
EndChar

StartChar: uni00B3
Encoding: 179 179 117
Width: 892
GlyphClass: 2
Flags: W
HStem: 697 127<331.237 556.017> 1389 123<225 491>
VStem: 150 135<869.031 991> 602 132<869.251 991>
LayerCount: 2
Fore
SplineSet
482 1106 m 0,0,1
 450 1114 450 1114 419 1120 c 0,2,3
 405 1122 405 1122 369 1124 c 2,4,-1
 300 1127 l 1,5,-1
 491 1388 l 1,6,-1
 161 1389 l 1,7,-1
 225 1512 l 1,8,-1
 742 1512 l 1,9,-1
 522 1216 l 1,10,-1
 535 1212 l 1,11,12
 561 1201 561 1201 578 1193 c 0,13,14
 614 1176 614 1176 650 1143 c 1,15,16
 717 1087 717 1087 734 990 c 1,17,-1
 734 988 l 1,18,-1
 735 967 l 1,19,20
 735 855 735 855 649 776 c 128,-1,21
 563 697 563 697 442 697 c 128,-1,22
 321 697 321 697 236 775 c 0,23,24
 150 855 150 855 150 967 c 2,25,-1
 150 991 l 1,26,-1
 283 1043 l 1,27,-1
 285 971 l 2,28,29
 287 908 287 908 331 867 c 0,30,31
 378 824 378 824 444 824 c 128,-1,32
 510 824 510 824 556 866.5 c 128,-1,33
 602 909 602 909 602 969 c 1,34,-1
 598 991 l 1,35,36
 581 1040 581 1040 548 1066 c 0,37,38
 506 1100 506 1100 482 1106 c 0,0,1
EndSplineSet
Validated: 16385
EndChar

StartChar: acute
Encoding: 180 180 118
Width: 751
GlyphClass: 2
Flags: W
HStem: 1023 522
VStem: 150 452
DStem2: 150 1221 242 1023 0.743294 0.668965<0 420.259>
LayerCount: 2
Fore
SplineSet
510 1545 m 1,0,-1
 602 1347 l 1,1,-1
 242 1023 l 1,2,-1
 150 1221 l 1,3,-1
 510 1545 l 1,0,-1
EndSplineSet
Validated: 16385
EndChar

StartChar: uni00B5
Encoding: 181 181 119
Width: 1126
GlyphClass: 2
Flags: W
HStem: 0 182<429.781 698.531> 1100 20G<295.659 342.167 924.217 970.17>
VStem: 152 196<-274 61 264.292 1038> 782 194<266.388 1037>
LayerCount: 2
Fore
SplineSet
152 -362 m 1,0,-1
 152 1038 l 1,1,-1
 342 1120 l 1,2,-1
 348 401 l 2,3,4
 349 309 349 309 408 246 c 1,5,6
 466 182 466 182 564 182 c 0,7,8
 651 182 651 182 712 238 c 0,9,10
 782 303 782 303 782 399 c 2,11,-1
 780 1037 l 1,12,-1
 970 1120 l 1,13,-1
 976 414 l 1,14,15
 976 246 976 246 855 123 c 128,-1,16
 734 0 734 0 564 0 c 0,17,18
 445 0 445 0 348 61 c 1,19,-1
 348 -274 l 1,20,-1
 152 -362 l 1,0,-1
EndSplineSet
Validated: 16385
EndChar

StartChar: paragraph
Encoding: 182 182 120
Width: 1124
GlyphClass: 2
Flags: W
HStem: 0 21G<770.179 812.162> 388 184<429.29 699.503> 1332 180<427.29 695.799>
VStem: 152 194<659.02 1249.68> 780 62<37 447 673.898 1225.36> 894 74<91 1259.79>
LayerCount: 2
Fore
SplineSet
346 789 m 2,0,1
 347 692 347 692 416 628 c 0,2,3
 477 572 477 572 564 572 c 0,4,5
 662 572 662 572 720 636 c 1,6,7
 780 700 780 700 780 788 c 0,8,9
 780 790 780 790 780 791 c 2,10,-1
 778 1113 l 2,11,12
 777 1204 777 1204 718 1268 c 0,13,14
 660 1332 660 1332 562 1332 c 0,15,16
 475 1332 475 1332 414 1276 c 0,17,18
 358 1224 358 1224 347 1151 c 1,19,-1
 344 926 l 1,20,-1
 346 789 l 2,0,1
894 59 m 1,21,-1
 898 1260 l 1,22,-1
 842 1232 l 1,23,-1
 848 37 l 1,24,-1
 770 0 l 1,25,-1
 774 447 l 1,26,27
 680 388 680 388 562 388 c 0,28,29
 395 388 395 388 272 507 c 0,30,31
 153 622 153 622 152 794 c 2,32,-1
 150 1106 l 1,33,34
 150 1277 150 1277 270 1393 c 0,35,36
 393 1512 393 1512 560 1512 c 0,37,38
 730 1512 730 1512 851 1389 c 0,39,40
 971 1267 971 1267 972 1098 c 2,41,-1
 974 802 l 1,42,-1
 968 91 l 1,43,-1
 894 59 l 1,21,-1
EndSplineSet
Validated: 16385
EndChar

StartChar: periodcentered
Encoding: 183 183 121
Width: 560
GlyphClass: 2
Flags: W
HStem: 562 264<189.191 370.809>
VStem: 150 260<601.707 786.293>
LayerCount: 2
Fore
SplineSet
150 694 m 128,-1,1
 150 749 150 749 188 787.5 c 128,-1,2
 226 826 226 826 280 826 c 128,-1,3
 334 826 334 826 372 787.5 c 128,-1,4
 410 749 410 749 410 694 c 128,-1,5
 410 639 410 639 372 600.5 c 128,-1,6
 334 562 334 562 280 562 c 128,-1,7
 226 562 226 562 188 600.5 c 128,-1,0
 150 639 150 639 150 694 c 128,-1,1
EndSplineSet
Validated: 1
EndChar

StartChar: cedilla
Encoding: 184 184 122
Width: 1222
GlyphClass: 2
Flags: W
HStem: -386 452
VStem: 436 350
LayerCount: 2
Fore
SplineSet
579 66 m 1,0,-1
 786 -142 l 1,1,-1
 562 -386 l 1,2,-1
 436 -256 l 1,3,-1
 552 -142 l 1,4,-1
 462 -50 l 1,5,-1
 579 66 l 1,0,-1
EndSplineSet
Validated: 1
EndChar

StartChar: uni00B9
Encoding: 185 185 123
Width: 480
GlyphClass: 2
Flags: W
VStem: 191 138<788 1299>
LayerCount: 2
Fore
SplineSet
329 788 m 1,0,-1
 191 724 l 1,1,-1
 192 1299 l 1,2,-1
 81 1245 l 1,3,-1
 20 1363 l 1,4,-1
 330 1522 l 1,5,-1
 329 788 l 1,0,-1
EndSplineSet
Validated: 1
EndChar

StartChar: ordmasculine
Encoding: 186 186 124
Width: 1083
GlyphClass: 2
Flags: W
HStem: 483 198<170 911> 757 131<443.143 660.18> 1381 131<441.32 658.805>
VStem: 246 150<930.75 1341.56> 702 150<930.316 1338.71>
LayerCount: 2
Fore
SplineSet
170 681 m 1,0,-1
 1003 681 l 1,1,-1
 911 483 l 1,2,-1
 80 483 l 1,3,-1
 170 681 l 1,0,-1
398 1027 m 1,4,5
 398 965 398 965 447 924 c 0,6,7
 489 888 489 888 550 888 c 0,8,9
 619 888 619 888 660 929 c 0,10,11
 702 971 702 971 702 1026 c 2,12,-1
 702 1028 l 1,13,-1
 700 1241 l 2,14,15
 700 1299 700 1299 658.5 1340 c 128,-1,16
 617 1381 617 1381 549 1381 c 0,17,18
 486 1381 486 1381 445 1346 c 0,19,20
 396 1304 396 1304 396 1243 c 2,21,-1
 396 1141 l 1,22,-1
 398 1027 l 1,4,5
764 837 m 1,23,24
 673 757 673 757 550 757 c 0,25,26
 426 757 426 757 336.5 840 c 128,-1,27
 247 923 247 923 247 1037 c 2,28,-1
 246 1233 l 2,29,30
 246 1346 246 1346 335 1429 c 128,-1,31
 424 1512 424 1512 549 1512 c 0,32,33
 672 1512 672 1512 762 1432 c 0,34,35
 850 1354 850 1354 851 1238 c 2,36,-1
 852 1031 l 2,37,38
 852 916 852 916 764 837 c 1,23,24
EndSplineSet
Validated: 16385
EndChar

StartChar: guillemotright
Encoding: 187 187 125
Width: 1066
GlyphClass: 2
Flags: W
DStem2: 256 1212 150 1038 0.577331 -0.81651<80.8758 490.319> 162 348 256 192 0.5547 0.83205<0 417.689> 616 1221 510 1047 0.577331 -0.81651<80.8758 490.319> 522 357 616 201 0.5547 0.83205<0 417.689>
LayerCount: 2
Fore
SplineSet
256 192 m 1,0,-1
 162 348 l 1,1,-1
 384 702 l 1,2,-1
 150 1038 l 1,3,-1
 256 1212 l 1,4,-1
 606 717 l 1,5,-1
 256 192 l 1,0,-1
616 201 m 1,6,-1
 522 357 l 1,7,-1
 744 711 l 1,8,-1
 510 1047 l 1,9,-1
 616 1221 l 1,10,-1
 966 726 l 1,11,-1
 616 201 l 1,6,-1
EndSplineSet
Validated: 16385
EndChar

StartChar: onequarter
Encoding: 188 188 126
Width: 1327
GlyphClass: 2
Flags: W
HStem: 173 118<807 984 1125 1167>
VStem: 281 138<799 1311> 984 141<0 173 290 486>
DStem2: 80 -132 259 -216 0.435903 0.899994<2.42717 1984.44> 659 285 807 291 0.657801 0.753192<101.874 365.177>
LayerCount: 2
Fore
SplineSet
80 -132 m 1,0,-1
 945 1654 l 1,1,-1
 1125 1572 l 1,2,-1
 259 -216 l 1,3,-1
 80 -132 l 1,0,-1
419 799 m 1,4,-1
 281 734 l 1,5,-1
 279 1311 l 1,6,-1
 168 1258 l 1,7,-1
 110 1374 l 1,8,-1
 420 1533 l 1,9,-1
 419 799 l 1,4,-1
807 291 m 1,10,-1
 984 290 l 1,11,-1
 984 486 l 1,12,-1
 807 291 l 1,10,-1
984 173 m 1,13,-1
 584 173 l 1,14,-1
 658 283 l 1,15,-1
 659 285 l 1,16,-1
 990 664 l 1,17,-1
 1125 725 l 1,18,-1
 1125 290 l 1,19,-1
 1247 291 l 1,20,-1
 1167 174 l 1,21,-1
 1125 174 l 1,22,-1
 1124 0 l 1,23,-1
 983 -64 l 1,24,-1
 984 173 l 1,13,-1
EndSplineSet
Validated: 16385
EndChar

StartChar: onehalf
Encoding: 189 189 127
Width: 1538
GlyphClass: 2
Flags: W
HStem: 1 126<1012 1361> 676 125<998.096 1221.14>
VStem: 309 138<812 1332> 818 134<520 630.613> 1267 131<513 629.769>
DStem2: 120 -132 299 -216 0.435903 0.899994<2.42717 1984.44> 1118 363 1012 127 0.784046 0.620703<-229.119 225.023>
LayerCount: 2
Fore
SplineSet
120 -132 m 1,0,-1
 985 1654 l 1,1,-1
 1165 1572 l 1,2,-1
 299 -216 l 1,3,-1
 120 -132 l 1,0,-1
1398 514 m 1,4,5
 1391 433 1391 433 1314 364 c 1,6,7
 1258 311 1258 311 1191 263 c 0,8,9
 1043 157 1043 157 1012 127 c 1,10,-1
 1418 122 l 1,11,-1
 1361 1 l 1,12,-1
 799 1 l 1,13,-1
 848 114 l 1,14,15
 906 224 906 224 1118 363 c 1,16,-1
 1214 439 l 2,17,18
 1246 464 1246 464 1262 513 c 1,19,-1
 1267 534 l 1,20,21
 1266 592 1266 592 1220.5 634 c 128,-1,22
 1175 676 1175 676 1109.5 676 c 128,-1,23
 1044 676 1044 676 998 634 c 128,-1,24
 952 592 952 592 952 533 c 2,25,-1
 952 520 l 1,26,-1
 819 460 l 1,27,-1
 818 536 l 2,28,29
 818 539 818 539 818 541 c 0,30,31
 818 646 818 646 903 724 c 0,32,33
 988 801 988 801 1108 801 c 0,34,35
 1229 801 1229 801 1314 723 c 0,36,37
 1398 646 1398 646 1398 517 c 2,38,-1
 1398 514 l 1,4,5
447 812 m 1,39,-1
 309 748 l 1,40,-1
 310 1332 l 1,41,-1
 199 1278 l 1,42,-1
 138 1387 l 1,43,-1
 448 1546 l 1,44,-1
 447 812 l 1,39,-1
EndSplineSet
Validated: 16385
EndChar

StartChar: threequarters
Encoding: 190 190 128
Width: 1597
GlyphClass: 2
Flags: W
HStem: 173 118<1078 1255 1396 1438> 698 127<301.784 524.779> 1390 123<195 461>
VStem: 120 136<870.031 993> 572 132<870.251 992> 1255 141<0 173 290 486>
DStem2: 367 -133 546 -217 0.435903 0.899994<2.42717 1984.44> 930 285 1078 291 0.657801 0.753192<101.874 365.177>
LayerCount: 2
Fore
SplineSet
1078 291 m 1,0,-1
 1255 290 l 1,1,-1
 1255 486 l 1,2,-1
 1078 291 l 1,0,-1
1255 173 m 1,3,-1
 855 173 l 1,4,-1
 929 283 l 1,5,-1
 930 285 l 1,6,-1
 1261 664 l 1,7,-1
 1396 725 l 1,8,-1
 1396 290 l 1,9,-1
 1518 291 l 1,10,-1
 1438 174 l 1,11,-1
 1396 174 l 1,12,-1
 1395 0 l 1,13,-1
 1254 -64 l 1,14,-1
 1255 173 l 1,3,-1
367 -133 m 1,15,-1
 1232 1653 l 1,16,-1
 1412 1571 l 1,17,-1
 546 -217 l 1,18,-1
 367 -133 l 1,15,-1
452 1107 m 0,19,20
 420 1116 420 1116 390 1121 c 0,21,22
 376 1124 376 1124 340 1125 c 2,23,-1
 271 1128 l 1,24,-1
 461 1389 l 1,25,-1
 131 1390 l 1,26,-1
 195 1513 l 1,27,-1
 713 1513 l 1,28,-1
 493 1217 l 1,29,-1
 505 1213 l 1,30,31
 531 1203 531 1203 548 1195 c 0,32,33
 585 1178 585 1178 620 1144 c 1,34,35
 687 1088 687 1088 704 991 c 1,36,-1
 704 990 l 1,37,-1
 705 968 l 1,38,39
 705 856 705 856 619.5 777 c 128,-1,40
 534 698 534 698 412.5 698 c 128,-1,41
 291 698 291 698 206 776 c 0,42,43
 120 856 120 856 120 968 c 2,44,-1
 120 993 l 1,45,-1
 253 1045 l 1,46,-1
 256 972 l 2,47,48
 258 909 258 909 302 868 c 0,49,50
 348 825 348 825 414 825 c 128,-1,51
 480 825 480 825 526 868 c 128,-1,52
 572 911 572 911 572 971 c 1,53,-1
 568 992 l 1,54,55
 551 1042 551 1042 519 1068 c 1,56,57
 476 1101 476 1101 452 1107 c 0,19,20
EndSplineSet
Validated: 1
EndChar

StartChar: questiondown
Encoding: 191 191 129
Width: 1287
GlyphClass: 2
Flags: W
HStem: 0 185<476.223 805.924> 1250 264<588.191 769.809>
VStem: 150 197<325.889 544> 549 260<1289.71 1474.29> 935 202<321.23 512>
LayerCount: 2
Fore
SplineSet
809 1382 m 128,-1,1
 809 1327 809 1327 771 1288.5 c 128,-1,2
 733 1250 733 1250 679 1250 c 128,-1,3
 625 1250 625 1250 587 1288.5 c 128,-1,4
 549 1327 549 1327 549 1382 c 128,-1,5
 549 1437 549 1437 587 1475.5 c 128,-1,6
 625 1514 625 1514 679 1514 c 128,-1,7
 733 1514 733 1514 771 1475.5 c 128,-1,0
 809 1437 809 1437 809 1382 c 128,-1,1
1137 493 m 1,8,9
 1137 291 1137 291 992 144 c 1,10,11
 847 0 847 0 643 0 c 128,-1,12
 439 0 439 0 294.5 144.5 c 128,-1,13
 150 289 150 289 150 493 c 1,14,-1
 151 534 l 1,15,16
 179 684 179 684 293 798 c 0,17,18
 305 810 305 810 507 994 c 0,19,20
 581 1061 581 1061 585 1114 c 2,21,-1
 586 1127 l 1,22,-1
 779 1220 l 1,23,-1
 779 1095 l 1,24,25
 751 958 751 958 615 844 c 1,26,-1
 585 822 l 1,27,28
 383 654 383 654 355 544 c 1,29,-1
 347 500 l 1,30,31
 347 365 347 365 429 270 c 0,32,33
 503 185 503 185 652 185 c 1,34,35
 787 186 787 186 864 281 c 0,36,37
 935 368 935 368 935 500 c 2,38,-1
 935 512 l 1,39,-1
 1135 590 l 1,40,-1
 1137 493 l 1,8,9
EndSplineSet
Validated: 16385
EndChar

StartChar: Agrave
Encoding: 192 192 130
Width: 1390
GlyphClass: 2
Flags: W
HStem: 0 21G<200.02 243.043 992.09 1036.49> 443 190<400 994> 1320 190<533.376 852.46>
VStem: 201 198<92 436 626 1182.12> 994 196<89 443 633 1176.65>
DStem2: 510 1977 380 1851 0.770645 -0.637264<0 384.967>
LayerCount: 2
Fore
SplineSet
510 1977 m 1,0,-1
 822 1719 l 1,1,-1
 692 1593 l 1,2,-1
 380 1851 l 1,3,-1
 510 1977 l 1,0,-1
200 0 m 1,4,-1
 201 1016 l 2,5,6
 201 1220 201 1220 346 1365 c 256,7,8
 491 1510 491 1510 695 1510 c 0,9,10
 902 1510 902 1510 1044 1365 c 0,11,12
 1188 1218 1188 1218 1188 1016 c 2,13,-1
 1190 89 l 1,14,-1
 992 0 l 1,15,-1
 994 443 l 1,16,-1
 400 436 l 1,17,-1
 398 92 l 1,18,-1
 200 0 l 1,4,-1
399 626 m 1,19,-1
 994 633 l 1,20,-1
 995 1017 l 2,21,22
 995 1147 995 1147 906 1234 c 0,23,24
 818 1320 818 1320 697 1320 c 0,25,26
 695 1320 695 1320 692 1320 c 0,27,28
 560 1320 560 1320 476 1230 c 1,29,30
 399 1139 399 1139 399 1010 c 2,31,-1
 399 626 l 1,19,-1
EndSplineSet
Validated: 1
EndChar

StartChar: Aacute
Encoding: 193 193 131
Width: 1390
GlyphClass: 2
Flags: W
HStem: 0 21G<200.02 243.043 992.09 1036.49> 443 190<400 994> 1320 190<533.376 852.46>
VStem: 201 198<92 436 626 1182.12> 994 196<89 443 633 1176.65>
DStem2: 586 1722 716 1596 0.770645 0.637264<19.8886 404.856>
LayerCount: 2
Fore
SplineSet
898 1980 m 1,0,-1
 1028 1854 l 1,1,-1
 716 1596 l 1,2,-1
 586 1722 l 1,3,-1
 898 1980 l 1,0,-1
200 0 m 1,4,-1
 201 1016 l 2,5,6
 201 1220 201 1220 346 1365 c 256,7,8
 491 1510 491 1510 695 1510 c 0,9,10
 902 1510 902 1510 1044 1365 c 0,11,12
 1188 1218 1188 1218 1188 1016 c 2,13,-1
 1190 89 l 1,14,-1
 992 0 l 1,15,-1
 994 443 l 1,16,-1
 400 436 l 1,17,-1
 398 92 l 1,18,-1
 200 0 l 1,4,-1
399 626 m 1,19,-1
 994 633 l 1,20,-1
 995 1017 l 2,21,22
 995 1147 995 1147 906 1234 c 0,23,24
 818 1320 818 1320 697 1320 c 0,25,26
 695 1320 695 1320 692 1320 c 0,27,28
 560 1320 560 1320 476 1230 c 1,29,30
 399 1139 399 1139 399 1010 c 2,31,-1
 399 626 l 1,19,-1
EndSplineSet
Validated: 1
EndChar

StartChar: Acircumflex
Encoding: 194 194 132
Width: 1390
GlyphClass: 2
Flags: W
HStem: 0 21G<200.02 243.043 992.09 1036.49> 443 190<400 994> 1320 190<533.376 852.46> 1752 234<591 825>
VStem: 201 198<92 436 626 1182.12> 994 196<89 443 633 1176.65>
LayerCount: 2
Fore
SplineSet
708 1752 m 1,0,-1
 526 1602 l 1,1,-1
 396 1728 l 1,2,-1
 708 1986 l 1,3,-1
 1020 1728 l 1,4,-1
 890 1602 l 1,5,-1
 708 1752 l 1,0,-1
200 0 m 1,6,-1
 201 1016 l 2,7,8
 201 1220 201 1220 346 1365 c 256,9,10
 491 1510 491 1510 695 1510 c 0,11,12
 902 1510 902 1510 1044 1365 c 0,13,14
 1188 1218 1188 1218 1188 1016 c 2,15,-1
 1190 89 l 1,16,-1
 992 0 l 1,17,-1
 994 443 l 1,18,-1
 400 436 l 1,19,-1
 398 92 l 1,20,-1
 200 0 l 1,6,-1
399 626 m 1,21,-1
 994 633 l 1,22,-1
 995 1017 l 2,23,24
 995 1147 995 1147 906 1234 c 0,25,26
 818 1320 818 1320 697 1320 c 0,27,28
 695 1320 695 1320 692 1320 c 0,29,30
 560 1320 560 1320 476 1230 c 1,31,32
 399 1139 399 1139 399 1010 c 2,33,-1
 399 626 l 1,21,-1
EndSplineSet
Validated: 1
EndChar

StartChar: Atilde
Encoding: 195 195 133
Width: 1390
GlyphClass: 2
Flags: W
HStem: 0 21G<200.02 243.043 992.09 1036.49> 443 190<400 994> 1320 190<533.376 852.46> 1613 204<818.095 918.253> 1779 185<550.554 677.676>
VStem: 201 198<92 436 626 1182.12> 994 196<89 443 633 1176.65>
DStem2: 672 1938 624 1767 0.859047 -0.511898<0.354202 250.577>
LayerCount: 2
Fore
SplineSet
892 1817 m 1,0,1
 916 1818 916 1818 919 1871 c 0,2,3
 920 1889 920 1889 920 1892 c 1,4,-1
 1122 1964 l 1,5,-1
 1121 1929 l 1,6,-1
 1117 1879 l 2,7,8
 1096 1613 1096 1613 931 1613 c 0,9,10
 893 1613 893 1613 835 1646 c 0,11,12
 651 1750 651 1750 624 1767 c 0,13,14
 600 1782 600 1782 577 1779 c 0,15,16
 553 1776 553 1776 540 1685 c 1,17,-1
 335 1611 l 1,18,-1
 338 1646 l 1,19,-1
 341 1676 l 1,20,21
 368 1964 368 1964 583 1964 c 2,22,-1
 584 1964 l 2,23,24
 626 1964 626 1964 672 1938 c 1,25,-1
 818 1851 l 1,26,27
 880 1818 880 1818 892 1817 c 1,0,1
200 0 m 1,28,-1
 201 1016 l 2,29,30
 201 1220 201 1220 346 1365 c 256,31,32
 491 1510 491 1510 695 1510 c 0,33,34
 902 1510 902 1510 1044 1365 c 0,35,36
 1188 1218 1188 1218 1188 1016 c 2,37,-1
 1190 89 l 1,38,-1
 992 0 l 1,39,-1
 994 443 l 1,40,-1
 400 436 l 1,41,-1
 398 92 l 1,42,-1
 200 0 l 1,28,-1
399 626 m 1,43,-1
 994 633 l 1,44,-1
 995 1017 l 2,45,46
 995 1147 995 1147 906 1234 c 0,47,48
 818 1320 818 1320 697 1320 c 0,49,50
 695 1320 695 1320 692 1320 c 0,51,52
 560 1320 560 1320 476 1230 c 1,53,54
 399 1139 399 1139 399 1010 c 2,55,-1
 399 626 l 1,43,-1
EndSplineSet
Validated: 1
EndChar

StartChar: Adieresis
Encoding: 196 196 134
Width: 1390
GlyphClass: 2
Flags: W
HStem: 0 21G<200.02 243.043 992.09 1036.49> 443 190<400 994> 1320 190<533.376 852.46> 1641 264<394.191 575.809 844.191 1025.81>
VStem: 201 198<92 436 626 1182.12> 355 260<1680.71 1865.29> 805 260<1683.71 1868.29> 994 196<89 443 633 1176.65>
LayerCount: 2
Fore
SplineSet
805 1776 m 128,-1,1
 805 1831 805 1831 843 1869.5 c 128,-1,2
 881 1908 881 1908 935 1908 c 128,-1,3
 989 1908 989 1908 1027 1869.5 c 128,-1,4
 1065 1831 1065 1831 1065 1776 c 128,-1,5
 1065 1721 1065 1721 1027 1682.5 c 128,-1,6
 989 1644 989 1644 935 1644 c 128,-1,7
 881 1644 881 1644 843 1682.5 c 128,-1,0
 805 1721 805 1721 805 1776 c 128,-1,1
355 1773 m 128,-1,9
 355 1828 355 1828 393 1866.5 c 128,-1,10
 431 1905 431 1905 485 1905 c 128,-1,11
 539 1905 539 1905 577 1866.5 c 128,-1,12
 615 1828 615 1828 615 1773 c 128,-1,13
 615 1718 615 1718 577 1679.5 c 128,-1,14
 539 1641 539 1641 485 1641 c 128,-1,15
 431 1641 431 1641 393 1679.5 c 128,-1,8
 355 1718 355 1718 355 1773 c 128,-1,9
200 0 m 1,16,-1
 201 1016 l 2,17,18
 201 1220 201 1220 346 1365 c 256,19,20
 491 1510 491 1510 695 1510 c 0,21,22
 902 1510 902 1510 1044 1365 c 0,23,24
 1188 1218 1188 1218 1188 1016 c 2,25,-1
 1190 89 l 1,26,-1
 992 0 l 1,27,-1
 994 443 l 1,28,-1
 400 436 l 1,29,-1
 398 92 l 1,30,-1
 200 0 l 1,16,-1
399 626 m 1,31,-1
 994 633 l 1,32,-1
 995 1017 l 2,33,34
 995 1147 995 1147 906 1234 c 0,35,36
 818 1320 818 1320 697 1320 c 0,37,38
 695 1320 695 1320 692 1320 c 0,39,40
 560 1320 560 1320 476 1230 c 1,41,42
 399 1139 399 1139 399 1010 c 2,43,-1
 399 626 l 1,31,-1
EndSplineSet
Validated: 1
EndChar

StartChar: Aring
Encoding: 197 197 135
Width: 1390
GlyphClass: 2
Flags: W
HStem: 0 21G<200.02 243.043 992.09 1036.49> 443 190<400 994> 1320 190<533.376 852.46> 1607 141<616.808 769.366> 1937 142<609.25 768.975>
VStem: 201 198<92 436 626 1182.12> 446 148<1770.34 1923.17> 792 152<1769.89 1914.83> 994 196<89 443 633 1176.65>
LayerCount: 2
Fore
SplineSet
685 1937 m 0,0,1
 649 1937 649 1937 622 1909 c 0,2,3
 594 1880 594 1880 594 1843 c 0,4,5
 594 1804 594 1804 623 1776 c 128,-1,6
 652 1748 652 1748 693 1748 c 128,-1,7
 734 1748 734 1748 763 1775.5 c 128,-1,8
 792 1803 792 1803 792 1842 c 0,9,10
 792 1878 792 1878 763 1909 c 0,11,12
 737 1937 737 1937 685 1937 c 0,0,1
446 1850 m 0,13,14
 446 1910 446 1910 479 1961 c 0,15,16
 515 2017 515 2017 570 2047 c 1,17,18
 626 2079 626 2079 695 2079 c 0,19,20
 759 2079 759 2079 820 2047 c 0,21,22
 865 2024 865 2024 907 1960 c 0,23,24
 944 1903 944 1903 944 1837 c 0,25,26
 944 1777 944 1777 911 1725 c 0,27,28
 875 1669 875 1669 820 1638 c 128,-1,29
 765 1607 765 1607 695 1607 c 0,30,31
 634 1607 634 1607 570 1639 c 0,32,33
 507 1671 507 1671 474 1723 c 0,34,35
 446 1768 446 1768 446 1850 c 0,13,14
200 0 m 1,36,-1
 201 1016 l 2,37,38
 201 1220 201 1220 346 1365 c 256,39,40
 491 1510 491 1510 695 1510 c 0,41,42
 902 1510 902 1510 1044 1365 c 0,43,44
 1188 1218 1188 1218 1188 1016 c 2,45,-1
 1190 89 l 1,46,-1
 992 0 l 1,47,-1
 994 443 l 1,48,-1
 400 436 l 1,49,-1
 398 92 l 1,50,-1
 200 0 l 1,36,-1
399 626 m 1,51,-1
 994 633 l 1,52,-1
 995 1017 l 2,53,54
 995 1147 995 1147 906 1234 c 0,55,56
 818 1320 818 1320 697 1320 c 0,57,58
 695 1320 695 1320 692 1320 c 0,59,60
 560 1320 560 1320 476 1230 c 1,61,62
 399 1139 399 1139 399 1010 c 2,63,-1
 399 626 l 1,51,-1
EndSplineSet
Validated: 1
EndChar

StartChar: AE
Encoding: 198 198 136
Width: 1930
GlyphClass: 2
Flags: W
HStem: 0 21G<200.02 243.043> 22 192<1190 1788> 665 190<400 992 1189 1678> 1300 191<1190 1688> 1320 190<533.376 853.89>
VStem: 201 198<92 665 855 1182.5> 992 197<214 664 856 1184.28>
LayerCount: 2
Fore
SplineSet
992 22 m 1,0,-1
 992 665 l 1,1,-1
 400 665 l 1,2,-1
 398 92 l 1,3,-1
 200 0 l 1,4,-1
 201 1016 l 2,5,6
 201 1220 201 1220 346 1365 c 128,-1,7
 491 1510 491 1510 695 1510 c 0,8,9
 871 1510 871 1510 1000 1405 c 1,10,-1
 1190 1491 l 1,11,-1
 1774 1490 l 1,12,-1
 1688 1302 l 1,13,-1
 1188 1300 l 1,14,-1
 1189 856 l 1,15,-1
 1770 856 l 1,16,-1
 1678 666 l 1,17,-1
 1189 664 l 1,18,-1
 1190 214 l 1,19,-1
 1880 214 l 1,20,-1
 1788 22 l 1,21,-1
 992 22 l 1,0,-1
992 1063 m 1,22,23
 979 1163 979 1163 906 1234 c 0,24,25
 818 1320 818 1320 697 1320 c 2,26,-1
 692 1320 l 2,27,28
 560 1320 560 1320 476 1230 c 1,29,30
 399 1140 399 1140 399 1010 c 2,31,-1
 399 855 l 1,32,-1
 992 855 l 1,33,-1
 992 1063 l 1,22,23
EndSplineSet
Validated: 1
EndChar

StartChar: Ccedilla
Encoding: 199 199 137
Width: 1388
GlyphClass: 2
Flags: W
HStem: -399 21G<657.615 695.361> 1326 184<536.879 840.016>
VStem: 200 198<332.376 1183.21> 986 202<332.375 500 992 1188.12>
LayerCount: 2
Fore
SplineSet
988 898 m 1,0,-1
 986 1010 l 2,1,2
 983 1158 983 1158 910 1228 c 0,3,4
 807 1326 807 1326 694 1326 c 0,5,6
 560 1326 560 1326 474 1230 c 0,7,8
 398 1145 398 1145 398 1010 c 2,9,-1
 398 500 l 2,10,11
 398 368 398 368 476 284 c 0,12,13
 559 194 559 194 692 194 c 0,14,15
 821 194 821 194 910 290 c 0,16,17
 983 368 983 368 986 500 c 1,18,-1
 1188 594 l 1,19,-1
 1187 494 l 2,20,21
 1185 288 1185 288 1043 145 c 0,22,23
 917 18 917 18 744 2 c 1,24,-1
 901 -155 l 1,25,-1
 677 -399 l 1,26,-1
 551 -269 l 1,27,-1
 667 -155 l 1,28,-1
 577 -63 l 1,29,-1
 643 2 l 1,30,31
 472 18 472 18 345 145 c 0,32,33
 200 290 200 290 200 494 c 2,34,-1
 201 1016 l 2,35,36
 201 1220 201 1220 346 1365 c 0,37,38
 490 1510 490 1510 694 1510 c 128,-1,39
 898 1510 898 1510 1043 1365 c 128,-1,40
 1188 1220 1188 1220 1188 1016 c 2,41,-1
 1188 992 l 1,42,-1
 988 898 l 1,0,-1
EndSplineSet
Validated: 1
EndChar

StartChar: Egrave
Encoding: 200 200 138
Width: 1138
GlyphClass: 2
Flags: W
HStem: 22 192<396 996> 664 192<397 886> 1300 191<398 896>
VStem: 200 196<214 664 856 1300>
DStem2: 510 1977 380 1851 0.770645 -0.637264<0 384.967>
LayerCount: 2
Fore
SplineSet
510 1977 m 1,0,-1
 822 1719 l 1,1,-1
 692 1593 l 1,2,-1
 380 1851 l 1,3,-1
 510 1977 l 1,0,-1
396 1300 m 1,4,-1
 397 856 l 1,5,-1
 978 856 l 1,6,-1
 886 666 l 1,7,-1
 396 664 l 1,8,-1
 396 214 l 1,9,-1
 1088 214 l 1,10,-1
 996 22 l 1,11,-1
 200 22 l 1,12,-1
 200 1402 l 1,13,-1
 398 1491 l 1,14,-1
 982 1490 l 1,15,-1
 896 1302 l 1,16,-1
 396 1300 l 1,4,-1
EndSplineSet
Validated: 1
EndChar

StartChar: Eacute
Encoding: 201 201 139
Width: 1138
GlyphClass: 2
Flags: W
HStem: 22 192<396 996> 664 192<397 886> 1300 191<398 896>
VStem: 200 196<214 664 856 1300>
DStem2: 586 1722 716 1596 0.770645 0.637264<19.8886 404.856>
LayerCount: 2
Fore
SplineSet
898 1980 m 1,0,-1
 1028 1854 l 1,1,-1
 716 1596 l 1,2,-1
 586 1722 l 1,3,-1
 898 1980 l 1,0,-1
396 1300 m 1,4,-1
 397 856 l 1,5,-1
 978 856 l 1,6,-1
 886 666 l 1,7,-1
 396 664 l 1,8,-1
 396 214 l 1,9,-1
 1088 214 l 1,10,-1
 996 22 l 1,11,-1
 200 22 l 1,12,-1
 200 1402 l 1,13,-1
 398 1491 l 1,14,-1
 982 1490 l 1,15,-1
 896 1302 l 1,16,-1
 396 1300 l 1,4,-1
EndSplineSet
Validated: 1
EndChar

StartChar: Ecircumflex
Encoding: 202 202 140
Width: 1138
GlyphClass: 2
Flags: W
HStem: 22 192<396 996> 664 192<397 886> 1300 191<398 896> 1752 234<591 825>
VStem: 200 196<214 664 856 1300>
LayerCount: 2
Fore
SplineSet
708 1752 m 1,0,-1
 526 1602 l 1,1,-1
 396 1728 l 1,2,-1
 708 1986 l 1,3,-1
 1020 1728 l 1,4,-1
 890 1602 l 1,5,-1
 708 1752 l 1,0,-1
396 1300 m 1,6,-1
 397 856 l 1,7,-1
 978 856 l 1,8,-1
 886 666 l 1,9,-1
 396 664 l 1,10,-1
 396 214 l 1,11,-1
 1088 214 l 1,12,-1
 996 22 l 1,13,-1
 200 22 l 1,14,-1
 200 1402 l 1,15,-1
 398 1491 l 1,16,-1
 982 1490 l 1,17,-1
 896 1302 l 1,18,-1
 396 1300 l 1,6,-1
EndSplineSet
Validated: 1
EndChar

StartChar: Edieresis
Encoding: 203 203 141
Width: 1138
GlyphClass: 2
Flags: W
HStem: 22 192<396 996> 664 192<397 886> 1300 191<398 896> 1641 264<394.191 575.809 844.191 1025.81>
VStem: 200 196<214 664 856 1300> 355 260<1680.71 1865.29> 805 260<1683.71 1868.29>
LayerCount: 2
Fore
SplineSet
805 1776 m 128,-1,1
 805 1831 805 1831 843 1869.5 c 128,-1,2
 881 1908 881 1908 935 1908 c 128,-1,3
 989 1908 989 1908 1027 1869.5 c 128,-1,4
 1065 1831 1065 1831 1065 1776 c 128,-1,5
 1065 1721 1065 1721 1027 1682.5 c 128,-1,6
 989 1644 989 1644 935 1644 c 128,-1,7
 881 1644 881 1644 843 1682.5 c 128,-1,0
 805 1721 805 1721 805 1776 c 128,-1,1
355 1773 m 128,-1,9
 355 1828 355 1828 393 1866.5 c 128,-1,10
 431 1905 431 1905 485 1905 c 128,-1,11
 539 1905 539 1905 577 1866.5 c 128,-1,12
 615 1828 615 1828 615 1773 c 128,-1,13
 615 1718 615 1718 577 1679.5 c 128,-1,14
 539 1641 539 1641 485 1641 c 128,-1,15
 431 1641 431 1641 393 1679.5 c 128,-1,8
 355 1718 355 1718 355 1773 c 128,-1,9
396 1300 m 1,16,-1
 397 856 l 1,17,-1
 978 856 l 1,18,-1
 886 666 l 1,19,-1
 396 664 l 1,20,-1
 396 214 l 1,21,-1
 1088 214 l 1,22,-1
 996 22 l 1,23,-1
 200 22 l 1,24,-1
 200 1402 l 1,25,-1
 398 1491 l 1,26,-1
 982 1490 l 1,27,-1
 896 1302 l 1,28,-1
 396 1300 l 1,16,-1
EndSplineSet
Validated: 1
EndChar

StartChar: Igrave
Encoding: 204 204 142
Width: 637
GlyphClass: 2
Flags: W
HStem: 0 21G<212 255.043> 1491 20G<365.506 410>
VStem: 212 198<92 1422>
DStem2: 135 1983 5 1857 0.770645 -0.637264<0 384.967>
LayerCount: 2
Fore
SplineSet
135 1983 m 1,0,-1
 447 1725 l 1,1,-1
 317 1599 l 1,2,-1
 5 1857 l 1,3,-1
 135 1983 l 1,0,-1
410 92 m 1,4,-1
 212 0 l 1,5,-1
 212 1422 l 1,6,-1
 410 1511 l 1,7,-1
 410 92 l 1,4,-1
EndSplineSet
Validated: 1
EndChar

StartChar: Iacute
Encoding: 205 205 143
Width: 637
GlyphClass: 2
Flags: W
HStem: 0 21G<224 267.043> 1491 20G<377.506 422>
VStem: 224 198<92 1422>
DStem2: 190 1725 320 1599 0.770645 0.637264<19.8886 404.856>
LayerCount: 2
Fore
SplineSet
502 1983 m 1,0,-1
 632 1857 l 1,1,-1
 320 1599 l 1,2,-1
 190 1725 l 1,3,-1
 502 1983 l 1,0,-1
422 92 m 1,4,-1
 224 0 l 1,5,-1
 224 1422 l 1,6,-1
 422 1511 l 1,7,-1
 422 92 l 1,4,-1
EndSplineSet
Validated: 1
EndChar

StartChar: Icircumflex
Encoding: 206 206 144
Width: 634
GlyphClass: 2
Flags: W
HStem: 0 21G<214 257.043> 1491 20G<367.506 412> 1755 234<200 434>
VStem: 214 198<92 1422>
LayerCount: 2
Fore
SplineSet
317 1755 m 1,0,-1
 135 1605 l 1,1,-1
 5 1731 l 1,2,-1
 317 1989 l 1,3,-1
 629 1731 l 1,4,-1
 499 1605 l 1,5,-1
 317 1755 l 1,0,-1
412 92 m 1,6,-1
 214 0 l 1,7,-1
 214 1422 l 1,8,-1
 412 1511 l 1,9,-1
 412 92 l 1,6,-1
EndSplineSet
Validated: 1
EndChar

StartChar: Idieresis
Encoding: 207 207 145
Width: 720
GlyphClass: 2
Flags: W
HStem: 0 21G<258 301.043> 1491 20G<411.506 456> 1647 264<44.1914 225.809 494.191 675.809>
VStem: 5 260<1686.71 1871.29> 258 198<92 1422> 455 260<1689.71 1874.29>
LayerCount: 2
Fore
SplineSet
455 1782 m 128,-1,1
 455 1837 455 1837 493 1875.5 c 128,-1,2
 531 1914 531 1914 585 1914 c 128,-1,3
 639 1914 639 1914 677 1875.5 c 128,-1,4
 715 1837 715 1837 715 1782 c 128,-1,5
 715 1727 715 1727 677 1688.5 c 128,-1,6
 639 1650 639 1650 585 1650 c 128,-1,7
 531 1650 531 1650 493 1688.5 c 128,-1,0
 455 1727 455 1727 455 1782 c 128,-1,1
5 1779 m 128,-1,9
 5 1834 5 1834 43 1872.5 c 128,-1,10
 81 1911 81 1911 135 1911 c 128,-1,11
 189 1911 189 1911 227 1872.5 c 128,-1,12
 265 1834 265 1834 265 1779 c 128,-1,13
 265 1724 265 1724 227 1685.5 c 128,-1,14
 189 1647 189 1647 135 1647 c 128,-1,15
 81 1647 81 1647 43 1685.5 c 128,-1,8
 5 1724 5 1724 5 1779 c 128,-1,9
456 92 m 1,16,-1
 258 0 l 1,17,-1
 258 1422 l 1,18,-1
 456 1511 l 1,19,-1
 456 92 l 1,16,-1
EndSplineSet
Validated: 1
EndChar

StartChar: Eth
Encoding: 208 208 146
Width: 1408
GlyphClass: 2
Flags: W
HStem: 20 190<396 891.051> 618 198<95 200 396 764> 1302 193<398 895.682>
VStem: 200 196<210 618 816 1302> 1012 196<342.352 1177.62>
LayerCount: 2
Fore
SplineSet
714 21 m 2,0,-1
 200 20 l 1,1,-1
 200 618 l 1,2,-1
 5 618 l 1,3,-1
 95 816 l 1,4,-1
 200 816 l 1,5,-1
 200 1407 l 1,6,-1
 398 1496 l 1,7,-1
 398 1495 l 1,8,-1
 714 1493 l 2,9,10
 936 1492 936 1492 1063 1365 c 0,11,12
 1208 1220 1208 1220 1208 1016 c 2,13,-1
 1207 494 l 1,14,15
 1204 287 1204 287 1063 146 c 0,16,17
 938 21 938 21 714 21 c 2,0,-1
707 1303 m 2,18,-1
 396 1302 l 1,19,-1
 396 816 l 1,20,-1
 856 816 l 1,21,-1
 764 618 l 1,22,-1
 396 618 l 1,23,-1
 396 210 l 1,24,-1
 707 210 l 2,25,26
 859 210 859 210 924 280 c 0,27,28
 1008 371 1008 371 1010 494 c 1,29,-1
 1012 1015 l 1,30,-1
 1012 1018 l 2,31,32
 1012 1147 1012 1147 918 1240 c 0,33,34
 854 1303 854 1303 707 1303 c 2,18,-1
EndSplineSet
Validated: 1
EndChar

StartChar: Ntilde
Encoding: 209 209 147
Width: 1388
GlyphClass: 2
Flags: W
HStem: 0 21G<200.02 243.043 990 1034.04> 1324 186<538.987 850.511> 1613 204<818.095 918.253> 1779 185<550.554 677.676>
VStem: 200 198<92 1182.78> 990 196<89 1178.6>
DStem2: 672 1938 624 1767 0.859047 -0.511898<0.354202 250.577>
LayerCount: 2
Fore
SplineSet
892 1817 m 1,0,1
 916 1818 916 1818 919 1871 c 0,2,3
 920 1889 920 1889 920 1892 c 1,4,-1
 1122 1964 l 1,5,-1
 1121 1929 l 1,6,-1
 1117 1879 l 2,7,8
 1096 1613 1096 1613 931 1613 c 0,9,10
 893 1613 893 1613 835 1646 c 0,11,12
 651 1750 651 1750 624 1767 c 0,13,14
 600 1782 600 1782 577 1779 c 0,15,16
 553 1776 553 1776 540 1685 c 1,17,-1
 335 1611 l 1,18,-1
 338 1646 l 1,19,-1
 341 1676 l 1,20,21
 368 1964 368 1964 583 1964 c 2,22,-1
 584 1964 l 2,23,24
 626 1964 626 1964 672 1938 c 1,25,-1
 818 1851 l 1,26,27
 880 1818 880 1818 892 1817 c 1,0,1
200 0 m 1,28,-1
 201 1016 l 2,29,30
 201 1220 201 1220 346 1365 c 256,31,32
 491 1510 491 1510 695 1510 c 128,-1,33
 899 1510 899 1510 1044 1365 c 0,34,35
 1188 1222 1188 1222 1188 1016 c 2,36,-1
 1186 89 l 1,37,-1
 990 0 l 1,38,-1
 990 1018 l 2,39,40
 990 1142 990 1142 904 1234 c 0,41,42
 820 1324 820 1324 695 1324 c 2,43,-1
 692 1324 l 1,44,45
 566 1323 566 1323 480 1232 c 0,46,47
 399 1146 399 1146 399 1010 c 2,48,-1
 398 92 l 1,49,-1
 200 0 l 1,28,-1
EndSplineSet
Validated: 1
EndChar

StartChar: Ograve
Encoding: 210 210 148
Width: 1388
GlyphClass: 2
Flags: W
HStem: 0 188<542.447 844.717> 1322 188<538.07 855.624>
VStem: 200 198<337.987 1177.62> 986 201<330.912 1188.76>
DStem2: 510 1977 380 1851 0.770645 -0.637264<0 384.967>
LayerCount: 2
Fore
SplineSet
510 1977 m 1,0,-1
 822 1719 l 1,1,-1
 692 1593 l 1,2,-1
 380 1851 l 1,3,-1
 510 1977 l 1,0,-1
398 500 m 2,4,5
 398 377 398 377 484 282.5 c 128,-1,6
 570 188 570 188 692 188 c 0,7,8
 818 188 818 188 908 284 c 0,9,10
 983 363 983 363 986 500 c 1,11,-1
 986 1010 l 2,12,13
 986 1149 986 1149 910 1232 c 0,14,15
 828 1322 828 1322 704 1322 c 0,16,17
 699 1322 699 1322 693 1322 c 0,18,19
 558 1319 558 1319 476 1226 c 0,20,21
 398 1137 398 1137 398 1010 c 2,22,-1
 398 500 l 2,4,5
200 494 m 2,23,-1
 201 1016 l 2,24,25
 201 1220 201 1220 345.5 1365 c 128,-1,26
 490 1510 490 1510 694 1510 c 128,-1,27
 898 1510 898 1510 1043 1365 c 256,28,29
 1188 1220 1188 1220 1188 1016 c 2,30,-1
 1187 494 l 1,31,32
 1184 287 1184 287 1043 145 c 0,33,34
 898 0 898 0 694 0 c 128,-1,35
 490 0 490 0 345 145 c 128,-1,36
 200 290 200 290 200 494 c 2,23,-1
EndSplineSet
Validated: 1
EndChar

StartChar: Oacute
Encoding: 211 211 149
Width: 1388
GlyphClass: 2
Flags: W
HStem: 0 188<542.447 844.717> 1322 188<538.07 855.624>
VStem: 200 198<337.987 1177.62> 986 201<330.912 1188.76>
DStem2: 586 1722 716 1596 0.770645 0.637264<19.8886 404.856>
LayerCount: 2
Fore
SplineSet
398 500 m 2,0,1
 398 377 398 377 484 282.5 c 128,-1,2
 570 188 570 188 692 188 c 0,3,4
 818 188 818 188 908 284 c 0,5,6
 983 363 983 363 986 500 c 1,7,-1
 986 1010 l 2,8,9
 986 1149 986 1149 910 1232 c 0,10,11
 828 1322 828 1322 704 1322 c 0,12,13
 699 1322 699 1322 693 1322 c 0,14,15
 558 1319 558 1319 476 1226 c 0,16,17
 398 1137 398 1137 398 1010 c 2,18,-1
 398 500 l 2,0,1
200 494 m 2,19,-1
 201 1016 l 2,20,21
 201 1220 201 1220 345.5 1365 c 128,-1,22
 490 1510 490 1510 694 1510 c 128,-1,23
 898 1510 898 1510 1043 1365 c 256,24,25
 1188 1220 1188 1220 1188 1016 c 2,26,-1
 1187 494 l 1,27,28
 1184 287 1184 287 1043 145 c 0,29,30
 898 0 898 0 694 0 c 128,-1,31
 490 0 490 0 345 145 c 128,-1,32
 200 290 200 290 200 494 c 2,19,-1
898 1980 m 1,33,-1
 1028 1854 l 1,34,-1
 716 1596 l 1,35,-1
 586 1722 l 1,36,-1
 898 1980 l 1,33,-1
EndSplineSet
Validated: 1
EndChar

StartChar: Ocircumflex
Encoding: 212 212 150
Width: 1388
GlyphClass: 2
Flags: W
HStem: 0 188<542.447 844.717> 1322 188<538.07 855.624> 1752 234<591 825>
VStem: 200 198<337.987 1177.62> 986 201<330.912 1188.76>
LayerCount: 2
Fore
SplineSet
708 1752 m 1,0,-1
 526 1602 l 1,1,-1
 396 1728 l 1,2,-1
 708 1986 l 1,3,-1
 1020 1728 l 1,4,-1
 890 1602 l 1,5,-1
 708 1752 l 1,0,-1
398 500 m 2,6,7
 398 377 398 377 484 282.5 c 128,-1,8
 570 188 570 188 692 188 c 0,9,10
 818 188 818 188 908 284 c 0,11,12
 983 363 983 363 986 500 c 1,13,-1
 986 1010 l 2,14,15
 986 1149 986 1149 910 1232 c 0,16,17
 828 1322 828 1322 704 1322 c 0,18,19
 699 1322 699 1322 693 1322 c 0,20,21
 558 1319 558 1319 476 1226 c 0,22,23
 398 1137 398 1137 398 1010 c 2,24,-1
 398 500 l 2,6,7
200 494 m 2,25,-1
 201 1016 l 2,26,27
 201 1220 201 1220 345.5 1365 c 128,-1,28
 490 1510 490 1510 694 1510 c 128,-1,29
 898 1510 898 1510 1043 1365 c 256,30,31
 1188 1220 1188 1220 1188 1016 c 2,32,-1
 1187 494 l 1,33,34
 1184 287 1184 287 1043 145 c 0,35,36
 898 0 898 0 694 0 c 128,-1,37
 490 0 490 0 345 145 c 128,-1,38
 200 290 200 290 200 494 c 2,25,-1
EndSplineSet
Validated: 1
EndChar

StartChar: Otilde
Encoding: 213 213 151
Width: 1388
GlyphClass: 2
Flags: W
HStem: 0 188<542.447 844.717> 1322 188<538.07 855.624> 1613 204<818.095 918.253> 1779 185<550.554 677.676>
VStem: 200 198<337.987 1177.62> 986 201<330.912 1188.76>
DStem2: 672 1938 624 1767 0.859047 -0.511898<0.354202 250.577>
LayerCount: 2
Fore
SplineSet
892 1817 m 1,0,1
 916 1818 916 1818 919 1871 c 0,2,3
 920 1889 920 1889 920 1892 c 1,4,-1
 1122 1964 l 1,5,-1
 1121 1929 l 1,6,-1
 1117 1879 l 2,7,8
 1096 1613 1096 1613 931 1613 c 0,9,10
 893 1613 893 1613 835 1646 c 0,11,12
 651 1750 651 1750 624 1767 c 0,13,14
 600 1782 600 1782 577 1779 c 0,15,16
 553 1776 553 1776 540 1685 c 1,17,-1
 335 1611 l 1,18,-1
 338 1646 l 1,19,-1
 341 1676 l 1,20,21
 368 1964 368 1964 583 1964 c 2,22,-1
 584 1964 l 2,23,24
 626 1964 626 1964 672 1938 c 1,25,-1
 818 1851 l 1,26,27
 880 1818 880 1818 892 1817 c 1,0,1
398 500 m 2,28,29
 398 377 398 377 484 282.5 c 128,-1,30
 570 188 570 188 692 188 c 0,31,32
 818 188 818 188 908 284 c 0,33,34
 983 363 983 363 986 500 c 1,35,-1
 986 1010 l 2,36,37
 986 1149 986 1149 910 1232 c 0,38,39
 828 1322 828 1322 704 1322 c 0,40,41
 699 1322 699 1322 693 1322 c 0,42,43
 558 1319 558 1319 476 1226 c 0,44,45
 398 1137 398 1137 398 1010 c 2,46,-1
 398 500 l 2,28,29
200 494 m 2,47,-1
 201 1016 l 2,48,49
 201 1220 201 1220 345.5 1365 c 128,-1,50
 490 1510 490 1510 694 1510 c 128,-1,51
 898 1510 898 1510 1043 1365 c 256,52,53
 1188 1220 1188 1220 1188 1016 c 2,54,-1
 1187 494 l 1,55,56
 1184 287 1184 287 1043 145 c 0,57,58
 898 0 898 0 694 0 c 128,-1,59
 490 0 490 0 345 145 c 128,-1,60
 200 290 200 290 200 494 c 2,47,-1
EndSplineSet
Validated: 1
EndChar

StartChar: Odieresis
Encoding: 214 214 152
Width: 1388
GlyphClass: 2
Flags: W
HStem: 0 188<542.447 844.717> 1322 188<538.07 855.624> 1641 264<394.191 575.809 844.191 1025.81>
VStem: 200 198<337.987 1177.62> 355 260<1680.71 1865.29> 805 260<1683.71 1868.29> 986 201<330.912 1188.76>
LayerCount: 2
Fore
SplineSet
805 1776 m 128,-1,1
 805 1831 805 1831 843 1869.5 c 128,-1,2
 881 1908 881 1908 935 1908 c 128,-1,3
 989 1908 989 1908 1027 1869.5 c 128,-1,4
 1065 1831 1065 1831 1065 1776 c 128,-1,5
 1065 1721 1065 1721 1027 1682.5 c 128,-1,6
 989 1644 989 1644 935 1644 c 128,-1,7
 881 1644 881 1644 843 1682.5 c 128,-1,0
 805 1721 805 1721 805 1776 c 128,-1,1
355 1773 m 128,-1,9
 355 1828 355 1828 393 1866.5 c 128,-1,10
 431 1905 431 1905 485 1905 c 128,-1,11
 539 1905 539 1905 577 1866.5 c 128,-1,12
 615 1828 615 1828 615 1773 c 128,-1,13
 615 1718 615 1718 577 1679.5 c 128,-1,14
 539 1641 539 1641 485 1641 c 128,-1,15
 431 1641 431 1641 393 1679.5 c 128,-1,8
 355 1718 355 1718 355 1773 c 128,-1,9
398 500 m 2,16,17
 398 377 398 377 484 282.5 c 128,-1,18
 570 188 570 188 692 188 c 0,19,20
 818 188 818 188 908 284 c 0,21,22
 983 363 983 363 986 500 c 1,23,-1
 986 1010 l 2,24,25
 986 1149 986 1149 910 1232 c 0,26,27
 828 1322 828 1322 704 1322 c 0,28,29
 699 1322 699 1322 693 1322 c 0,30,31
 558 1319 558 1319 476 1226 c 0,32,33
 398 1137 398 1137 398 1010 c 2,34,-1
 398 500 l 2,16,17
200 494 m 2,35,-1
 201 1016 l 2,36,37
 201 1220 201 1220 345.5 1365 c 128,-1,38
 490 1510 490 1510 694 1510 c 128,-1,39
 898 1510 898 1510 1043 1365 c 256,40,41
 1188 1220 1188 1220 1188 1016 c 2,42,-1
 1187 494 l 1,43,44
 1184 287 1184 287 1043 145 c 0,45,46
 898 0 898 0 694 0 c 128,-1,47
 490 0 490 0 345 145 c 128,-1,48
 200 290 200 290 200 494 c 2,35,-1
EndSplineSet
Validated: 1
EndChar

StartChar: multiply
Encoding: 215 215 153
Width: 1092
GlyphClass: 2
Flags: W
HStem: 366 666
VStem: 406 280<559 839>
DStem2: 354 1032 150 955 0.707107 -0.707107<0 272.236 470.226 741.048> 150 443 354 366 0.707107 0.707107<89.8026 362.039 560.029 830.85>
LayerCount: 2
Fore
SplineSet
354 366 m 1,0,-1
 150 443 l 1,1,-1
 406 699 l 1,2,-1
 150 955 l 1,3,-1
 354 1032 l 1,4,-1
 546 839 l 1,5,-1
 738 1030 l 1,6,-1
 943 955 l 1,7,-1
 686 699 l 1,8,-1
 943 443 l 1,9,-1
 738 368 l 1,10,-1
 546 559 l 1,11,-1
 354 366 l 1,0,-1
EndSplineSet
Validated: 16385
EndChar

StartChar: Oslash
Encoding: 216 216 154
Width: 1388
GlyphClass: 2
Flags: W
HStem: 0 188<571.572 844.496> 1322 188<538.07 822.969>
VStem: 200 198<378.453 1177.62> 986 201<330.425 1129.31>
DStem2: 237 -54 416 -138 0.399126 0.916896<0 191.403 467.586 1378.28 1657.69 1823.42>
LayerCount: 2
Fore
SplineSet
200 494 m 2,0,-1
 201 1016 l 2,1,2
 201 1220 201 1220 345.5 1365 c 128,-1,3
 490 1510 490 1510 694 1510 c 0,4,5
 805 1510 805 1510 899 1467 c 1,6,-1
 966 1621 l 1,7,-1
 1146 1539 l 1,8,-1
 1062 1345 l 1,9,10
 1188 1206 1188 1206 1188 1016 c 2,11,-1
 1187 494 l 1,12,13
 1184 286 1184 286 1043 145 c 0,14,15
 898 0 898 0 694 0 c 0,16,17
 586 0 586 0 494 41 c 1,18,-1
 416 -138 l 1,19,-1
 237 -54 l 1,20,-1
 330 160 l 1,21,22
 200 301 200 301 200 494 c 2,0,-1
968 1131 m 1,23,-1
 570 216 l 1,24,25
 626 188 626 188 692 188 c 0,26,27
 817 188 817 188 908 284 c 0,28,29
 983 364 983 364 986 500 c 1,30,-1
 986 1010 l 2,31,32
 986 1077 986 1077 968 1131 c 1,23,-1
825 1296 m 1,33,34
 770 1322 770 1322 704 1322 c 2,35,-1
 693 1322 l 1,36,37
 558 1319 558 1319 476 1226 c 0,38,39
 398 1137 398 1137 398 1010 c 2,40,-1
 398 500 l 2,41,42
 398 433 398 433 423 375 c 1,43,-1
 825 1296 l 1,33,34
EndSplineSet
Validated: 1
EndChar

StartChar: Ugrave
Encoding: 217 217 155
Width: 1390
GlyphClass: 2
Flags: W
HStem: -2 196<540.37 852.588> 1492 20G<353.391 396 1146 1189.98>
VStem: 202 194<341.628 1420> 992 197<330.396 1422>
DStem2: 510 1977 380 1851 0.770645 -0.637264<0 384.967>
LayerCount: 2
Fore
SplineSet
510 1977 m 1,0,-1
 822 1719 l 1,1,-1
 692 1593 l 1,2,-1
 380 1851 l 1,3,-1
 510 1977 l 1,0,-1
1190 1512 m 1,4,-1
 1189 492 l 2,5,6
 1189 288 1189 288 1044 143 c 128,-1,7
 899 -2 899 -2 696 -2 c 0,8,9
 492 -2 492 -2 347 143 c 256,10,11
 202 288 202 288 202 492 c 2,12,-1
 200 1420 l 1,13,-1
 396 1512 l 1,14,-1
 396 496 l 2,15,16
 396 373 396 373 485 283.5 c 128,-1,17
 574 194 574 194 696 194 c 128,-1,18
 818 194 818 194 906 280 c 1,19,20
 992 362 992 362 992 498 c 2,21,-1
 992 1422 l 1,22,-1
 1190 1512 l 1,4,-1
EndSplineSet
Validated: 1
EndChar

StartChar: Uacute
Encoding: 218 218 156
Width: 1390
GlyphClass: 2
Flags: W
HStem: -2 196<540.37 852.588> 1492 20G<353.391 396 1146 1189.98>
VStem: 202 194<341.628 1420> 992 197<330.396 1422>
DStem2: 586 1722 716 1596 0.770645 0.637264<19.8886 404.856>
LayerCount: 2
Fore
SplineSet
898 1980 m 1,0,-1
 1028 1854 l 1,1,-1
 716 1596 l 1,2,-1
 586 1722 l 1,3,-1
 898 1980 l 1,0,-1
1190 1512 m 1,4,-1
 1189 492 l 2,5,6
 1189 288 1189 288 1044 143 c 128,-1,7
 899 -2 899 -2 696 -2 c 0,8,9
 492 -2 492 -2 347 143 c 256,10,11
 202 288 202 288 202 492 c 2,12,-1
 200 1420 l 1,13,-1
 396 1512 l 1,14,-1
 396 496 l 2,15,16
 396 373 396 373 485 283.5 c 128,-1,17
 574 194 574 194 696 194 c 128,-1,18
 818 194 818 194 906 280 c 1,19,20
 992 362 992 362 992 498 c 2,21,-1
 992 1422 l 1,22,-1
 1190 1512 l 1,4,-1
EndSplineSet
Validated: 1
EndChar

StartChar: Ucircumflex
Encoding: 219 219 157
Width: 1390
GlyphClass: 2
Flags: W
HStem: -2 196<540.37 852.588> 1492 20G<353.391 396 1146 1189.98> 1752 234<591 825>
VStem: 202 194<341.628 1420> 992 197<330.396 1422>
LayerCount: 2
Fore
SplineSet
708 1752 m 1,0,-1
 526 1602 l 1,1,-1
 396 1728 l 1,2,-1
 708 1986 l 1,3,-1
 1020 1728 l 1,4,-1
 890 1602 l 1,5,-1
 708 1752 l 1,0,-1
1190 1512 m 1,6,-1
 1189 492 l 2,7,8
 1189 288 1189 288 1044 143 c 128,-1,9
 899 -2 899 -2 696 -2 c 0,10,11
 492 -2 492 -2 347 143 c 256,12,13
 202 288 202 288 202 492 c 2,14,-1
 200 1420 l 1,15,-1
 396 1512 l 1,16,-1
 396 496 l 2,17,18
 396 373 396 373 485 283.5 c 128,-1,19
 574 194 574 194 696 194 c 128,-1,20
 818 194 818 194 906 280 c 1,21,22
 992 362 992 362 992 498 c 2,23,-1
 992 1422 l 1,24,-1
 1190 1512 l 1,6,-1
EndSplineSet
Validated: 1
EndChar

StartChar: Udieresis
Encoding: 220 220 158
Width: 1390
GlyphClass: 2
Flags: W
HStem: -2 196<540.37 852.588> 1492 20G<353.391 396 1146 1189.98> 1641 264<394.191 575.809 844.191 1025.81>
VStem: 202 194<341.628 1420> 355 260<1680.71 1865.29> 805 260<1683.71 1868.29> 992 197<330.396 1422>
LayerCount: 2
Fore
SplineSet
805 1776 m 128,-1,1
 805 1831 805 1831 843 1869.5 c 128,-1,2
 881 1908 881 1908 935 1908 c 128,-1,3
 989 1908 989 1908 1027 1869.5 c 128,-1,4
 1065 1831 1065 1831 1065 1776 c 128,-1,5
 1065 1721 1065 1721 1027 1682.5 c 128,-1,6
 989 1644 989 1644 935 1644 c 128,-1,7
 881 1644 881 1644 843 1682.5 c 128,-1,0
 805 1721 805 1721 805 1776 c 128,-1,1
355 1773 m 128,-1,9
 355 1828 355 1828 393 1866.5 c 128,-1,10
 431 1905 431 1905 485 1905 c 128,-1,11
 539 1905 539 1905 577 1866.5 c 128,-1,12
 615 1828 615 1828 615 1773 c 128,-1,13
 615 1718 615 1718 577 1679.5 c 128,-1,14
 539 1641 539 1641 485 1641 c 128,-1,15
 431 1641 431 1641 393 1679.5 c 128,-1,8
 355 1718 355 1718 355 1773 c 128,-1,9
1190 1512 m 1,16,-1
 1189 492 l 2,17,18
 1189 288 1189 288 1044 143 c 128,-1,19
 899 -2 899 -2 696 -2 c 0,20,21
 492 -2 492 -2 347 143 c 256,22,23
 202 288 202 288 202 492 c 2,24,-1
 200 1420 l 1,25,-1
 396 1512 l 1,26,-1
 396 496 l 2,27,28
 396 373 396 373 485 283.5 c 128,-1,29
 574 194 574 194 696 194 c 128,-1,30
 818 194 818 194 906 280 c 1,31,32
 992 362 992 362 992 498 c 2,33,-1
 992 1422 l 1,34,-1
 1190 1512 l 1,16,-1
EndSplineSet
Validated: 1
EndChar

StartChar: Yacute
Encoding: 221 221 159
Width: 1388
GlyphClass: 2
Flags: W
HStem: 0 21G<598 641.043> 1492 18G<354.444 398.069 1144 1187.97>
VStem: 200 200<786.375 1420> 598 198<92 461.176> 990 197<769.285 1422>
DStem2: 586 1722 716 1596 0.770645 0.637264<19.8886 404.856>
LayerCount: 2
Fore
SplineSet
898 1980 m 1,0,-1
 1028 1854 l 1,1,-1
 716 1596 l 1,2,-1
 586 1722 l 1,3,-1
 898 1980 l 1,0,-1
708 636 m 0,4,5
 829 636 829 636 916 728 c 0,6,7
 990 806 990 806 990 942 c 2,8,-1
 990 1422 l 1,9,-1
 1188 1512 l 1,10,-1
 1187 936 l 2,11,12
 1187 733 1187 733 1042 587 c 0,13,14
 935 479 935 479 795 452 c 1,15,-1
 796 92 l 1,16,-1
 598 0 l 1,17,-1
 598 451 l 1,18,19
 462 477 462 477 345 587 c 0,20,21
 200 724 200 724 200 933 c 0,22,23
 200 935 200 935 200 936 c 2,24,-1
 202 1420 l 1,25,-1
 398 1510 l 1,26,-1
 400 930 l 2,27,28
 400 815 400 815 488 732 c 0,29,30
 590 636 590 636 708 636 c 0,4,5
EndSplineSet
Validated: 1
EndChar

StartChar: Thorn
Encoding: 222 222 160
Width: 1227
GlyphClass: 2
Flags: W
HStem: 0 21G<200 243.043> 264 197<398 768.427> 1049 202<398 775.6> 1491 20G<353.506 398>
VStem: 200 198<92 264 461 1049 1251 1422> 919 188<605.447 908.193>
LayerCount: 2
Fore
SplineSet
398 92 m 1,0,-1
 200 0 l 1,1,-1
 200 1422 l 1,2,-1
 398 1511 l 1,3,-1
 398 1251 l 1,4,-1
 613 1250 l 1,5,6
 819 1247 819 1247 962 1106 c 0,7,8
 1107 963 1107 963 1107 757 c 0,9,10
 1107 553 1107 553 962 408 c 128,-1,11
 817 263 817 263 613 263 c 2,12,-1
 398 264 l 1,13,-1
 398 92 l 1,0,-1
398 1049 m 1,14,-1
 398 461 l 1,15,-1
 607 461 l 2,16,17
 729 461 729 461 824 547 c 128,-1,18
 919 633 919 633 919 755 c 0,19,20
 919 881 919 881 823 971 c 0,21,22
 743 1046 743 1046 607 1049 c 1,23,-1
 398 1049 l 1,14,-1
EndSplineSet
Validated: 1
EndChar

StartChar: germandbls
Encoding: 223 223 161
Width: 1362
GlyphClass: 2
Flags: W
HStem: 0 21G<200.035 244.889> 21 188<654 900.571> 756 177<622 814.893> 1314 184<463.431 824.156>
VStem: 200 202<90 1255.98> 884 196<1003.78 1255.98> 996 196<306.824 619.028>
LayerCount: 2
Fore
SplineSet
402 1132 m 2,0,-1
 402 90 l 1,1,-1
 200 0 l 1,2,-1
 202 1135 l 2,3,4
 202 1264 202 1264 288 1376 c 0,5,6
 382 1498 382 1498 610 1498 c 2,7,-1
 643 1498 l 1,8,-1
 672 1498 l 2,9,10
 900 1498 900 1498 994 1376 c 0,11,12
 1080 1264 1080 1264 1080 1135 c 128,-1,13
 1080 1006 1080 1006 994 910 c 1,14,-1
 944 872 l 1,15,16
 1001 854 1001 854 1052 802 c 0,17,18
 1192 659 1192 659 1192 465 c 2,19,-1
 1192 462 l 1,20,21
 1191 270 1191 270 1067 145 c 0,22,23
 943 21 943 21 716 21 c 2,24,-1
 554 21 l 1,25,-1
 654 209 l 1,26,-1
 711 209 l 2,27,28
 866 209 866 209 928 276 c 0,29,30
 995 347 995 347 996 462 c 1,31,-1
 996 465 l 2,32,33
 996 571 996 571 923 658 c 0,34,35
 840 757 840 757 713 757 c 2,36,-1
 554 756 l 1,37,-1
 622 933 l 1,38,-1
 689 933 l 1,39,40
 810 941 810 941 860 1032 c 0,41,42
 884 1076 884 1076 884 1133 c 0,43,44
 884 1136 884 1136 884 1138 c 0,45,46
 884 1195 884 1195 858 1236 c 0,47,48
 809 1313 809 1313 668 1314 c 1,49,-1
 643 1314 l 1,50,-1
 618 1313 l 2,51,52
 474 1307 474 1307 428 1235 c 0,53,54
 402 1194 402 1194 402 1137 c 0,55,56
 402 1135 402 1135 402 1132 c 2,0,-1
EndSplineSet
Validated: 1
EndChar

StartChar: agrave
Encoding: 224 224 162
Width: 1084
GlyphClass: 2
Flags: W
HStem: -4 176<424.625 644> 938 182<407.469 675.836>
VStem: 130 194<276.104 853.612> 760 194<92 853.098>
DStem2: 360 1576 230 1450 0.770645 -0.637264<0 384.967>
LayerCount: 2
Fore
SplineSet
360 1576 m 1,0,-1
 672 1318 l 1,1,-1
 542 1192 l 1,2,-1
 230 1450 l 1,3,-1
 360 1576 l 1,0,-1
535 -4 m 0,4,5
 374 -4 374 -4 253 119 c 0,6,7
 133 241 133 241 132 410 c 2,8,-1
 130 706 l 1,9,10
 130 874 130 874 251 997 c 128,-1,11
 372 1120 372 1120 542 1120 c 0,12,13
 709 1120 709 1120 832 1001 c 0,14,15
 951 885 951 885 952 714 c 2,16,-1
 954 92 l 1,17,-1
 756 0 l 1,18,19
 760 214 760 214 760 347 c 0,20,21
 760 370 760 370 760 397 c 2,22,-1
 758 719 l 2,23,24
 757 810 757 810 698 874 c 128,-1,25
 639 938 639 938 542 938 c 0,26,27
 455 938 455 938 394 882 c 0,28,29
 324 817 324 817 324 721 c 2,30,-1
 324 567 l 1,31,-1
 326 395 l 2,32,33
 327 320 327 320 392 246 c 0,34,35
 452 178 452 178 554 174 c 0,36,37
 577 173 577 173 600 172 c 1,38,39
 664 175 664 175 728 178 c 1,40,-1
 644 0 l 1,41,42
 600 -4 600 -4 535 -4 c 0,4,5
EndSplineSet
Validated: 16385
EndChar

StartChar: aacute
Encoding: 225 225 163
Width: 1084
GlyphClass: 2
Flags: W
HStem: -4 176<424.625 644> 938 182<407.469 675.836>
VStem: 130 194<276.104 853.612> 760 194<92 853.098>
DStem2: 424 1318 554 1192 0.770645 0.637264<19.8886 404.856>
LayerCount: 2
Fore
SplineSet
736 1576 m 1,0,-1
 866 1450 l 1,1,-1
 554 1192 l 1,2,-1
 424 1318 l 1,3,-1
 736 1576 l 1,0,-1
535 -4 m 0,4,5
 374 -4 374 -4 253 119 c 0,6,7
 133 241 133 241 132 410 c 2,8,-1
 130 706 l 1,9,10
 130 874 130 874 251 997 c 128,-1,11
 372 1120 372 1120 542 1120 c 0,12,13
 709 1120 709 1120 832 1001 c 0,14,15
 951 885 951 885 952 714 c 2,16,-1
 954 92 l 1,17,-1
 756 0 l 1,18,19
 760 214 760 214 760 347 c 0,20,21
 760 370 760 370 760 397 c 2,22,-1
 758 719 l 2,23,24
 757 810 757 810 698 874 c 128,-1,25
 639 938 639 938 542 938 c 0,26,27
 455 938 455 938 394 882 c 0,28,29
 324 817 324 817 324 721 c 2,30,-1
 324 567 l 1,31,-1
 326 395 l 2,32,33
 327 320 327 320 392 246 c 0,34,35
 452 178 452 178 554 174 c 0,36,37
 577 173 577 173 600 172 c 1,38,39
 664 175 664 175 728 178 c 1,40,-1
 644 0 l 1,41,42
 600 -4 600 -4 535 -4 c 0,4,5
EndSplineSet
Validated: 16385
EndChar

StartChar: acircumflex
Encoding: 226 226 164
Width: 1084
GlyphClass: 2
Flags: W
HStem: -4 176<424.625 644> 938 182<407.469 675.836> 1350 234<417 651>
VStem: 130 194<276.104 853.612> 760 194<92 853.098>
LayerCount: 2
Fore
SplineSet
534 1350 m 1,0,-1
 352 1200 l 1,1,-1
 222 1326 l 1,2,-1
 534 1584 l 1,3,-1
 846 1326 l 1,4,-1
 716 1200 l 1,5,-1
 534 1350 l 1,0,-1
535 -4 m 0,6,7
 374 -4 374 -4 253 119 c 0,8,9
 133 241 133 241 132 410 c 2,10,-1
 130 706 l 1,11,12
 130 874 130 874 251 997 c 128,-1,13
 372 1120 372 1120 542 1120 c 0,14,15
 709 1120 709 1120 832 1001 c 0,16,17
 951 885 951 885 952 714 c 2,18,-1
 954 92 l 1,19,-1
 756 0 l 1,20,21
 760 214 760 214 760 347 c 0,22,23
 760 370 760 370 760 397 c 2,24,-1
 758 719 l 2,25,26
 757 810 757 810 698 874 c 128,-1,27
 639 938 639 938 542 938 c 0,28,29
 455 938 455 938 394 882 c 0,30,31
 324 817 324 817 324 721 c 2,32,-1
 324 567 l 1,33,-1
 326 395 l 2,34,35
 327 320 327 320 392 246 c 0,36,37
 452 178 452 178 554 174 c 0,38,39
 577 173 577 173 600 172 c 1,40,41
 664 175 664 175 728 178 c 1,42,-1
 644 0 l 1,43,44
 600 -4 600 -4 535 -4 c 0,6,7
EndSplineSet
Validated: 16385
EndChar

StartChar: atilde
Encoding: 227 227 165
Width: 1084
GlyphClass: 2
Flags: W
HStem: -4 176<424.625 644> 938 182<407.469 675.836> 1222 204<633.095 733.253> 1388 185<365.554 492.676>
VStem: 130 194<276.104 853.612> 760 194<92 853.098>
DStem2: 487 1547 439 1376 0.859047 -0.511898<0.354202 250.577>
LayerCount: 2
Fore
SplineSet
707 1426 m 1,0,1
 731 1427 731 1427 734 1480 c 0,2,3
 735 1498 735 1498 735 1501 c 1,4,-1
 937 1573 l 1,5,-1
 936 1538 l 1,6,-1
 932 1488 l 2,7,8
 911 1222 911 1222 746 1222 c 0,9,10
 708 1222 708 1222 650 1255 c 0,11,12
 466 1359 466 1359 439 1376 c 0,13,14
 415 1391 415 1391 392 1388 c 0,15,16
 368 1385 368 1385 355 1294 c 1,17,-1
 150 1220 l 1,18,-1
 153 1255 l 1,19,-1
 156 1285 l 1,20,21
 183 1573 183 1573 398 1573 c 2,22,-1
 399 1573 l 2,23,24
 441 1573 441 1573 487 1547 c 1,25,-1
 633 1460 l 1,26,27
 695 1427 695 1427 707 1426 c 1,0,1
535 -4 m 0,28,29
 374 -4 374 -4 253 119 c 0,30,31
 133 241 133 241 132 410 c 2,32,-1
 130 706 l 1,33,34
 130 874 130 874 251 997 c 128,-1,35
 372 1120 372 1120 542 1120 c 0,36,37
 709 1120 709 1120 832 1001 c 0,38,39
 951 885 951 885 952 714 c 2,40,-1
 954 92 l 1,41,-1
 756 0 l 1,42,43
 760 214 760 214 760 347 c 0,44,45
 760 370 760 370 760 397 c 2,46,-1
 758 719 l 2,47,48
 757 810 757 810 698 874 c 128,-1,49
 639 938 639 938 542 938 c 0,50,51
 455 938 455 938 394 882 c 0,52,53
 324 817 324 817 324 721 c 2,54,-1
 324 567 l 1,55,-1
 326 395 l 2,56,57
 327 320 327 320 392 246 c 0,58,59
 452 178 452 178 554 174 c 0,60,61
 577 173 577 173 600 172 c 1,62,63
 664 175 664 175 728 178 c 1,64,-1
 644 0 l 1,65,66
 600 -4 600 -4 535 -4 c 0,28,29
EndSplineSet
Validated: 16385
EndChar

StartChar: adieresis
Encoding: 228 228 166
Width: 1084
GlyphClass: 2
Flags: W
HStem: -4 176<424.625 644> 938 182<407.469 675.836> 1250 264<221.191 402.809 671.191 852.809>
VStem: 130 194<276.104 853.612> 182 260<1289.71 1474.29> 632 260<1292.71 1477.29> 760 194<92 853.098>
LayerCount: 2
Fore
SplineSet
632 1385 m 128,-1,1
 632 1440 632 1440 670 1478.5 c 128,-1,2
 708 1517 708 1517 762 1517 c 128,-1,3
 816 1517 816 1517 854 1478.5 c 128,-1,4
 892 1440 892 1440 892 1385 c 128,-1,5
 892 1330 892 1330 854 1291.5 c 128,-1,6
 816 1253 816 1253 762 1253 c 128,-1,7
 708 1253 708 1253 670 1291.5 c 128,-1,0
 632 1330 632 1330 632 1385 c 128,-1,1
182 1382 m 128,-1,9
 182 1437 182 1437 220 1475.5 c 128,-1,10
 258 1514 258 1514 312 1514 c 128,-1,11
 366 1514 366 1514 404 1475.5 c 128,-1,12
 442 1437 442 1437 442 1382 c 128,-1,13
 442 1327 442 1327 404 1288.5 c 128,-1,14
 366 1250 366 1250 312 1250 c 128,-1,15
 258 1250 258 1250 220 1288.5 c 128,-1,8
 182 1327 182 1327 182 1382 c 128,-1,9
535 -4 m 0,16,17
 374 -4 374 -4 253 119 c 0,18,19
 133 241 133 241 132 410 c 2,20,-1
 130 706 l 1,21,22
 130 874 130 874 251 997 c 128,-1,23
 372 1120 372 1120 542 1120 c 0,24,25
 709 1120 709 1120 832 1001 c 0,26,27
 951 885 951 885 952 714 c 2,28,-1
 954 92 l 1,29,-1
 756 0 l 1,30,31
 760 214 760 214 760 347 c 0,32,33
 760 370 760 370 760 397 c 2,34,-1
 758 719 l 2,35,36
 757 810 757 810 698 874 c 128,-1,37
 639 938 639 938 542 938 c 0,38,39
 455 938 455 938 394 882 c 0,40,41
 324 817 324 817 324 721 c 2,42,-1
 324 567 l 1,43,-1
 326 395 l 2,44,45
 327 320 327 320 392 246 c 0,46,47
 452 178 452 178 554 174 c 0,48,49
 577 173 577 173 600 172 c 1,50,51
 664 175 664 175 728 178 c 1,52,-1
 644 0 l 1,53,54
 600 -4 600 -4 535 -4 c 0,16,17
EndSplineSet
Validated: 16385
EndChar

StartChar: aring
Encoding: 229 229 167
Width: 1084
GlyphClass: 2
Flags: W
HStem: -4 176<424.625 644> 938 182<407.469 675.836> 1218 141<464.808 617.366> 1548 142<457.25 616.975>
VStem: 130 194<276.104 853.612> 294 148<1381.34 1534.17> 640 152<1380.89 1525.83> 760 194<92 853.098>
LayerCount: 2
Fore
SplineSet
533 1548 m 0,0,1
 497 1548 497 1548 470 1520 c 0,2,3
 442 1491 442 1491 442 1454 c 0,4,5
 442 1415 442 1415 471 1387 c 128,-1,6
 500 1359 500 1359 541 1359 c 128,-1,7
 582 1359 582 1359 611 1386.5 c 128,-1,8
 640 1414 640 1414 640 1453 c 0,9,10
 640 1489 640 1489 611 1520 c 0,11,12
 585 1548 585 1548 533 1548 c 0,0,1
294 1461 m 0,13,14
 294 1521 294 1521 327 1572 c 0,15,16
 363 1628 363 1628 418 1658 c 1,17,18
 474 1690 474 1690 543 1690 c 0,19,20
 607 1690 607 1690 668 1658 c 0,21,22
 713 1635 713 1635 755 1571 c 0,23,24
 792 1514 792 1514 792 1448 c 0,25,26
 792 1388 792 1388 759 1336 c 0,27,28
 723 1280 723 1280 668 1249 c 128,-1,29
 613 1218 613 1218 543 1218 c 0,30,31
 482 1218 482 1218 418 1250 c 0,32,33
 355 1282 355 1282 322 1334 c 0,34,35
 294 1379 294 1379 294 1461 c 0,13,14
535 -4 m 0,36,37
 374 -4 374 -4 253 119 c 0,38,39
 133 241 133 241 132 410 c 2,40,-1
 130 706 l 1,41,42
 130 874 130 874 251 997 c 128,-1,43
 372 1120 372 1120 542 1120 c 0,44,45
 709 1120 709 1120 832 1001 c 0,46,47
 951 885 951 885 952 714 c 2,48,-1
 954 92 l 1,49,-1
 756 0 l 1,50,51
 760 214 760 214 760 347 c 0,52,53
 760 370 760 370 760 397 c 2,54,-1
 758 719 l 2,55,56
 757 810 757 810 698 874 c 128,-1,57
 639 938 639 938 542 938 c 0,58,59
 455 938 455 938 394 882 c 0,60,61
 324 817 324 817 324 721 c 2,62,-1
 324 567 l 1,63,-1
 326 395 l 2,64,65
 327 320 327 320 392 246 c 0,66,67
 452 178 452 178 554 174 c 0,68,69
 577 173 577 173 600 172 c 1,70,71
 664 175 664 175 728 178 c 1,72,-1
 644 0 l 1,73,74
 600 -4 600 -4 535 -4 c 0,36,37
EndSplineSet
Validated: 16385
EndChar

StartChar: ae
Encoding: 230 230 168
Width: 1714
GlyphClass: 2
Flags: W
HStem: 0 182<415.322 644 1038.31 1315.87> 938 182<407.46 672.148 1031.51 1309.36>
VStem: 130 194<276.104 853.612> 758 194<267.579 416 606 853.469> 1388 194<253.402 416>
DStem2: 952 606 954 416 0.910665 0.413145<0 463.638>
LayerCount: 2
Fore
SplineSet
756 0 m 1,0,-1
 758 710 l 1,1,2
 750 819 750 819 698 873 c 0,3,4
 636 938 636 938 545 938 c 0,5,6
 543 938 543 938 542 938 c 0,7,8
 454 938 454 938 394 882 c 0,9,10
 324 817 324 817 324 721 c 2,11,-1
 324 567 l 1,12,-1
 326 395 l 2,13,14
 327 320 327 320 392 246 c 0,15,16
 452 178 452 178 554 174 c 2,17,-1
 600 172 l 1,18,-1
 728 178 l 1,19,-1
 644 0 l 1,20,21
 600 -4 600 -4 535 -4 c 0,22,23
 374 -4 374 -4 253 119 c 0,24,25
 133 241 133 241 132 410 c 2,26,-1
 130 706 l 1,27,28
 130 874 130 874 251 997 c 128,-1,29
 372 1120 372 1120 542 1120 c 0,30,31
 703 1120 703 1120 832 1001 c 0,32,33
 845 989 845 989 856 976 c 1,34,35
 867 989 867 989 879 1001 c 0,36,37
 1002 1124 1002 1124 1170 1124 c 0,38,39
 1328 1124 1328 1124 1460 1005 c 0,40,41
 1580 896 1580 896 1580 718 c 2,42,-1
 1580 700 l 1,43,-1
 954 416 l 1,44,-1
 954 399 l 2,45,46
 954 302 954 302 1024 238 c 0,47,48
 1085 182 1085 182 1172 182 c 0,49,50
 1283 182 1283 182 1338 246 c 0,51,52
 1388 304 1388 304 1388 401 c 2,53,-1
 1388 416 l 1,54,-1
 1584 501 l 1,55,-1
 1582 406 l 1,56,57
 1582 235 1582 235 1462 119 c 0,58,59
 1339 0 1339 0 1172 0 c 0,60,61
 1035 0 1035 0 929 80 c 1,62,-1
 756 0 l 1,0,-1
952 714 m 1,63,-1
 952 606 l 1,64,-1
 1375 794 l 1,65,66
 1360 842 1360 842 1326 878 c 1,67,68
 1268 942 1268 942 1170 942 c 0,69,70
 1081 942 1081 942 1022 886 c 0,71,72
 952 820 952 820 952 725 c 2,73,-1
 952 714 l 1,63,-1
EndSplineSet
Validated: 16385
EndChar

StartChar: ccedilla
Encoding: 231 231 169
Width: 1084
GlyphClass: 2
Flags: W
HStem: -400 21G<511.615 549.361> 938 182<407.469 681.416>
VStem: 130 194<266.494 853.612> 758 194<248.748 397 696 864.996>
DStem2: 396 234 253 119 0.697933 -0.716163<-143.599 115.651 309.96 366.545>
LayerCount: 2
Fore
SplineSet
758 719 m 1,0,1
 758 839 758 839 687 891 c 0,2,3
 623 938 623 938 542 938 c 0,4,5
 455 938 455 938 394 882 c 0,6,7
 324 818 324 818 324 721 c 2,8,-1
 324 567 l 1,9,-1
 326 395 l 2,10,11
 327 298 327 298 396 234 c 0,12,13
 456 178 456 178 544 178 c 0,14,15
 655 178 655 178 710 242 c 0,16,17
 760 300 760 300 760 397 c 1,18,-1
 952 484 l 1,19,-1
 954 402 l 1,20,21
 954 230 954 230 834 115 c 0,22,23
 732 17 732 17 600 0 c 1,24,-1
 755 -156 l 1,25,-1
 531 -400 l 1,26,-1
 405 -270 l 1,27,-1
 521 -156 l 1,28,-1
 431 -64 l 1,29,-1
 494 -1 l 1,30,31
 356 14 356 14 253 119 c 0,32,33
 133 241 133 241 132 410 c 2,34,-1
 130 706 l 1,35,36
 130 874 130 874 251 997 c 128,-1,37
 372 1120 372 1120 542 1120 c 0,38,39
 700 1120 700 1120 832 1001 c 0,40,41
 952 892 952 892 952 714 c 2,42,-1
 952 696 l 1,43,-1
 756 608 l 1,44,-1
 758 719 l 1,0,1
EndSplineSet
Validated: 16385
EndChar

StartChar: egrave
Encoding: 232 232 170
Width: 1086
GlyphClass: 2
Flags: W
HStem: -4 182<409.469 687.875> 938 182<407.274 676.077>
VStem: 130 194<266.494 412 602 853.612> 760 194<249.402 412>
DStem2: 360 1576 230 1450 0.770645 -0.637264<0 384.967> 324 602 326 412 0.910665 0.413145<0 463.638>
LayerCount: 2
Fore
SplineSet
360 1576 m 1,0,-1
 672 1318 l 1,1,-1
 542 1192 l 1,2,-1
 230 1450 l 1,3,-1
 360 1576 l 1,0,-1
952 696 m 1,4,-1
 326 412 l 1,5,-1
 326 395 l 2,6,7
 326 298 326 298 396 234 c 0,8,9
 457 178 457 178 544 178 c 0,10,11
 655 178 655 178 710 242 c 0,12,13
 760 300 760 300 760 397 c 2,14,-1
 760 412 l 1,15,-1
 956 497 l 1,16,-1
 954 402 l 1,17,18
 954 231 954 231 834 115 c 0,19,20
 711 -4 711 -4 544 -4 c 0,21,22
 374 -4 374 -4 253 119 c 0,23,24
 133 241 133 241 132 410 c 2,25,-1
 130 706 l 1,26,27
 130 874 130 874 251 997 c 128,-1,28
 372 1120 372 1120 542 1120 c 0,29,30
 700 1120 700 1120 832 1001 c 0,31,32
 952 892 952 892 952 714 c 2,33,-1
 952 696 l 1,4,-1
324 602 m 1,34,-1
 747 790 l 1,35,36
 732 838 732 838 698 874 c 1,37,38
 640 938 640 938 542 938 c 0,39,40
 453 938 453 938 394 882 c 0,41,42
 324 816 324 816 324 721 c 2,43,-1
 324 602 l 1,34,-1
EndSplineSet
Validated: 16385
EndChar

StartChar: eacute
Encoding: 233 233 171
Width: 1086
GlyphClass: 2
Flags: W
HStem: -4 182<409.469 687.875> 938 182<407.274 676.077>
VStem: 130 194<266.494 412 602 853.612> 760 194<249.402 412>
DStem2: 324 602 326 412 0.910665 0.413145<0 463.638> 424 1318 554 1192 0.770645 0.637264<19.8886 404.856>
LayerCount: 2
Fore
SplineSet
736 1576 m 1,0,-1
 866 1450 l 1,1,-1
 554 1192 l 1,2,-1
 424 1318 l 1,3,-1
 736 1576 l 1,0,-1
952 696 m 1,4,-1
 326 412 l 1,5,-1
 326 395 l 2,6,7
 326 298 326 298 396 234 c 0,8,9
 457 178 457 178 544 178 c 0,10,11
 655 178 655 178 710 242 c 0,12,13
 760 300 760 300 760 397 c 2,14,-1
 760 412 l 1,15,-1
 956 497 l 1,16,-1
 954 402 l 1,17,18
 954 231 954 231 834 115 c 0,19,20
 711 -4 711 -4 544 -4 c 0,21,22
 374 -4 374 -4 253 119 c 0,23,24
 133 241 133 241 132 410 c 2,25,-1
 130 706 l 1,26,27
 130 874 130 874 251 997 c 128,-1,28
 372 1120 372 1120 542 1120 c 0,29,30
 700 1120 700 1120 832 1001 c 0,31,32
 952 892 952 892 952 714 c 2,33,-1
 952 696 l 1,4,-1
324 602 m 1,34,-1
 747 790 l 1,35,36
 732 838 732 838 698 874 c 1,37,38
 640 938 640 938 542 938 c 0,39,40
 453 938 453 938 394 882 c 0,41,42
 324 816 324 816 324 721 c 2,43,-1
 324 602 l 1,34,-1
EndSplineSet
Validated: 16385
EndChar

StartChar: ecircumflex
Encoding: 234 234 172
Width: 1086
GlyphClass: 2
Flags: W
HStem: -4 182<409.469 687.875> 938 182<407.274 676.077> 1350 234<417 651>
VStem: 130 194<266.494 412 602 853.612> 760 194<249.402 412>
DStem2: 324 602 326 412 0.910665 0.413145<0 463.638>
LayerCount: 2
Fore
SplineSet
534 1350 m 1,0,-1
 352 1200 l 1,1,-1
 222 1326 l 1,2,-1
 534 1584 l 1,3,-1
 846 1326 l 1,4,-1
 716 1200 l 1,5,-1
 534 1350 l 1,0,-1
952 696 m 1,6,-1
 326 412 l 1,7,-1
 326 395 l 2,8,9
 326 298 326 298 396 234 c 0,10,11
 457 178 457 178 544 178 c 0,12,13
 655 178 655 178 710 242 c 0,14,15
 760 300 760 300 760 397 c 2,16,-1
 760 412 l 1,17,-1
 956 497 l 1,18,-1
 954 402 l 1,19,20
 954 231 954 231 834 115 c 0,21,22
 711 -4 711 -4 544 -4 c 0,23,24
 374 -4 374 -4 253 119 c 0,25,26
 133 241 133 241 132 410 c 2,27,-1
 130 706 l 1,28,29
 130 874 130 874 251 997 c 128,-1,30
 372 1120 372 1120 542 1120 c 0,31,32
 700 1120 700 1120 832 1001 c 0,33,34
 952 892 952 892 952 714 c 2,35,-1
 952 696 l 1,6,-1
324 602 m 1,36,-1
 747 790 l 1,37,38
 732 838 732 838 698 874 c 1,39,40
 640 938 640 938 542 938 c 0,41,42
 453 938 453 938 394 882 c 0,43,44
 324 816 324 816 324 721 c 2,45,-1
 324 602 l 1,36,-1
EndSplineSet
Validated: 16385
EndChar

StartChar: edieresis
Encoding: 235 235 173
Width: 1086
GlyphClass: 2
Flags: W
HStem: -4 182<409.469 687.875> 938 182<407.274 676.077> 1250 264<221.191 402.809 671.191 852.809>
VStem: 130 194<266.494 412 602 853.612> 182 260<1289.71 1474.29> 632 260<1292.71 1477.29> 760 194<249.402 412>
DStem2: 324 602 326 412 0.910665 0.413145<0 463.638>
LayerCount: 2
Fore
SplineSet
632 1385 m 128,-1,1
 632 1440 632 1440 670 1478.5 c 128,-1,2
 708 1517 708 1517 762 1517 c 128,-1,3
 816 1517 816 1517 854 1478.5 c 128,-1,4
 892 1440 892 1440 892 1385 c 128,-1,5
 892 1330 892 1330 854 1291.5 c 128,-1,6
 816 1253 816 1253 762 1253 c 128,-1,7
 708 1253 708 1253 670 1291.5 c 128,-1,0
 632 1330 632 1330 632 1385 c 128,-1,1
182 1382 m 128,-1,9
 182 1437 182 1437 220 1475.5 c 128,-1,10
 258 1514 258 1514 312 1514 c 128,-1,11
 366 1514 366 1514 404 1475.5 c 128,-1,12
 442 1437 442 1437 442 1382 c 128,-1,13
 442 1327 442 1327 404 1288.5 c 128,-1,14
 366 1250 366 1250 312 1250 c 128,-1,15
 258 1250 258 1250 220 1288.5 c 128,-1,8
 182 1327 182 1327 182 1382 c 128,-1,9
952 696 m 1,16,-1
 326 412 l 1,17,-1
 326 395 l 2,18,19
 326 298 326 298 396 234 c 0,20,21
 457 178 457 178 544 178 c 0,22,23
 655 178 655 178 710 242 c 0,24,25
 760 300 760 300 760 397 c 2,26,-1
 760 412 l 1,27,-1
 956 497 l 1,28,-1
 954 402 l 1,29,30
 954 231 954 231 834 115 c 0,31,32
 711 -4 711 -4 544 -4 c 0,33,34
 374 -4 374 -4 253 119 c 0,35,36
 133 241 133 241 132 410 c 2,37,-1
 130 706 l 1,38,39
 130 874 130 874 251 997 c 128,-1,40
 372 1120 372 1120 542 1120 c 0,41,42
 700 1120 700 1120 832 1001 c 0,43,44
 952 892 952 892 952 714 c 2,45,-1
 952 696 l 1,16,-1
324 602 m 1,46,-1
 747 790 l 1,47,48
 732 838 732 838 698 874 c 1,49,50
 640 938 640 938 542 938 c 0,51,52
 453 938 453 938 394 882 c 0,53,54
 324 816 324 816 324 721 c 2,55,-1
 324 602 l 1,46,-1
EndSplineSet
Validated: 16385
EndChar

StartChar: igrave
Encoding: 236 236 174
Width: 496
GlyphClass: 2
Flags: W
HStem: 0 21G<150 194.545> 1100 20G<299.333 346>
VStem: 150 196<88 1036>
DStem2: 134 1581 4 1455 0.770645 -0.637264<0 384.967>
LayerCount: 2
Fore
SplineSet
134 1581 m 1,0,-1
 446 1323 l 1,1,-1
 316 1197 l 1,2,-1
 4 1455 l 1,3,-1
 134 1581 l 1,0,-1
346 88 m 1,4,-1
 150 0 l 1,5,-1
 150 1036 l 1,6,-1
 346 1120 l 1,7,-1
 346 88 l 1,4,-1
EndSplineSet
Validated: 1
EndChar

StartChar: iacute
Encoding: 237 237 175
Width: 496
GlyphClass: 2
Flags: W
HStem: 0 21G<150 194.545> 1100 20G<299.333 346>
VStem: 150 196<88 1036>
DStem2: 49 1312 179 1186 0.770645 0.637264<19.8886 404.856>
LayerCount: 2
Fore
SplineSet
361 1570 m 1,0,-1
 491 1444 l 1,1,-1
 179 1186 l 1,2,-1
 49 1312 l 1,3,-1
 361 1570 l 1,0,-1
346 88 m 1,4,-1
 150 0 l 1,5,-1
 150 1036 l 1,6,-1
 346 1120 l 1,7,-1
 346 88 l 1,4,-1
EndSplineSet
Validated: 1
EndChar

StartChar: icircumflex
Encoding: 238 238 176
Width: 634
GlyphClass: 2
Flags: W
HStem: 0 21G<211 255.545> 1100 20G<360.333 407> 1350 234<200 434>
VStem: 211 196<88 1036>
LayerCount: 2
Fore
SplineSet
317 1350 m 1,0,-1
 135 1200 l 1,1,-1
 5 1326 l 1,2,-1
 317 1584 l 1,3,-1
 629 1326 l 1,4,-1
 499 1200 l 1,5,-1
 317 1350 l 1,0,-1
407 88 m 1,6,-1
 211 0 l 1,7,-1
 211 1036 l 1,8,-1
 407 1120 l 1,9,-1
 407 88 l 1,6,-1
EndSplineSet
Validated: 1
EndChar

StartChar: idieresis
Encoding: 239 239 177
Width: 720
GlyphClass: 2
Flags: W
HStem: 0 21G<264 308.545> 1100 20G<413.333 460> 1247 264<44.1914 225.809 494.191 675.809>
VStem: 5 260<1286.71 1471.29> 264 196<88 1036> 455 260<1289.71 1474.29>
LayerCount: 2
Fore
SplineSet
455 1382 m 128,-1,1
 455 1437 455 1437 493 1475.5 c 128,-1,2
 531 1514 531 1514 585 1514 c 128,-1,3
 639 1514 639 1514 677 1475.5 c 128,-1,4
 715 1437 715 1437 715 1382 c 128,-1,5
 715 1327 715 1327 677 1288.5 c 128,-1,6
 639 1250 639 1250 585 1250 c 128,-1,7
 531 1250 531 1250 493 1288.5 c 128,-1,0
 455 1327 455 1327 455 1382 c 128,-1,1
5 1379 m 128,-1,9
 5 1434 5 1434 43 1472.5 c 128,-1,10
 81 1511 81 1511 135 1511 c 128,-1,11
 189 1511 189 1511 227 1472.5 c 128,-1,12
 265 1434 265 1434 265 1379 c 128,-1,13
 265 1324 265 1324 227 1285.5 c 128,-1,14
 189 1247 189 1247 135 1247 c 128,-1,15
 81 1247 81 1247 43 1285.5 c 128,-1,8
 5 1324 5 1324 5 1379 c 128,-1,9
460 88 m 1,16,-1
 264 0 l 1,17,-1
 264 1036 l 1,18,-1
 460 1120 l 1,19,-1
 460 88 l 1,16,-1
EndSplineSet
Validated: 1
EndChar

StartChar: eth
Encoding: 240 240 178
Width: 1084
GlyphClass: 2
Flags: W
HStem: -4 182<409.469 677.978> 938 182<407.469 612.182> 1490 20G<422 519>
VStem: 130 194<266.494 853.612> 761 194<262.902 851.487 1058 1194.71>
DStem2: 251 997 394 882 0.732794 0.680451<-106.527 154.789 403.926 456.321 681.321 820.886>
LayerCount: 2
Fore
SplineSet
760 397 m 1,0,-1
 758 719 l 2,1,2
 757 811 757 811 698 874 c 1,3,4
 640 938 640 938 542 938 c 0,5,6
 455 938 455 938 394 882 c 0,7,8
 324 817 324 817 324 721 c 2,9,-1
 324 567 l 1,10,-1
 326 395 l 2,11,12
 327 298 327 298 396 234 c 0,13,14
 457 178 457 178 544 178 c 0,15,16
 642 178 642 178 700 242 c 1,17,18
 760 306 760 306 760 394 c 2,19,-1
 760 397 l 1,0,-1
954 402 m 2,20,21
 954 231 954 231 834 115 c 0,22,23
 711 -4 711 -4 544 -4 c 0,24,25
 374 -4 374 -4 253 119 c 0,26,27
 133 241 133 241 132 410 c 2,28,-1
 130 706 l 1,29,30
 130 874 130 874 251 997 c 128,-1,31
 372 1120 372 1120 542 1120 c 0,32,33
 578 1120 578 1120 613 1114 c 1,34,-1
 532 1288 l 1,35,-1
 571 1323 l 1,36,37
 543 1327 543 1327 511 1327 c 1,38,-1
 422 1510 l 1,39,-1
 512 1510 l 2,40,41
 526 1510 526 1510 543 1509 c 0,42,43
 646 1503 646 1503 727 1464 c 1,44,-1
 892 1612 l 1,45,-1
 984 1414 l 1,46,-1
 885 1325 l 1,47,48
 955 1223 955 1223 955 1095 c 2,49,-1
 953 585 l 1,50,-1
 954 402 l 2,20,21
744 1198 m 1,51,-1
 644 1108 l 1,52,53
 706 1093 706 1093 761 1058 c 1,54,-1
 761 1087 l 1,55,-1
 761 1110 l 2,56,57
 761 1159 761 1159 744 1198 c 1,51,-1
EndSplineSet
Validated: 16385
EndChar

StartChar: ntilde
Encoding: 241 241 179
Width: 1084
GlyphClass: 2
Flags: W
HStem: 0 21G<135.83 176.851 761.889 802.851> 938 182<407.372 675.978> 1222 204<633.095 733.253> 1388 185<365.554 492.676>
VStem: 130 194<94 853.612> 762 192<94 848.98>
DStem2: 487 1547 439 1376 0.859047 -0.511898<0.354202 250.577>
LayerCount: 2
Fore
SplineSet
707 1426 m 1,0,1
 731 1427 731 1427 734 1480 c 0,2,3
 735 1498 735 1498 735 1501 c 1,4,-1
 937 1573 l 1,5,-1
 936 1538 l 1,6,-1
 932 1488 l 2,7,8
 911 1222 911 1222 746 1222 c 0,9,10
 708 1222 708 1222 650 1255 c 0,11,12
 466 1359 466 1359 439 1376 c 0,13,14
 415 1391 415 1391 392 1388 c 0,15,16
 368 1385 368 1385 355 1294 c 1,17,-1
 150 1220 l 1,18,-1
 153 1255 l 1,19,-1
 156 1285 l 1,20,21
 183 1573 183 1573 398 1573 c 2,22,-1
 399 1573 l 2,23,24
 441 1573 441 1573 487 1547 c 1,25,-1
 633 1460 l 1,26,27
 695 1427 695 1427 707 1426 c 1,0,1
952 714 m 2,28,29
 954 94 l 1,30,-1
 762 0 l 1,31,-1
 758 719 l 2,32,33
 757 811 757 811 698 874 c 1,34,35
 640 938 640 938 542 938 c 0,36,37
 454 938 454 938 394 882 c 0,38,39
 324 817 324 817 324 724 c 0,40,41
 324 722 324 722 324 721 c 2,42,-1
 328 94 l 1,43,-1
 136 0 l 1,44,-1
 130 706 l 1,45,46
 130 874 130 874 251 997 c 128,-1,47
 372 1120 372 1120 542 1120 c 0,48,49
 709 1120 709 1120 832 1001 c 0,50,51
 951 886 951 886 952 714 c 2,28,29
EndSplineSet
Validated: 16385
EndChar

StartChar: ograve
Encoding: 242 242 180
Width: 1084
GlyphClass: 2
Flags: W
HStem: -4 182<409.469 677.978> 938 182<407.469 675.978>
VStem: 130 194<266.99 853.612> 760 194<262.902 853.59>
DStem2: 360 1576 230 1450 0.770645 -0.637264<0 384.967>
LayerCount: 2
Fore
SplineSet
360 1576 m 1,0,-1
 672 1318 l 1,1,-1
 542 1192 l 1,2,-1
 230 1450 l 1,3,-1
 360 1576 l 1,0,-1
326 395 m 2,4,5
 327 298 327 298 396 234 c 0,6,7
 457 178 457 178 544 178 c 0,8,9
 642 178 642 178 700 242 c 1,10,11
 760 306 760 306 760 394 c 0,12,13
 760 396 760 396 760 397 c 2,14,-1
 758 719 l 2,15,16
 757 811 757 811 698 874 c 1,17,18
 640 938 640 938 542 938 c 0,19,20
 455 938 455 938 394 882 c 0,21,22
 324 817 324 817 324 721 c 2,23,-1
 324 567 l 1,24,-1
 326 395 l 2,4,5
954 402 m 1,25,26
 954 231 954 231 834 115 c 0,27,28
 711 -4 711 -4 544 -4 c 0,29,30
 374 -4 374 -4 253 119 c 128,-1,31
 132 242 132 242 132 410 c 1,32,-1
 130 706 l 1,33,34
 130 874 130 874 251 997 c 128,-1,35
 372 1120 372 1120 542 1120 c 0,36,37
 709 1120 709 1120 832 1001 c 0,38,39
 951 886 951 886 952 714 c 2,40,-1
 954 402 l 1,25,26
EndSplineSet
Validated: 16385
EndChar

StartChar: oacute
Encoding: 243 243 181
Width: 1084
GlyphClass: 2
Flags: W
HStem: -4 182<409.469 677.978> 938 182<407.469 675.978>
VStem: 130 194<266.99 853.612> 760 194<262.902 853.59>
DStem2: 424 1318 554 1192 0.770645 0.637264<19.8886 404.856>
LayerCount: 2
Fore
SplineSet
736 1576 m 1,0,-1
 866 1450 l 1,1,-1
 554 1192 l 1,2,-1
 424 1318 l 1,3,-1
 736 1576 l 1,0,-1
326 395 m 2,4,5
 327 298 327 298 396 234 c 0,6,7
 457 178 457 178 544 178 c 0,8,9
 642 178 642 178 700 242 c 1,10,11
 760 306 760 306 760 394 c 0,12,13
 760 396 760 396 760 397 c 2,14,-1
 758 719 l 2,15,16
 757 811 757 811 698 874 c 1,17,18
 640 938 640 938 542 938 c 0,19,20
 455 938 455 938 394 882 c 0,21,22
 324 817 324 817 324 721 c 2,23,-1
 324 567 l 1,24,-1
 326 395 l 2,4,5
954 402 m 1,25,26
 954 231 954 231 834 115 c 0,27,28
 711 -4 711 -4 544 -4 c 0,29,30
 374 -4 374 -4 253 119 c 128,-1,31
 132 242 132 242 132 410 c 1,32,-1
 130 706 l 1,33,34
 130 874 130 874 251 997 c 128,-1,35
 372 1120 372 1120 542 1120 c 0,36,37
 709 1120 709 1120 832 1001 c 0,38,39
 951 886 951 886 952 714 c 2,40,-1
 954 402 l 1,25,26
EndSplineSet
Validated: 16385
EndChar

StartChar: ocircumflex
Encoding: 244 244 182
Width: 1084
GlyphClass: 2
Flags: W
HStem: -4 182<409.469 677.978> 938 182<407.469 675.978> 1350 234<417 651>
VStem: 130 194<266.99 853.612> 760 194<262.902 853.59>
LayerCount: 2
Fore
SplineSet
534 1350 m 1,0,-1
 352 1200 l 1,1,-1
 222 1326 l 1,2,-1
 534 1584 l 1,3,-1
 846 1326 l 1,4,-1
 716 1200 l 1,5,-1
 534 1350 l 1,0,-1
326 395 m 2,6,7
 327 298 327 298 396 234 c 0,8,9
 457 178 457 178 544 178 c 0,10,11
 642 178 642 178 700 242 c 1,12,13
 760 306 760 306 760 394 c 0,14,15
 760 396 760 396 760 397 c 2,16,-1
 758 719 l 2,17,18
 757 811 757 811 698 874 c 1,19,20
 640 938 640 938 542 938 c 0,21,22
 455 938 455 938 394 882 c 0,23,24
 324 817 324 817 324 721 c 2,25,-1
 324 567 l 1,26,-1
 326 395 l 2,6,7
954 402 m 1,27,28
 954 231 954 231 834 115 c 0,29,30
 711 -4 711 -4 544 -4 c 0,31,32
 374 -4 374 -4 253 119 c 128,-1,33
 132 242 132 242 132 410 c 1,34,-1
 130 706 l 1,35,36
 130 874 130 874 251 997 c 128,-1,37
 372 1120 372 1120 542 1120 c 0,38,39
 709 1120 709 1120 832 1001 c 0,40,41
 951 886 951 886 952 714 c 2,42,-1
 954 402 l 1,27,28
EndSplineSet
Validated: 16385
EndChar

StartChar: otilde
Encoding: 245 245 183
Width: 1084
GlyphClass: 2
Flags: W
HStem: -4 182<409.469 677.978> 938 182<407.469 675.978> 1222 204<633.095 733.253> 1388 185<365.554 492.676>
VStem: 130 194<266.99 853.612> 760 194<262.902 853.59>
DStem2: 487 1547 439 1376 0.859047 -0.511898<0.354202 250.577>
LayerCount: 2
Fore
SplineSet
707 1426 m 1,0,1
 731 1427 731 1427 734 1480 c 0,2,3
 735 1498 735 1498 735 1501 c 1,4,-1
 937 1573 l 1,5,-1
 936 1538 l 1,6,-1
 932 1488 l 2,7,8
 911 1222 911 1222 746 1222 c 0,9,10
 708 1222 708 1222 650 1255 c 0,11,12
 466 1359 466 1359 439 1376 c 0,13,14
 415 1391 415 1391 392 1388 c 0,15,16
 368 1385 368 1385 355 1294 c 1,17,-1
 150 1220 l 1,18,-1
 153 1255 l 1,19,-1
 156 1285 l 1,20,21
 183 1573 183 1573 398 1573 c 2,22,-1
 399 1573 l 2,23,24
 441 1573 441 1573 487 1547 c 1,25,-1
 633 1460 l 1,26,27
 695 1427 695 1427 707 1426 c 1,0,1
326 395 m 2,28,29
 327 298 327 298 396 234 c 0,30,31
 457 178 457 178 544 178 c 0,32,33
 642 178 642 178 700 242 c 1,34,35
 760 306 760 306 760 394 c 0,36,37
 760 396 760 396 760 397 c 2,38,-1
 758 719 l 2,39,40
 757 811 757 811 698 874 c 1,41,42
 640 938 640 938 542 938 c 0,43,44
 455 938 455 938 394 882 c 0,45,46
 324 817 324 817 324 721 c 2,47,-1
 324 567 l 1,48,-1
 326 395 l 2,28,29
954 402 m 1,49,50
 954 231 954 231 834 115 c 0,51,52
 711 -4 711 -4 544 -4 c 0,53,54
 374 -4 374 -4 253 119 c 128,-1,55
 132 242 132 242 132 410 c 1,56,-1
 130 706 l 1,57,58
 130 874 130 874 251 997 c 128,-1,59
 372 1120 372 1120 542 1120 c 0,60,61
 709 1120 709 1120 832 1001 c 0,62,63
 951 886 951 886 952 714 c 2,64,-1
 954 402 l 1,49,50
EndSplineSet
Validated: 16385
EndChar

StartChar: odieresis
Encoding: 246 246 184
Width: 1084
GlyphClass: 2
Flags: W
HStem: -4 182<409.469 677.978> 938 182<407.469 675.978> 1250 264<221.191 402.809 671.191 852.809>
VStem: 130 194<266.99 853.612> 182 260<1289.71 1474.29> 632 260<1292.71 1477.29> 760 194<262.902 853.59>
LayerCount: 2
Fore
SplineSet
632 1385 m 128,-1,1
 632 1440 632 1440 670 1478.5 c 128,-1,2
 708 1517 708 1517 762 1517 c 128,-1,3
 816 1517 816 1517 854 1478.5 c 128,-1,4
 892 1440 892 1440 892 1385 c 128,-1,5
 892 1330 892 1330 854 1291.5 c 128,-1,6
 816 1253 816 1253 762 1253 c 128,-1,7
 708 1253 708 1253 670 1291.5 c 128,-1,0
 632 1330 632 1330 632 1385 c 128,-1,1
182 1382 m 128,-1,9
 182 1437 182 1437 220 1475.5 c 128,-1,10
 258 1514 258 1514 312 1514 c 128,-1,11
 366 1514 366 1514 404 1475.5 c 128,-1,12
 442 1437 442 1437 442 1382 c 128,-1,13
 442 1327 442 1327 404 1288.5 c 128,-1,14
 366 1250 366 1250 312 1250 c 128,-1,15
 258 1250 258 1250 220 1288.5 c 128,-1,8
 182 1327 182 1327 182 1382 c 128,-1,9
326 395 m 2,16,17
 327 298 327 298 396 234 c 0,18,19
 457 178 457 178 544 178 c 0,20,21
 642 178 642 178 700 242 c 1,22,23
 760 306 760 306 760 394 c 0,24,25
 760 396 760 396 760 397 c 2,26,-1
 758 719 l 2,27,28
 757 811 757 811 698 874 c 1,29,30
 640 938 640 938 542 938 c 0,31,32
 455 938 455 938 394 882 c 0,33,34
 324 817 324 817 324 721 c 2,35,-1
 324 567 l 1,36,-1
 326 395 l 2,16,17
954 402 m 1,37,38
 954 231 954 231 834 115 c 0,39,40
 711 -4 711 -4 544 -4 c 0,41,42
 374 -4 374 -4 253 119 c 128,-1,43
 132 242 132 242 132 410 c 1,44,-1
 130 706 l 1,45,46
 130 874 130 874 251 997 c 128,-1,47
 372 1120 372 1120 542 1120 c 0,48,49
 709 1120 709 1120 832 1001 c 0,50,51
 951 886 951 886 952 714 c 2,52,-1
 954 402 l 1,37,38
EndSplineSet
Validated: 16385
EndChar

StartChar: divide
Encoding: 247 247 185
Width: 1083
GlyphClass: 2
Flags: W
HStem: 153 264<437.191 618.809> 600 198<170 911> 996 264<452.191 633.809>
VStem: 398 260<192.707 377.293> 413 260<1035.71 1220.29>
LayerCount: 2
Fore
SplineSet
170 798 m 1,0,-1
 1003 798 l 1,1,-1
 911 600 l 1,2,-1
 80 600 l 1,3,-1
 170 798 l 1,0,-1
398 285 m 128,-1,5
 398 340 398 340 436 378.5 c 128,-1,6
 474 417 474 417 528 417 c 128,-1,7
 582 417 582 417 620 378.5 c 128,-1,8
 658 340 658 340 658 285 c 128,-1,9
 658 230 658 230 620 191.5 c 128,-1,10
 582 153 582 153 528 153 c 128,-1,11
 474 153 474 153 436 191.5 c 128,-1,4
 398 230 398 230 398 285 c 128,-1,5
413 1128 m 128,-1,13
 413 1183 413 1183 451 1221.5 c 128,-1,14
 489 1260 489 1260 543 1260 c 128,-1,15
 597 1260 597 1260 635 1221.5 c 128,-1,16
 673 1183 673 1183 673 1128 c 128,-1,17
 673 1073 673 1073 635 1034.5 c 128,-1,18
 597 996 597 996 543 996 c 128,-1,19
 489 996 489 996 451 1034.5 c 128,-1,12
 413 1073 413 1073 413 1128 c 128,-1,13
EndSplineSet
Validated: 16385
EndChar

StartChar: oslash
Encoding: 248 248 186
Width: 1084
GlyphClass: 2
Flags: W
HStem: -4 182<486.431 677.978> 938 182<407.469 601.136>
VStem: 130 194<336.479 853.612> 760 194<262.902 777.124>
DStem2: 165 -44 344 -128 0.409422 0.912345<0 162.777 414.059 989.869 1245.21 1408.4>
LayerCount: 2
Fore
SplineSet
954 402 m 1,0,1
 954 231 954 231 834 115 c 0,2,3
 711 -4 711 -4 544 -4 c 0,4,5
 472 -4 472 -4 409 18 c 1,6,-1
 344 -128 l 1,7,-1
 165 -44 l 1,8,-1
 243 130 l 1,9,10
 133 248 133 248 132 410 c 2,11,-1
 130 706 l 1,12,13
 130 874 130 874 251 997 c 128,-1,14
 372 1120 372 1120 542 1120 c 0,15,16
 614 1120 614 1120 677 1098 c 1,17,-1
 742 1242 l 1,18,-1
 922 1160 l 1,19,-1
 845 988 l 1,20,21
 951 876 951 876 952 714 c 2,22,-1
 954 402 l 1,0,1
751 778 m 1,23,-1
 485 185 l 1,24,25
 513 178 513 178 544 178 c 0,26,27
 642 178 642 178 700 242 c 1,28,29
 760 306 760 306 760 394 c 2,30,-1
 760 397 l 1,31,-1
 758 719 l 2,32,33
 758 750 758 750 751 778 c 1,23,-1
602 931 m 1,34,35
 574 938 574 938 542 938 c 0,36,37
 455 938 455 938 394 882 c 0,38,39
 324 817 324 817 324 721 c 2,40,-1
 324 567 l 1,41,-1
 326 395 l 2,42,43
 326 362 326 362 334 334 c 1,44,-1
 602 931 l 1,34,35
EndSplineSet
Validated: 16385
EndChar

StartChar: ugrave
Encoding: 249 249 187
Width: 1084
GlyphClass: 2
Flags: W
HStem: 0 182<408.022 676.531> 1100 20G<273.659 320 902.217 949>
VStem: 132 194<266.41 1038> 760 194<266.388 1037>
DStem2: 360 1576 230 1450 0.770645 -0.637264<0 384.967>
LayerCount: 2
Fore
SplineSet
360 1576 m 1,0,-1
 672 1318 l 1,1,-1
 542 1192 l 1,2,-1
 230 1450 l 1,3,-1
 360 1576 l 1,0,-1
954 414 m 1,4,5
 954 246 954 246 833 123 c 128,-1,6
 712 0 712 0 542 0 c 0,7,8
 375 0 375 0 252 119 c 0,9,10
 133 234 133 234 132 406 c 2,11,-1
 130 1038 l 1,12,-1
 320 1120 l 1,13,14
 320 658 320 658 326 401 c 1,15,16
 327 309 327 309 386 246 c 1,17,18
 444 182 444 182 542 182 c 0,19,20
 629 182 629 182 690 238 c 1,21,22
 760 304 760 304 760 399 c 2,23,-1
 758 1037 l 1,24,-1
 948 1120 l 1,25,26
 950 1085 950 1085 954 414 c 1,4,5
EndSplineSet
Validated: 16385
EndChar

StartChar: uacute
Encoding: 250 250 188
Width: 1084
GlyphClass: 2
Flags: W
HStem: 0 182<408.022 676.531> 1100 20G<273.659 320 902.217 949>
VStem: 132 194<266.41 1038> 760 194<266.388 1037>
DStem2: 424 1318 554 1192 0.770645 0.637264<19.8886 404.856>
LayerCount: 2
Fore
SplineSet
736 1576 m 1,0,-1
 866 1450 l 1,1,-1
 554 1192 l 1,2,-1
 424 1318 l 1,3,-1
 736 1576 l 1,0,-1
954 414 m 1,4,5
 954 246 954 246 833 123 c 128,-1,6
 712 0 712 0 542 0 c 0,7,8
 375 0 375 0 252 119 c 0,9,10
 133 234 133 234 132 406 c 2,11,-1
 130 1038 l 1,12,-1
 320 1120 l 1,13,14
 320 658 320 658 326 401 c 1,15,16
 327 309 327 309 386 246 c 1,17,18
 444 182 444 182 542 182 c 0,19,20
 629 182 629 182 690 238 c 1,21,22
 760 304 760 304 760 399 c 2,23,-1
 758 1037 l 1,24,-1
 948 1120 l 1,25,26
 950 1085 950 1085 954 414 c 1,4,5
EndSplineSet
Validated: 16385
EndChar

StartChar: ucircumflex
Encoding: 251 251 189
Width: 1084
GlyphClass: 2
Flags: W
HStem: 0 182<408.022 676.531> 1100 20G<273.659 320 902.217 949> 1350 234<417 651>
VStem: 132 194<266.41 1038> 760 194<266.388 1037>
LayerCount: 2
Fore
SplineSet
534 1350 m 1,0,-1
 352 1200 l 1,1,-1
 222 1326 l 1,2,-1
 534 1584 l 1,3,-1
 846 1326 l 1,4,-1
 716 1200 l 1,5,-1
 534 1350 l 1,0,-1
954 414 m 1,6,7
 954 246 954 246 833 123 c 128,-1,8
 712 0 712 0 542 0 c 0,9,10
 375 0 375 0 252 119 c 0,11,12
 133 234 133 234 132 406 c 2,13,-1
 130 1038 l 1,14,-1
 320 1120 l 1,15,16
 320 658 320 658 326 401 c 1,17,18
 327 309 327 309 386 246 c 1,19,20
 444 182 444 182 542 182 c 0,21,22
 629 182 629 182 690 238 c 1,23,24
 760 304 760 304 760 399 c 2,25,-1
 758 1037 l 1,26,-1
 948 1120 l 1,27,28
 950 1085 950 1085 954 414 c 1,6,7
EndSplineSet
Validated: 16385
EndChar

StartChar: udieresis
Encoding: 252 252 190
Width: 1084
GlyphClass: 2
Flags: W
HStem: 0 182<408.022 676.531> 1100 20G<273.659 320 902.217 949> 1250 264<221.191 402.809 671.191 852.809>
VStem: 132 194<266.41 1038> 182 260<1289.71 1474.29> 632 260<1292.71 1477.29> 760 194<266.388 1037>
LayerCount: 2
Fore
SplineSet
632 1385 m 128,-1,1
 632 1440 632 1440 670 1478.5 c 128,-1,2
 708 1517 708 1517 762 1517 c 128,-1,3
 816 1517 816 1517 854 1478.5 c 128,-1,4
 892 1440 892 1440 892 1385 c 128,-1,5
 892 1330 892 1330 854 1291.5 c 128,-1,6
 816 1253 816 1253 762 1253 c 128,-1,7
 708 1253 708 1253 670 1291.5 c 128,-1,0
 632 1330 632 1330 632 1385 c 128,-1,1
182 1382 m 128,-1,9
 182 1437 182 1437 220 1475.5 c 128,-1,10
 258 1514 258 1514 312 1514 c 128,-1,11
 366 1514 366 1514 404 1475.5 c 128,-1,12
 442 1437 442 1437 442 1382 c 128,-1,13
 442 1327 442 1327 404 1288.5 c 128,-1,14
 366 1250 366 1250 312 1250 c 128,-1,15
 258 1250 258 1250 220 1288.5 c 128,-1,8
 182 1327 182 1327 182 1382 c 128,-1,9
954 414 m 1,16,17
 954 246 954 246 833 123 c 128,-1,18
 712 0 712 0 542 0 c 0,19,20
 375 0 375 0 252 119 c 0,21,22
 133 234 133 234 132 406 c 2,23,-1
 130 1038 l 1,24,-1
 320 1120 l 1,25,26
 320 658 320 658 326 401 c 1,27,28
 327 309 327 309 386 246 c 1,29,30
 444 182 444 182 542 182 c 0,31,32
 629 182 629 182 690 238 c 1,33,34
 760 304 760 304 760 399 c 2,35,-1
 758 1037 l 1,36,-1
 948 1120 l 1,37,38
 950 1085 950 1085 954 414 c 1,16,17
EndSplineSet
Validated: 16385
EndChar

StartChar: yacute
Encoding: 253 253 191
Width: 1100
GlyphClass: 2
Flags: W
HStem: -404 183<290 663.531> 0 182<406.51 674.192> 1100 20G<276.581 321.083 904.186 950>
VStem: 130 194<265.918 1034> 756 194<-131.612 61 263.06 1034>
DStem2: 424 1318 554 1192 0.770645 0.637264<19.8886 404.856>
LayerCount: 2
Fore
SplineSet
736 1576 m 1,0,-1
 866 1450 l 1,1,-1
 554 1192 l 1,2,-1
 424 1318 l 1,3,-1
 736 1576 l 1,0,-1
541 -218 m 1,4,5
 620 -218 620 -218 686 -160 c 0,6,7
 756 -99 756 -99 756 1 c 2,8,-1
 756 24 l 1,9,-1
 756 61 l 1,10,11
 660 0 660 0 540 0 c 0,12,13
 375 0 375 0 250 119 c 0,14,15
 130 233 130 233 130 406 c 2,16,-1
 130 1034 l 1,17,-1
 321 1120 l 1,18,-1
 324 401 l 2,19,20
 324 310 324 310 384 246 c 1,21,22
 442 182 442 182 540 182 c 0,23,24
 627 182 627 182 688 238 c 0,25,26
 744 289 744 289 755 361 c 1,27,-1
 753 1034 l 1,28,-1
 950 1120 l 1,29,-1
 950 16 l 2,30,31
 950 -152 950 -152 829 -275 c 0,32,33
 706 -400 706 -400 553 -400 c 0,34,35
 547 -400 547 -400 541 -400 c 2,36,-1
 285 -404 l 1,37,-1
 207 -404 l 1,38,-1
 290 -221 l 1,39,-1
 306 -221 l 1,40,-1
 541 -218 l 1,4,5
EndSplineSet
Validated: 16385
EndChar

StartChar: thorn
Encoding: 254 254 192
Width: 1104
GlyphClass: 2
Flags: W
HStem: -398 21G<150 195.843> -4 182<431.974 700.984> 938 182<430.188 699.126> 1492 20G<300.889 344.089>
VStem: 150 200<-309 52 260.107 859.237 1061 1422> 780 194<258.88 854.11>
LayerCount: 2
Fore
SplineSet
348 754 m 1,0,-1
 350 363 l 1,1,2
 361 287 361 287 418 234 c 0,3,4
 478 178 478 178 566 178 c 0,5,6
 663 178 663 178 722 242 c 0,7,8
 770 295 770 295 780 361 c 1,9,-1
 777 758 l 1,10,11
 766 825 766 825 720 874 c 1,12,13
 662 938 662 938 564 938 c 0,14,15
 476 938 476 938 416 882 c 0,16,17
 358 828 358 828 348 754 c 1,0,-1
150 -398 m 1,18,-1
 150 1422 l 1,19,-1
 344 1512 l 1,20,-1
 346 1061 l 1,21,22
 442 1120 442 1120 560 1120 c 0,23,24
 730 1120 730 1120 851 997 c 0,25,26
 971 875 971 875 972 706 c 2,27,-1
 974 410 l 1,28,29
 974 242 974 242 853 119 c 128,-1,30
 732 -4 732 -4 562 -4 c 0,31,32
 447 -4 447 -4 352 52 c 1,33,-1
 354 -309 l 1,34,-1
 150 -398 l 1,18,-1
EndSplineSet
Validated: 16385
EndChar

StartChar: ydieresis
Encoding: 255 255 193
Width: 1100
GlyphClass: 2
Flags: W
HStem: -404 183<290 663.531> 0 182<406.51 674.192> 1100 20G<276.581 321.083 904.186 950> 1250 264<221.191 402.809 671.191 852.809>
VStem: 130 194<265.918 1034> 182 260<1289.71 1474.29> 632 260<1292.71 1477.29> 756 194<-131.612 61 263.06 1034>
LayerCount: 2
Fore
SplineSet
632 1385 m 128,-1,1
 632 1440 632 1440 670 1478.5 c 128,-1,2
 708 1517 708 1517 762 1517 c 128,-1,3
 816 1517 816 1517 854 1478.5 c 128,-1,4
 892 1440 892 1440 892 1385 c 128,-1,5
 892 1330 892 1330 854 1291.5 c 128,-1,6
 816 1253 816 1253 762 1253 c 128,-1,7
 708 1253 708 1253 670 1291.5 c 128,-1,0
 632 1330 632 1330 632 1385 c 128,-1,1
182 1382 m 128,-1,9
 182 1437 182 1437 220 1475.5 c 128,-1,10
 258 1514 258 1514 312 1514 c 128,-1,11
 366 1514 366 1514 404 1475.5 c 128,-1,12
 442 1437 442 1437 442 1382 c 128,-1,13
 442 1327 442 1327 404 1288.5 c 128,-1,14
 366 1250 366 1250 312 1250 c 128,-1,15
 258 1250 258 1250 220 1288.5 c 128,-1,8
 182 1327 182 1327 182 1382 c 128,-1,9
541 -218 m 1,16,17
 620 -218 620 -218 686 -160 c 0,18,19
 756 -99 756 -99 756 1 c 2,20,-1
 756 24 l 1,21,-1
 756 61 l 1,22,23
 660 0 660 0 540 0 c 0,24,25
 375 0 375 0 250 119 c 0,26,27
 130 233 130 233 130 406 c 2,28,-1
 130 1034 l 1,29,-1
 321 1120 l 1,30,-1
 324 401 l 2,31,32
 324 310 324 310 384 246 c 1,33,34
 442 182 442 182 540 182 c 0,35,36
 627 182 627 182 688 238 c 0,37,38
 744 289 744 289 755 361 c 1,39,-1
 753 1034 l 1,40,-1
 950 1120 l 1,41,-1
 950 16 l 2,42,43
 950 -152 950 -152 829 -275 c 0,44,45
 706 -400 706 -400 553 -400 c 0,46,47
 547 -400 547 -400 541 -400 c 2,48,-1
 285 -404 l 1,49,-1
 207 -404 l 1,50,-1
 290 -221 l 1,51,-1
 306 -221 l 1,52,-1
 541 -218 l 1,16,17
EndSplineSet
Validated: 16385
EndChar

StartChar: Amacron
Encoding: 256 256 194
Width: 1390
GlyphClass: 2
Flags: W
HStem: 0 21G<200.02 243.043 992.09 1036.49> 443 190<400 994> 1320 190<533.376 852.46> 1686 198<418 1046>
VStem: 201 198<92 436 626 1182.12> 994 196<89 443 633 1176.65>
LayerCount: 2
Fore
SplineSet
418 1884 m 1,0,-1
 1138 1884 l 1,1,-1
 1046 1686 l 1,2,-1
 328 1686 l 1,3,-1
 418 1884 l 1,0,-1
200 0 m 1,4,-1
 201 1016 l 2,5,6
 201 1220 201 1220 346 1365 c 256,7,8
 491 1510 491 1510 695 1510 c 0,9,10
 902 1510 902 1510 1044 1365 c 0,11,12
 1188 1218 1188 1218 1188 1016 c 2,13,-1
 1190 89 l 1,14,-1
 992 0 l 1,15,-1
 994 443 l 1,16,-1
 400 436 l 1,17,-1
 398 92 l 1,18,-1
 200 0 l 1,4,-1
399 626 m 1,19,-1
 994 633 l 1,20,-1
 995 1017 l 2,21,22
 995 1147 995 1147 906 1234 c 0,23,24
 818 1320 818 1320 697 1320 c 0,25,26
 695 1320 695 1320 692 1320 c 0,27,28
 560 1320 560 1320 476 1230 c 1,29,30
 399 1139 399 1139 399 1010 c 2,31,-1
 399 626 l 1,19,-1
EndSplineSet
Validated: 1
EndChar

StartChar: amacron
Encoding: 257 257 195
Width: 1084
GlyphClass: 2
Flags: W
HStem: -4 176<424.625 644> 938 182<407.469 675.836> 1316 198<224 852>
VStem: 130 194<276.104 853.612> 760 194<92 853.098>
LayerCount: 2
Fore
SplineSet
224 1514 m 1,0,-1
 944 1514 l 1,1,-1
 852 1316 l 1,2,-1
 134 1316 l 1,3,-1
 224 1514 l 1,0,-1
535 -4 m 0,4,5
 374 -4 374 -4 253 119 c 0,6,7
 133 241 133 241 132 410 c 2,8,-1
 130 706 l 1,9,10
 130 874 130 874 251 997 c 128,-1,11
 372 1120 372 1120 542 1120 c 0,12,13
 709 1120 709 1120 832 1001 c 0,14,15
 951 885 951 885 952 714 c 2,16,-1
 954 92 l 1,17,-1
 756 0 l 1,18,19
 760 214 760 214 760 347 c 0,20,21
 760 370 760 370 760 397 c 2,22,-1
 758 719 l 2,23,24
 757 810 757 810 698 874 c 128,-1,25
 639 938 639 938 542 938 c 0,26,27
 455 938 455 938 394 882 c 0,28,29
 324 817 324 817 324 721 c 2,30,-1
 324 567 l 1,31,-1
 326 395 l 2,32,33
 327 320 327 320 392 246 c 0,34,35
 452 178 452 178 554 174 c 0,36,37
 577 173 577 173 600 172 c 1,38,39
 664 175 664 175 728 178 c 1,40,-1
 644 0 l 1,41,42
 600 -4 600 -4 535 -4 c 0,4,5
EndSplineSet
Validated: 16385
EndChar

StartChar: Abreve
Encoding: 258 258 196
Width: 1390
GlyphClass: 2
Flags: W
HStem: 0 21G<200.02 243.043 992.09 1036.49> 443 190<400 994> 1320 190<533.376 852.46> 1650 194<557.063 877.911>
VStem: 201 198<92 436 626 1182.12> 994 196<89 443 633 1176.65>
LayerCount: 2
Fore
SplineSet
1104 1812 m 1,0,1
 1037 1751 1037 1751 957 1710 c 0,2,3
 840 1650 840 1650 710 1650 c 0,4,5
 581 1650 581 1650 463 1710 c 0,6,7
 390 1747 390 1747 329 1800 c 1,8,-1
 488 1938 l 1,9,10
 497 1930 497 1930 510 1920 c 0,11,12
 610 1844 610 1844 717 1844 c 0,13,14
 828 1844 828 1844 922 1919 c 1,15,-1
 935 1930 l 1,16,-1
 1104 1812 l 1,0,1
200 0 m 1,17,-1
 201 1016 l 2,18,19
 201 1220 201 1220 346 1365 c 256,20,21
 491 1510 491 1510 695 1510 c 0,22,23
 902 1510 902 1510 1044 1365 c 0,24,25
 1188 1218 1188 1218 1188 1016 c 2,26,-1
 1190 89 l 1,27,-1
 992 0 l 1,28,-1
 994 443 l 1,29,-1
 400 436 l 1,30,-1
 398 92 l 1,31,-1
 200 0 l 1,17,-1
399 626 m 1,32,-1
 994 633 l 1,33,-1
 995 1017 l 2,34,35
 995 1147 995 1147 906 1234 c 0,36,37
 818 1320 818 1320 697 1320 c 0,38,39
 695 1320 695 1320 692 1320 c 0,40,41
 560 1320 560 1320 476 1230 c 1,42,43
 399 1139 399 1139 399 1010 c 2,44,-1
 399 626 l 1,32,-1
EndSplineSet
Validated: 1
EndChar

StartChar: abreve
Encoding: 259 259 197
Width: 1084
GlyphClass: 2
Flags: W
HStem: -4 176<424.625 644> 938 182<407.469 675.836> 1272 194<393.063 713.911>
VStem: 130 194<276.104 853.612> 760 194<92 853.098>
LayerCount: 2
Fore
SplineSet
940 1434 m 1,0,1
 873 1373 873 1373 793 1332 c 0,2,3
 676 1272 676 1272 546 1272 c 0,4,5
 417 1272 417 1272 299 1332 c 0,6,7
 226 1369 226 1369 165 1422 c 1,8,-1
 324 1560 l 1,9,10
 333 1552 333 1552 346 1542 c 0,11,12
 446 1466 446 1466 553 1466 c 0,13,14
 664 1466 664 1466 758 1541 c 1,15,-1
 771 1552 l 1,16,-1
 940 1434 l 1,0,1
535 -4 m 0,17,18
 374 -4 374 -4 253 119 c 0,19,20
 133 241 133 241 132 410 c 2,21,-1
 130 706 l 1,22,23
 130 874 130 874 251 997 c 128,-1,24
 372 1120 372 1120 542 1120 c 0,25,26
 709 1120 709 1120 832 1001 c 0,27,28
 951 885 951 885 952 714 c 2,29,-1
 954 92 l 1,30,-1
 756 0 l 1,31,32
 760 214 760 214 760 347 c 0,33,34
 760 370 760 370 760 397 c 2,35,-1
 758 719 l 2,36,37
 757 810 757 810 698 874 c 128,-1,38
 639 938 639 938 542 938 c 0,39,40
 455 938 455 938 394 882 c 0,41,42
 324 817 324 817 324 721 c 2,43,-1
 324 567 l 1,44,-1
 326 395 l 2,45,46
 327 320 327 320 392 246 c 0,47,48
 452 178 452 178 554 174 c 0,49,50
 577 173 577 173 600 172 c 1,51,52
 664 175 664 175 728 178 c 1,53,-1
 644 0 l 1,54,55
 600 -4 600 -4 535 -4 c 0,17,18
EndSplineSet
Validated: 16385
EndChar

StartChar: Aogonek
Encoding: 260 260 198
Width: 1390
GlyphClass: 2
Flags: W
HStem: -398 21G<1071.64 1109.38> 0 21G<200.02 243.043 992.09 1036.55> 443 190<400 994> 1320 190<533.376 852.46>
VStem: 201 198<92 436 626 1182.12> 994 196<89 443 633 1176.65>
LayerCount: 2
Fore
SplineSet
399 626 m 1,0,-1
 994 633 l 1,1,-1
 995 1017 l 2,2,3
 995 1147 995 1147 906 1234 c 0,4,5
 818 1320 818 1320 697 1320 c 2,6,-1
 692 1320 l 2,7,8
 560 1320 560 1320 476 1230 c 1,9,10
 399 1139 399 1139 399 1010 c 2,11,-1
 399 626 l 1,0,-1
200 0 m 1,12,-1
 201 1016 l 2,13,14
 201 1220 201 1220 346 1365 c 128,-1,15
 491 1510 491 1510 695 1510 c 0,16,17
 902 1510 902 1510 1044 1365 c 0,18,19
 1188 1218 1188 1218 1188 1016 c 2,20,-1
 1190 89 l 1,21,-1
 1085 42 l 1,22,-1
 1190 -62 l 1,23,-1
 1100 -154 l 1,24,-1
 1216 -268 l 1,25,-1
 1090 -398 l 1,26,-1
 866 -154 l 1,27,-1
 1041 22 l 1,28,-1
 992 0 l 1,29,-1
 994 443 l 1,30,-1
 400 436 l 1,31,-1
 398 92 l 1,32,-1
 200 0 l 1,12,-1
EndSplineSet
Validated: 1
EndChar

StartChar: aogonek
Encoding: 261 261 199
Width: 1086
GlyphClass: 2
Flags: W
HStem: -398 21G<821.639 859.385> -4 178<424.447 644> 938 182<407.469 675.836>
VStem: 130 194<276.104 853.612> 760 194<92 853.098>
LayerCount: 2
Fore
SplineSet
535 -4 m 0,0,1
 374 -4 374 -4 253 119 c 0,2,3
 133 241 133 241 132 410 c 2,4,-1
 130 706 l 1,5,6
 130 874 130 874 251 997 c 128,-1,7
 372 1120 372 1120 542 1120 c 0,8,9
 709 1120 709 1120 832 1001 c 0,10,11
 951 885 951 885 952 714 c 2,12,-1
 954 92 l 1,13,-1
 839 38 l 1,14,-1
 940 -62 l 1,15,-1
 850 -154 l 1,16,-1
 966 -268 l 1,17,-1
 840 -398 l 1,18,-1
 616 -154 l 1,19,-1
 781 11 l 1,20,-1
 756 0 l 1,21,22
 760 214 760 214 760 347 c 2,23,-1
 760 397 l 1,24,-1
 758 719 l 2,25,26
 757 810 757 810 698 874 c 128,-1,27
 639 938 639 938 542 938 c 0,28,29
 455 938 455 938 394 882 c 0,30,31
 324 817 324 817 324 721 c 2,32,-1
 324 567 l 1,33,-1
 326 395 l 2,34,35
 327 320 327 320 392 246 c 0,36,37
 452 178 452 178 554 174 c 2,38,-1
 600 172 l 1,39,-1
 728 178 l 1,40,-1
 644 0 l 1,41,42
 600 -4 600 -4 535 -4 c 0,0,1
EndSplineSet
Validated: 16385
EndChar

StartChar: Cacute
Encoding: 262 262 200
Width: 1388
GlyphClass: 2
Flags: W
HStem: 0 194<531.032 845.83> 1326 184<536.879 840.016>
VStem: 200 198<332.376 1183.21> 986 202<332.375 500 992 1188.12>
DStem2: 586 1722 716 1596 0.770645 0.637264<19.8886 404.856>
LayerCount: 2
Fore
SplineSet
988 898 m 1,0,-1
 986 1010 l 2,1,2
 983 1158 983 1158 910 1228 c 0,3,4
 807 1326 807 1326 694 1326 c 0,5,6
 560 1326 560 1326 474 1230 c 0,7,8
 398 1145 398 1145 398 1010 c 2,9,-1
 398 500 l 2,10,11
 398 368 398 368 476 284 c 0,12,13
 559 194 559 194 692 194 c 0,14,15
 821 194 821 194 910 290 c 0,16,17
 983 368 983 368 986 500 c 1,18,-1
 1188 594 l 1,19,-1
 1187 494 l 2,20,21
 1185 288 1185 288 1043 145 c 0,22,23
 898 0 898 0 694 0 c 128,-1,24
 490 0 490 0 345 145 c 256,25,26
 200 290 200 290 200 494 c 2,27,-1
 201 1016 l 2,28,29
 201 1220 201 1220 346 1365 c 0,30,31
 490 1510 490 1510 694 1510 c 128,-1,32
 898 1510 898 1510 1043 1365 c 256,33,34
 1188 1220 1188 1220 1188 1016 c 2,35,-1
 1188 992 l 1,36,-1
 988 898 l 1,0,-1
898 1980 m 1,37,-1
 1028 1854 l 1,38,-1
 716 1596 l 1,39,-1
 586 1722 l 1,40,-1
 898 1980 l 1,37,-1
EndSplineSet
Validated: 1
EndChar

StartChar: cacute
Encoding: 263 263 201
Width: 1084
GlyphClass: 2
Flags: W
HStem: -4 182<409.372 687.875> 938 182<407.469 681.416>
VStem: 130 194<266.99 853.612> 758 194<249.248 397 696 864.996>
DStem2: 424 1318 554 1192 0.770645 0.637264<19.8886 404.856>
LayerCount: 2
Fore
SplineSet
758 719 m 1,0,1
 758 839 758 839 687 891 c 0,2,3
 623 938 623 938 542 938 c 0,4,5
 455 938 455 938 394 882 c 0,6,7
 324 818 324 818 324 721 c 2,8,-1
 324 567 l 1,9,-1
 326 395 l 2,10,11
 327 298 327 298 396 234 c 0,12,13
 456 178 456 178 544 178 c 0,14,15
 655 178 655 178 710 242 c 0,16,17
 760 300 760 300 760 397 c 1,18,-1
 952 484 l 1,19,-1
 954 402 l 1,20,21
 954 231 954 231 834 115 c 0,22,23
 711 -4 711 -4 544 -4 c 0,24,25
 374 -4 374 -4 253 119 c 128,-1,26
 132 242 132 242 132 410 c 1,27,-1
 130 706 l 1,28,29
 130 874 130 874 251 997 c 128,-1,30
 372 1120 372 1120 542 1120 c 0,31,32
 700 1120 700 1120 832 1001 c 0,33,34
 952 892 952 892 952 714 c 2,35,-1
 952 696 l 1,36,-1
 756 608 l 1,37,-1
 758 719 l 1,0,1
736 1576 m 1,38,-1
 866 1450 l 1,39,-1
 554 1192 l 1,40,-1
 424 1318 l 1,41,-1
 736 1576 l 1,38,-1
EndSplineSet
Validated: 16385
EndChar

StartChar: Ccircumflex
Encoding: 264 264 202
Width: 1388
GlyphClass: 2
Flags: W
HStem: 0 194<531.032 845.83> 1326 184<536.879 840.016> 1752 234<591 825>
VStem: 200 198<332.376 1183.21> 986 202<332.375 500 992 1188.12>
LayerCount: 2
Fore
SplineSet
708 1752 m 1,0,-1
 526 1602 l 1,1,-1
 396 1728 l 1,2,-1
 708 1986 l 1,3,-1
 1020 1728 l 1,4,-1
 890 1602 l 1,5,-1
 708 1752 l 1,0,-1
988 898 m 1,6,-1
 986 1010 l 2,7,8
 983 1158 983 1158 910 1228 c 0,9,10
 807 1326 807 1326 694 1326 c 0,11,12
 560 1326 560 1326 474 1230 c 0,13,14
 398 1145 398 1145 398 1010 c 2,15,-1
 398 500 l 2,16,17
 398 368 398 368 476 284 c 0,18,19
 559 194 559 194 692 194 c 0,20,21
 821 194 821 194 910 290 c 0,22,23
 983 368 983 368 986 500 c 1,24,-1
 1188 594 l 1,25,-1
 1187 494 l 2,26,27
 1185 288 1185 288 1043 145 c 0,28,29
 898 0 898 0 694 0 c 128,-1,30
 490 0 490 0 345 145 c 256,31,32
 200 290 200 290 200 494 c 2,33,-1
 201 1016 l 2,34,35
 201 1220 201 1220 346 1365 c 0,36,37
 490 1510 490 1510 694 1510 c 128,-1,38
 898 1510 898 1510 1043 1365 c 256,39,40
 1188 1220 1188 1220 1188 1016 c 2,41,-1
 1188 992 l 1,42,-1
 988 898 l 1,6,-1
EndSplineSet
Validated: 1
EndChar

StartChar: ccircumflex
Encoding: 265 265 203
Width: 1084
GlyphClass: 2
Flags: W
HStem: -4 182<409.372 687.875> 938 182<407.469 681.416> 1350 234<417 651>
VStem: 130 194<266.99 853.612> 758 194<249.248 397 696 864.996>
LayerCount: 2
Fore
SplineSet
534 1350 m 1,0,-1
 352 1200 l 1,1,-1
 222 1326 l 1,2,-1
 534 1584 l 1,3,-1
 846 1326 l 1,4,-1
 716 1200 l 1,5,-1
 534 1350 l 1,0,-1
758 719 m 1,6,7
 758 839 758 839 687 891 c 0,8,9
 623 938 623 938 542 938 c 0,10,11
 455 938 455 938 394 882 c 0,12,13
 324 818 324 818 324 721 c 2,14,-1
 324 567 l 1,15,-1
 326 395 l 2,16,17
 327 298 327 298 396 234 c 0,18,19
 456 178 456 178 544 178 c 0,20,21
 655 178 655 178 710 242 c 0,22,23
 760 300 760 300 760 397 c 1,24,-1
 952 484 l 1,25,-1
 954 402 l 1,26,27
 954 231 954 231 834 115 c 0,28,29
 711 -4 711 -4 544 -4 c 0,30,31
 374 -4 374 -4 253 119 c 128,-1,32
 132 242 132 242 132 410 c 1,33,-1
 130 706 l 1,34,35
 130 874 130 874 251 997 c 128,-1,36
 372 1120 372 1120 542 1120 c 0,37,38
 700 1120 700 1120 832 1001 c 0,39,40
 952 892 952 892 952 714 c 2,41,-1
 952 696 l 1,42,-1
 756 608 l 1,43,-1
 758 719 l 1,6,7
EndSplineSet
Validated: 16385
EndChar

StartChar: Cdotaccent
Encoding: 266 266 204
Width: 1388
GlyphClass: 2
Flags: W
HStem: 0 194<531.032 845.83> 1326 184<536.879 840.016> 1632 264<604.191 785.809>
VStem: 200 198<332.376 1183.21> 565 260<1671.71 1856.29> 986 202<332.375 500 992 1188.12>
LayerCount: 2
Fore
SplineSet
565 1764 m 128,-1,1
 565 1819 565 1819 603 1857.5 c 128,-1,2
 641 1896 641 1896 695 1896 c 128,-1,3
 749 1896 749 1896 787 1857.5 c 128,-1,4
 825 1819 825 1819 825 1764 c 128,-1,5
 825 1709 825 1709 787 1670.5 c 128,-1,6
 749 1632 749 1632 695 1632 c 128,-1,7
 641 1632 641 1632 603 1670.5 c 128,-1,0
 565 1709 565 1709 565 1764 c 128,-1,1
988 898 m 1,8,-1
 986 1010 l 2,9,10
 983 1158 983 1158 910 1228 c 0,11,12
 807 1326 807 1326 694 1326 c 0,13,14
 560 1326 560 1326 474 1230 c 0,15,16
 398 1145 398 1145 398 1010 c 2,17,-1
 398 500 l 2,18,19
 398 368 398 368 476 284 c 0,20,21
 559 194 559 194 692 194 c 0,22,23
 821 194 821 194 910 290 c 0,24,25
 983 368 983 368 986 500 c 1,26,-1
 1188 594 l 1,27,-1
 1187 494 l 2,28,29
 1185 288 1185 288 1043 145 c 0,30,31
 898 0 898 0 694 0 c 128,-1,32
 490 0 490 0 345 145 c 256,33,34
 200 290 200 290 200 494 c 2,35,-1
 201 1016 l 2,36,37
 201 1220 201 1220 346 1365 c 0,38,39
 490 1510 490 1510 694 1510 c 128,-1,40
 898 1510 898 1510 1043 1365 c 256,41,42
 1188 1220 1188 1220 1188 1016 c 2,43,-1
 1188 992 l 1,44,-1
 988 898 l 1,8,-1
EndSplineSet
Validated: 1
EndChar

StartChar: cdotaccent
Encoding: 267 267 205
Width: 1084
GlyphClass: 2
Flags: W
HStem: -4 182<409.372 687.875> 938 182<407.469 681.416> 1250 264<447.191 628.809>
VStem: 130 194<266.99 853.612> 408 260<1289.71 1474.29> 758 194<249.248 397 696 864.996>
LayerCount: 2
Fore
SplineSet
408 1382 m 128,-1,1
 408 1437 408 1437 446 1475.5 c 128,-1,2
 484 1514 484 1514 538 1514 c 128,-1,3
 592 1514 592 1514 630 1475.5 c 128,-1,4
 668 1437 668 1437 668 1382 c 128,-1,5
 668 1327 668 1327 630 1288.5 c 128,-1,6
 592 1250 592 1250 538 1250 c 128,-1,7
 484 1250 484 1250 446 1288.5 c 128,-1,0
 408 1327 408 1327 408 1382 c 128,-1,1
758 719 m 1,8,9
 758 839 758 839 687 891 c 0,10,11
 623 938 623 938 542 938 c 0,12,13
 455 938 455 938 394 882 c 0,14,15
 324 818 324 818 324 721 c 2,16,-1
 324 567 l 1,17,-1
 326 395 l 2,18,19
 327 298 327 298 396 234 c 0,20,21
 456 178 456 178 544 178 c 0,22,23
 655 178 655 178 710 242 c 0,24,25
 760 300 760 300 760 397 c 1,26,-1
 952 484 l 1,27,-1
 954 402 l 1,28,29
 954 231 954 231 834 115 c 0,30,31
 711 -4 711 -4 544 -4 c 0,32,33
 374 -4 374 -4 253 119 c 128,-1,34
 132 242 132 242 132 410 c 1,35,-1
 130 706 l 1,36,37
 130 874 130 874 251 997 c 128,-1,38
 372 1120 372 1120 542 1120 c 0,39,40
 700 1120 700 1120 832 1001 c 0,41,42
 952 892 952 892 952 714 c 2,43,-1
 952 696 l 1,44,-1
 756 608 l 1,45,-1
 758 719 l 1,8,9
EndSplineSet
Validated: 16385
EndChar

StartChar: Ccaron
Encoding: 268 268 206
Width: 1388
GlyphClass: 2
Flags: W
HStem: 0 194<531.032 845.83> 1326 184<536.879 840.016> 1611 234<587 821>
VStem: 200 198<332.376 1183.21> 986 202<332.375 500 992 1188.12>
LayerCount: 2
Fore
SplineSet
704 1845 m 1,0,-1
 886 1995 l 1,1,-1
 1016 1869 l 1,2,-1
 704 1611 l 1,3,-1
 392 1869 l 1,4,-1
 522 1995 l 1,5,-1
 704 1845 l 1,0,-1
988 898 m 1,6,-1
 986 1010 l 2,7,8
 983 1158 983 1158 910 1228 c 0,9,10
 807 1326 807 1326 694 1326 c 0,11,12
 560 1326 560 1326 474 1230 c 0,13,14
 398 1145 398 1145 398 1010 c 2,15,-1
 398 500 l 2,16,17
 398 368 398 368 476 284 c 0,18,19
 559 194 559 194 692 194 c 0,20,21
 821 194 821 194 910 290 c 0,22,23
 983 368 983 368 986 500 c 1,24,-1
 1188 594 l 1,25,-1
 1187 494 l 2,26,27
 1185 288 1185 288 1043 145 c 0,28,29
 898 0 898 0 694 0 c 128,-1,30
 490 0 490 0 345 145 c 256,31,32
 200 290 200 290 200 494 c 2,33,-1
 201 1016 l 2,34,35
 201 1220 201 1220 346 1365 c 0,36,37
 490 1510 490 1510 694 1510 c 128,-1,38
 898 1510 898 1510 1043 1365 c 256,39,40
 1188 1220 1188 1220 1188 1016 c 2,41,-1
 1188 992 l 1,42,-1
 988 898 l 1,6,-1
EndSplineSet
Validated: 1
EndChar

StartChar: ccaron
Encoding: 269 269 207
Width: 1084
GlyphClass: 2
Flags: W
HStem: -4 182<409.372 687.875> 938 182<407.469 681.416> 1200 234<417 651>
VStem: 130 194<266.99 853.612> 758 194<249.248 397 696 864.996>
LayerCount: 2
Fore
SplineSet
534 1434 m 1,0,-1
 716 1584 l 1,1,-1
 846 1458 l 1,2,-1
 534 1200 l 1,3,-1
 222 1458 l 1,4,-1
 352 1584 l 1,5,-1
 534 1434 l 1,0,-1
758 719 m 1,6,7
 758 839 758 839 687 891 c 0,8,9
 623 938 623 938 542 938 c 0,10,11
 455 938 455 938 394 882 c 0,12,13
 324 818 324 818 324 721 c 2,14,-1
 324 567 l 1,15,-1
 326 395 l 2,16,17
 327 298 327 298 396 234 c 0,18,19
 456 178 456 178 544 178 c 0,20,21
 655 178 655 178 710 242 c 0,22,23
 760 300 760 300 760 397 c 1,24,-1
 952 484 l 1,25,-1
 954 402 l 1,26,27
 954 231 954 231 834 115 c 0,28,29
 711 -4 711 -4 544 -4 c 0,30,31
 374 -4 374 -4 253 119 c 128,-1,32
 132 242 132 242 132 410 c 1,33,-1
 130 706 l 1,34,35
 130 874 130 874 251 997 c 128,-1,36
 372 1120 372 1120 542 1120 c 0,37,38
 700 1120 700 1120 832 1001 c 0,39,40
 952 892 952 892 952 714 c 2,41,-1
 952 696 l 1,42,-1
 756 608 l 1,43,-1
 758 719 l 1,6,7
EndSplineSet
Validated: 16385
EndChar

StartChar: Dcaron
Encoding: 270 270 208
Width: 1408
GlyphClass: 2
Flags: W
HStem: 20 190<396 891.051> 1302 193<398 895.186> 1611 234<587 821>
VStem: 200 196<210 1302> 1012 196<342.352 1177.62>
LayerCount: 2
Fore
SplineSet
704 1845 m 1,0,-1
 886 1995 l 1,1,-1
 1016 1869 l 1,2,-1
 704 1611 l 1,3,-1
 392 1869 l 1,4,-1
 522 1995 l 1,5,-1
 704 1845 l 1,0,-1
707 1303 m 2,6,-1
 396 1302 l 1,7,-1
 396 210 l 1,8,-1
 707 210 l 2,9,10
 859 210 859 210 924 280 c 0,11,12
 1008 371 1008 371 1010 494 c 1,13,-1
 1012 1015 l 1,14,15
 1012 1015 1012 1015 1012 1018 c 0,16,17
 1012 1147 1012 1147 918 1240 c 0,18,19
 854 1303 854 1303 707 1303 c 2,6,-1
714 21 m 2,20,-1
 200 20 l 1,21,-1
 200 1407 l 1,22,-1
 398 1496 l 1,23,-1
 398 1495 l 1,24,-1
 714 1493 l 1,25,26
 935 1493 935 1493 1063 1365 c 0,27,28
 1208 1220 1208 1220 1208 1016 c 2,29,-1
 1207 494 l 1,30,31
 1204 287 1204 287 1063 146 c 0,32,33
 938 21 938 21 714 21 c 2,20,-1
EndSplineSet
Validated: 1
EndChar

StartChar: dcaron
Encoding: 271 271 209
Width: 1349
GlyphClass: 2
Flags: W
HStem: -4 182<409.469 678.69> 938 182<407.469 676.229> 1491 20G<903 947.964>
VStem: 130 194<266.494 853.612> 755 191<253.761 859.863 1063 1423>
DStem2: 999 1148 1170 1089 0.429359 0.903134<20.1354 405.255>
LayerCount: 2
Fore
SplineSet
1173 1514 m 1,0,-1
 1344 1455 l 1,1,-1
 1170 1089 l 1,2,-1
 999 1148 l 1,3,-1
 1173 1514 l 1,0,-1
326 395 m 2,4,5
 327 298 327 298 396 234 c 0,6,7
 457 178 457 178 544 178 c 0,8,9
 647 178 647 178 700 242 c 1,10,11
 747 284 747 284 758 361 c 1,12,-1
 755 758 l 1,13,14
 746 825 746 825 698 874 c 1,15,16
 640 938 640 938 542 938 c 0,17,18
 455 938 455 938 394 882 c 0,19,20
 324 817 324 817 324 721 c 2,21,-1
 324 567 l 1,22,-1
 326 395 l 2,4,5
753 1063 m 1,23,-1
 750 1423 l 1,24,-1
 948 1511 l 1,25,-1
 946 400 l 2,26,27
 946 223 946 223 834 115 c 0,28,29
 711 -4 711 -4 544 -4 c 0,30,31
 374 -4 374 -4 253 119 c 0,32,33
 133 241 133 241 132 410 c 2,34,-1
 130 706 l 1,35,36
 130 874 130 874 251 997 c 128,-1,37
 372 1120 372 1120 542 1120 c 0,38,39
 658 1120 658 1120 753 1063 c 1,23,-1
EndSplineSet
Validated: 1
EndChar

StartChar: Dcroat
Encoding: 272 272 210
Width: 1408
GlyphClass: 2
Flags: W
HStem: 20 190<396 891.051> 618 198<95 200 396 764> 1302 193<398 895.682>
VStem: 200 196<210 618 816 1302> 1012 196<342.352 1177.62>
LayerCount: 2
Fore
SplineSet
714 21 m 2,0,-1
 200 20 l 1,1,-1
 200 618 l 1,2,-1
 5 618 l 1,3,-1
 95 816 l 1,4,-1
 200 816 l 1,5,-1
 200 1407 l 1,6,-1
 398 1496 l 1,7,-1
 398 1495 l 1,8,-1
 714 1493 l 2,9,10
 936 1492 936 1492 1063 1365 c 0,11,12
 1208 1220 1208 1220 1208 1016 c 2,13,-1
 1207 494 l 1,14,15
 1204 287 1204 287 1063 146 c 0,16,17
 938 21 938 21 714 21 c 2,0,-1
707 1303 m 2,18,-1
 396 1302 l 1,19,-1
 396 816 l 1,20,-1
 856 816 l 1,21,-1
 764 618 l 1,22,-1
 396 618 l 1,23,-1
 396 210 l 1,24,-1
 707 210 l 2,25,26
 859 210 859 210 924 280 c 0,27,28
 1008 371 1008 371 1010 494 c 1,29,-1
 1012 1015 l 1,30,-1
 1012 1018 l 2,31,32
 1012 1147 1012 1147 918 1240 c 0,33,34
 854 1303 854 1303 707 1303 c 2,18,-1
EndSplineSet
Validated: 1
EndChar

StartChar: dcroat
Encoding: 273 273 211
Width: 1098
GlyphClass: 2
Flags: W
HStem: -4 182<409.469 678.69> 938 182<407.469 676.229> 1186 198<418 750 948 1001> 1491 20G<903 948>
VStem: 130 194<266.494 853.612> 750 198<249.224 866.234 1063 1186 1384 1423>
LayerCount: 2
Fore
SplineSet
326 395 m 2,0,1
 327 298 327 298 396 234 c 0,2,3
 457 178 457 178 544 178 c 0,4,5
 647 178 647 178 700 242 c 1,6,7
 747 284 747 284 758 361 c 1,8,-1
 755 758 l 1,9,10
 746 825 746 825 698 874 c 1,11,12
 640 938 640 938 542 938 c 0,13,14
 455 938 455 938 394 882 c 0,15,16
 324 817 324 817 324 721 c 2,17,-1
 324 567 l 1,18,-1
 326 395 l 2,0,1
947 1186 m 1,19,-1
 946 400 l 2,20,21
 946 223 946 223 834 115 c 0,22,23
 711 -4 711 -4 544 -4 c 0,24,25
 374 -4 374 -4 253 119 c 0,26,27
 133 241 133 241 132 410 c 2,28,-1
 130 706 l 1,29,30
 130 874 130 874 251 997 c 128,-1,31
 372 1120 372 1120 542 1120 c 0,32,33
 658 1120 658 1120 753 1063 c 1,34,-1
 752 1186 l 1,35,-1
 328 1186 l 1,36,-1
 418 1384 l 1,37,-1
 750 1384 l 1,38,-1
 750 1423 l 1,39,-1
 948 1511 l 1,40,-1
 948 1384 l 1,41,-1
 1093 1384 l 1,42,-1
 1001 1186 l 1,43,-1
 947 1186 l 1,19,-1
EndSplineSet
Validated: 1
EndChar

StartChar: Emacron
Encoding: 274 274 212
Width: 1138
GlyphClass: 2
Flags: W
HStem: 22 192<396 996> 664 192<397 886> 1300 191<398 896> 1686 198<418 1046>
VStem: 200 196<214 664 856 1300>
LayerCount: 2
Fore
SplineSet
418 1884 m 1,0,-1
 1138 1884 l 1,1,-1
 1046 1686 l 1,2,-1
 328 1686 l 1,3,-1
 418 1884 l 1,0,-1
396 1300 m 1,4,-1
 397 856 l 1,5,-1
 978 856 l 1,6,-1
 886 666 l 1,7,-1
 396 664 l 1,8,-1
 396 214 l 1,9,-1
 1088 214 l 1,10,-1
 996 22 l 1,11,-1
 200 22 l 1,12,-1
 200 1402 l 1,13,-1
 398 1491 l 1,14,-1
 982 1490 l 1,15,-1
 896 1302 l 1,16,-1
 396 1300 l 1,4,-1
EndSplineSet
Validated: 1
EndChar

